<svg id="Layer_1" data-name="Layer 1" xmlns="http://www.w3.org/2000/svg" viewBox="0 0 80.1 80.1"><defs><style>.cls-1{fill:#fbfbfd;}.cls-2{fill:#dd3b21;}.cls-3{fill:#3e74b7;}.cls-4{fill:#eac8a6;}</style></defs><rect class="cls-1" width="80.1" height="80.1" rx="16.03"/><path class="cls-2" d="M73.58,25.17a12.88,12.88,0,0,0-4.87-4.75,12.3,12.3,0,0,0-6-1.62,12.47,12.47,0,0,0-6.21,1.67,13.81,13.81,0,0,0-4.92,4.76,13.3,13.3,0,0,0-2,7.32V62.86s0,.11,0,.16H75.48V33.11A15.06,15.06,0,0,0,73.58,25.17Z"/><path class="cls-2" d="M42.26,62.74V33.11a15.06,15.06,0,0,0-1.9-7.94,12.88,12.88,0,0,0-4.87-4.75,12.34,12.34,0,0,0-5.92-1.62,12.78,12.78,0,0,0-5.9,1.51l.47.27a13.9,13.9,0,0,1,4.64,4.92,14.22,14.22,0,0,1,1.79,7.16v30.2a.86.86,0,0,0,0,.16h11.7A2.46,2.46,0,0,1,42.26,62.74Z"/><path class="cls-3" d="M16.44,33.11a14.6,14.6,0,0,1,1.95-7.77,13.57,13.57,0,0,1,5-4.87l.3-.16a11.75,11.75,0,0,0-5.85-1.51,12.8,12.8,0,0,0-6.26,1.67,13.49,13.49,0,0,0-5,4.87,14.51,14.51,0,0,0-2,7.77V63h11.8a2.46,2.46,0,0,0,0-.28Z"/><path class="cls-4" d="M30.57,32.66a14.22,14.22,0,0,0-1.79-7.16,13.9,13.9,0,0,0-4.64-4.92l-.47-.27-.3.16a13.57,13.57,0,0,0-5,4.87,14.6,14.6,0,0,0-1.95,7.77V62.74a2.46,2.46,0,0,1,0,.28H30.58a.86.86,0,0,1,0-.16Z"/></svg>