<svg version="1.1" xmlns="http://www.w3.org/2000/svg" x="0px" y="0px" width="32px" height="32px" viewBox="0 0 32 32">
	<path d="M26.1,20.7c-2.9,5.1-9.3,8.8-10.8,9.6c-2.1-1.1-13.7-7.8-13.7-16.1c0-3.6,2.8-6.5,6.5-6.5c2.6,0,4.9,1.5,5.9,3.9l0.7,1.7
		l0.7-1.7c1-2.4,3.3-3.9,5.9-3.9c3.6,0,6.5,2.8,6.5,6.5V15h1.5v-0.8c0-4.5-3.5-8-8-8c-2.7,0-5.2,1.3-6.6,3.5
		c-1.4-2.2-3.9-3.5-6.6-3.5c-4.5,0-8,3.5-8,8c0,10,14.3,17.3,14.9,17.6l0.3,0.2l0.3-0.2c0.3-0.2,8.3-4.2,11.8-10.4l0.4-0.7L26.5,20
		L26.1,20.7z"/>
	<polygon points="22.9,17 19.5,21.2 17,14.5 11.6,19.9 12.6,20.9 16.4,17.2 19,24.2 23.6,18.5 31.9,18.5 31.9,17 	"/>
</svg>
