<svg version="1.1" xmlns="http://www.w3.org/2000/svg" width="32px" height="32px" viewBox="0 0 32 32">
	<path d="M28.4,16.1c1-1.7,1.9-3.3,2.5-4.9c1.5-4,1.3-7.3-0.6-9.2C27.5-0.8,22,0.1,16.1,3.7C10.3,0.1,4.7-0.8,2,1.9
		c-2.8,2.8-1.9,8.3,1.8,14.1c-3.3,5.3-4.4,10.4-2.5,13.4C1.5,29.7,1.7,30,2,30.2c1.1,1.1,2.6,1.6,4.4,1.6c1.4,0,3-0.3,4.8-1
		c1.6-0.6,3.2-1.4,4.9-2.5c2.6,1.6,5.1,2.7,7.4,3.2c0,0,0.1,0,0.1,0c0.3,0.1,0.7,0.1,1,0.2c0.1,0,0.1,0,0.2,0c0.4,0,0.7,0.1,1,0.1
		c0,0,0,0,0,0c0,0,0,0,0,0c0.3,0,0.5,0,0.8-0.1c0.2,0,0.4,0,0.5,0c0.3,0,0.6-0.1,0.9-0.2c0.1,0,0.2,0,0.3-0.1
		c0.3-0.1,0.5-0.2,0.8-0.4c0.1,0,0.2-0.1,0.3-0.1c0.3-0.2,0.6-0.4,0.9-0.7c1.9-1.9,2.1-5.2,0.6-9.2C30.3,19.4,29.5,17.7,28.4,16.1z
		 M29.5,21.5c1.3,3.4,1.1,6.2-0.3,7.6c-0.2,0.2-0.4,0.3-0.6,0.5c-0.2,0.1-0.4,0.2-0.6,0.3c0,0-0.1,0-0.1,0.1
		c-0.3,0.1-0.5,0.2-0.8,0.2c0,0,0,0,0,0c-0.3,0.1-0.6,0.1-0.9,0.1c0,0,0,0,0,0c-0.3,0-0.6,0-0.8,0c-0.1,0-0.1,0-0.2,0
		c-0.2,0-0.5-0.1-0.7-0.1c-0.2,0-0.3,0-0.5-0.1c-0.1,0-0.3-0.1-0.4-0.1c-0.3-0.1-0.6-0.1-0.9-0.2c0,0-0.1,0-0.1,0
		c-1.5-0.5-3.2-1.3-4.9-2.3c1.9-1.3,3.7-2.8,5.4-4.6c1.7-1.7,3.3-3.6,4.6-5.5C28.3,18.8,29,20.2,29.5,21.5z M5.6,16.1
		c1.3-1.9,2.9-3.9,4.7-5.8c1.9-1.9,3.8-3.5,5.8-4.7c0,0,0,0,0.1,0c0.1,0.1,0.2,0.2,0.4,0.2c0.4,0.3,0.8,0.6,1.2,0.8c0,0,0,0,0.1,0.1
		c0.4,0.3,0.8,0.6,1.2,1c0.1,0.1,0.2,0.2,0.4,0.3c0.3,0.3,0.6,0.5,0.9,0.8c0.1,0.1,0.2,0.2,0.4,0.3c0.4,0.4,0.8,0.8,1.2,1.2
		c1.8,1.8,3.5,3.8,4.8,5.8c-1.3,2-2.9,3.9-4.8,5.8c-1.8,1.8-3.8,3.4-5.8,4.8c-1.9-1.3-3.9-2.9-5.8-4.8C8.5,20,6.9,18,5.6,16.1z
		 M25.8,1.8c1.4,0,2.6,0.4,3.4,1.2c1.4,1.4,1.5,4.2,0.3,7.6c-0.5,1.3-1.2,2.7-2,4c-1.3-1.9-2.8-3.7-4.6-5.5
		c-1.8-1.8-3.6-3.3-5.4-4.6C20.6,2.8,23.5,1.8,25.8,1.8z M3,3c0.2-0.2,0.4-0.4,0.7-0.5C3.8,2.4,3.9,2.4,4,2.3
		c0.1-0.1,0.3-0.1,0.4-0.2C4.6,2.1,4.8,2,4.9,2c0.1,0,0.3-0.1,0.4-0.1c0.2,0,0.4,0,0.5,0c0.1,0,0.3,0,0.4,0c0.3,0,0.6,0,1,0.1
		c0.1,0,0.1,0,0.2,0C7.8,1.9,8.1,2,8.4,2c0.1,0,0.2,0,0.3,0.1c0.3,0.1,0.7,0.2,1,0.3c0,0,0.1,0,0.1,0c0.4,0.1,0.8,0.3,1.2,0.4
		c0.1,0,0.2,0.1,0.3,0.1c0.3,0.1,0.6,0.3,0.9,0.4c0.1,0,0.2,0.1,0.3,0.1c0.4,0.2,0.8,0.4,1.1,0.6c0,0,0.1,0,0.1,0
		c0.4,0.2,0.7,0.4,1.1,0.6c-1.8,1.3-3.7,2.8-5.4,4.6C7.5,11,6,12.8,4.7,14.7C1.8,9.7,0.9,5.1,3,3z M10.7,29.4
		c-3.4,1.3-6.2,1.1-7.6-0.3C0.9,27,1.8,22.4,4.7,17.5c1.3,1.8,2.8,3.7,4.6,5.4c0.4,0.4,0.9,0.8,1.3,1.2c0.1,0.1,0.2,0.2,0.3,0.3
		c0.4,0.3,0.8,0.7,1.1,1c0.1,0.1,0.1,0.1,0.2,0.2c0.8,0.7,1.7,1.3,2.5,1.9C13.4,28.3,12,28.9,10.7,29.4z"/>
	<path d="M19.4,19.3c1.8-1.8,1.8-4.8,0-6.6c-1.8-1.8-4.8-1.8-6.6,0c-1.8,1.8-1.8,4.8,0,6.6c0.9,0.9,2.1,1.4,3.3,1.4
		C17.3,20.7,18.5,20.3,19.4,19.3z M13.9,13.8c0.6-0.6,1.4-0.9,2.2-0.9s1.6,0.3,2.2,0.9c1.2,1.2,1.2,3.2,0,4.4s-3.2,1.2-4.4,0
		S12.7,15.1,13.9,13.8z"/>
</svg>
