<?xml version="1.0" encoding="UTF-8" standalone="no"?>
<!DOCTYPE svg PUBLIC "-//W3C//DTD SVG 1.1//EN" "http://www.w3.org/Graphics/SVG/1.1/DTD/svg11.dtd">
<svg width="100%" height="100%" viewBox="0 0 260 260" version="1.1" xmlns="http://www.w3.org/2000/svg" xmlns:xlink="http://www.w3.org/1999/xlink" xml:space="preserve" xmlns:serif="http://www.serif.com/" style="fill-rule:evenodd;clip-rule:evenodd;stroke-linejoin:round;stroke-miterlimit:2;">
    <g transform="matrix(1.40599,0,0,1.40599,0,-0.353211)">
        <path d="M90.27,164.97C50.89,164.97 18.85,132.46 18.85,92.5C18.85,52.54 50.89,20.02 90.27,20.02C129.65,20.02 161.69,52.53 161.69,92.5C161.69,132.47 129.65,164.97 90.27,164.97ZM90.27,28.27C55.44,28.27 27.1,57.08 27.1,92.5C27.1,127.92 55.44,156.73 90.27,156.73C125.1,156.73 153.44,127.92 153.44,92.5C153.44,57.08 125.1,28.27 90.27,28.27Z" style="fill:white;fill-rule:nonzero;"/>
    </g>
    <g transform="matrix(1.40599,0,0,1.40599,0,-0.353211)">
        <path d="M90.27,184.13C40.5,184.13 0,143.02 0,92.5C0,41.98 40.5,0.87 90.27,0.87C140.04,0.87 180.54,41.98 180.54,92.5C180.54,143.02 140.04,184.13 90.27,184.13ZM90.27,9.12C45.04,9.12 8.25,46.52 8.25,92.5C8.25,138.48 45.05,175.88 90.27,175.88C135.49,175.88 172.29,138.48 172.29,92.5C172.29,46.52 135.5,9.12 90.27,9.12Z" style="fill:white;fill-rule:nonzero;"/>
    </g>
    <g transform="matrix(1.40599,0,0,1.40599,0,-0.353211)">
        <path d="M78.46,104.41L78.46,133.06L61.12,133.06L61.12,47.61L94.3,47.61C114.41,47.61 124.46,56.99 124.46,75.76C124.46,86.9 120.27,95.11 111.89,100.39L124.08,133.06L105.1,133.06L95.17,104.41L78.46,104.41ZM103.72,85.81C105.73,83.3 106.74,79.99 106.74,75.88C106.74,71.77 105.67,68.51 103.54,66.08C101.4,63.65 98.32,62.44 94.3,62.44L78.47,62.44L78.47,89.58L94.56,89.58C98.66,89.58 101.72,88.32 103.73,85.81L103.72,85.81Z" style="fill:white;fill-rule:nonzero;"/>
    </g>
</svg>
