<?xml version="1.0" encoding="UTF-8" standalone="no"?>
<!DOCTYPE svg PUBLIC "-//W3C//DTD SVG 1.1//EN" "http://www.w3.org/Graphics/SVG/1.1/DTD/svg11.dtd">
<svg width="100%" height="100%" viewBox="0 0 600 570" version="1.1" xmlns="http://www.w3.org/2000/svg" xmlns:xlink="http://www.w3.org/1999/xlink" xml:space="preserve" xmlns:serif="http://www.serif.com/" style="fill-rule:evenodd;clip-rule:evenodd;stroke-linejoin:round;stroke-miterlimit:2;">
    <g transform="matrix(0.394202,0,0,0.394202,-23.9437,134.545)">
        <g transform="matrix(4.16667,0,0,4.16667,631.571,498.171)">
            <path d="M0,34.103C-0.2,30.569 -0.383,27.044 -0.55,23.527C-0.717,20.01 -0.833,16.468 -0.9,12.902L-1,12.902C-2.6,15.902 -4.284,18.819 -6.05,21.652L-11.351,30.203L-11.851,30.203L-17.151,21.652C-18.918,18.819 -20.602,15.902 -22.202,12.902L-22.301,12.902C-22.368,16.468 -22.485,20.01 -22.651,23.527C-22.818,27.044 -23.001,30.569 -23.202,34.103L-30.802,34.103L-28.702,0L-22.202,0L-11.651,17.202L-11.551,17.202L-1,0L5.5,0L7.6,34.103L0,34.103Z" style="fill:rgb(3,4,5);fill-rule:nonzero;"/>
        </g>
        <g transform="matrix(4.16667,0,0,4.16667,795.316,498.171)">
            <path d="M0,34.103L-24.202,34.103L-24.202,0L-0.45,0L-0.45,7.001L-16.801,7.001L-16.801,13.501L-1.85,13.501L-1.85,20.501L-16.801,20.501L-16.801,27.102L0,27.102L0,34.103Z" style="fill:rgb(3,4,5);fill-rule:nonzero;"/>
        </g>
        <g transform="matrix(4.16667,0,0,4.16667,867.813,611.098)">
            <path d="M0,-20.101L-3.75,-20.101L-3.75,0L0,0C3.833,0 6.65,-0.817 8.45,-2.451C10.25,-4.083 11.15,-6.618 11.15,-10.051C11.15,-16.751 7.434,-20.101 0,-20.101M17.326,-2.9C16.476,-0.8 15.259,0.983 13.676,2.45C12.092,3.917 10.167,5.042 7.9,5.825C5.634,6.609 3.1,7.001 0.3,7.001L-11.151,7.001L-11.151,-27.102L0.3,-27.102C3.1,-27.102 5.634,-26.71 7.9,-25.927C10.167,-25.143 12.092,-24.018 13.676,-22.551C15.259,-21.084 16.476,-19.301 17.326,-17.202C18.176,-15.101 18.601,-12.717 18.601,-10.051C18.601,-7.384 18.176,-5 17.326,-2.9" style="fill:rgb(3,4,5);fill-rule:nonzero;"/>
        </g>
        <g transform="matrix(4.16667,0,0,4.16667,0,442.613)">
            <rect x="233.274" y="13.335" width="7.4" height="34.103" style="fill:rgb(3,4,5);"/>
        </g>
        <g transform="matrix(4.16667,0,0,4.16667,1087.08,576.095)">
            <path d="M0,-3.3C-0.649,-1.333 -1.358,0.634 -2.125,2.6L6.226,2.6C5.459,0.634 4.742,-1.333 4.075,-3.3L2.075,-9.25L1.976,-9.25L0,-3.3ZM-5.025,9.451L-7.525,15.401L-15.726,15.401L-1.075,-18.701L5.125,-18.701L19.776,15.401L11.576,15.401L9.076,9.451L-5.025,9.451Z" style="fill:rgb(3,4,5);fill-rule:nonzero;"/>
        </g>
        <g transform="matrix(-4.16667,0,0,4.16667,1023.13,33.0833)">
            <rect x="116.115" y="74.715" width="13.32" height="9.63" style="fill:rgb(3,4,5);"/>
        </g>
        <g transform="matrix(-4.16667,0,0,4.16667,702.887,33.0833)">
            <rect x="77.687" y="74.715" width="13.319" height="9.63" style="fill:rgb(3,4,5);"/>
        </g>
        <g transform="matrix(4.16667,0,0,4.16667,483.812,284.971)">
            <path d="M0,-28.058L-25.109,-28.058L-25.109,-37.979L-38.428,-37.979L-38.428,9.921L-25.109,9.921L-25.109,-15.458L0,-15.458L0,9.921L13.32,9.921L13.32,-37.979L0,-37.979L0,-28.058Z" style="fill:rgb(3,4,5);fill-rule:nonzero;"/>
        </g>
        <g transform="matrix(4.16667,0,0,4.16667,681.122,269.025)">
            <path d="M0,9.769L3.555,-0.941L3.735,-0.941L7.335,9.769C8.535,13.309 9.825,16.848 11.205,20.388L-3.825,20.388C-2.445,16.848 -1.17,13.309 0,9.769M9.225,-17.95L-1.935,-17.95L-21.555,27.719L28.845,27.719L9.225,-17.95Z" style="fill:rgb(3,4,5);fill-rule:nonzero;"/>
        </g>
        <g transform="matrix(4.16667,0,0,4.16667,563.19,126.726)">
            <path d="M0,17.211L14.759,17.211L19.259,6.502L44.638,6.502L49.139,17.211L63.897,17.211L56.503,0L7.394,0L0,17.211Z" style="fill:rgb(3,4,5);fill-rule:nonzero;"/>
        </g>
        <g transform="matrix(-4.16667,0,0,4.16667,917.128,384.523)">
            <path d="M2.246,-17.669L13.315,-17.669L13.315,0L-11.069,0L2.246,-17.669Z" style="fill:rgb(3,4,5);fill-rule:nonzero;"/>
        </g>
        <g transform="matrix(-4.16667,0,0,4.16667,2106.53,-0.4125)">
            <rect x="246.124" y="74.715" width="13.319" height="17.669" style="fill:rgb(3,4,5);"/>
        </g>
        <g transform="matrix(4.16667,0,0,4.16667,1025.52,285.343)">
            <path d="M0,-36.276C0,-33.876 0.03,-31.491 0.09,-29.121L0.27,-21.966L0.09,-21.966L-12.044,-38.068L-39.328,-38.068L-39.328,1.792L-26.009,1.792L-26.009,-21.516C-26.009,-23.917 -26.039,-26.301 -26.099,-28.672L-26.279,-35.826L-26.099,-35.826L2.16,1.792L13.319,1.792L13.319,-38.068L0,-38.068L0,-36.276Z" style="fill:rgb(3,4,5);fill-rule:nonzero;"/>
        </g>
        <g transform="matrix(4.16667,0,0,4.16667,1350.47,384.523)">
            <path d="M0,-15.798L-25.109,-15.798L-25.109,-3.198L-13.319,-3.198L-13.319,0L0,0L0,-15.798Z" style="fill:rgb(3,4,5);fill-rule:nonzero;"/>
        </g>
        <g transform="matrix(4.16667,0,0,4.16667,1176.29,219.905)">
            <path d="M0,36.219C-0.93,33.879 -1.395,31.3 -1.395,28.48C-1.395,25.659 -0.93,23.08 0,20.74C0.931,18.4 2.22,16.375 3.87,14.665C5.521,12.955 7.47,11.635 9.72,10.705C11.97,9.776 14.444,9.311 17.145,9.311C20.084,9.311 22.754,9.896 25.154,11.066C27.554,12.236 29.594,13.811 31.274,15.79L41.354,6.79C38.414,3.551 34.858,1.061 30.689,-0.679C26.52,-2.419 22.004,-3.289 17.145,-3.289C12.645,-3.289 8.445,-2.494 4.545,-0.904C0.646,0.686 -2.729,2.906 -5.579,5.756C-8.43,8.606 -10.664,11.965 -12.284,15.835C-13.904,19.705 -14.714,23.92 -14.714,28.48C-14.714,32.413 -14.108,36.088 -12.903,39.508L1.676,39.508C1.027,38.491 0.468,37.395 0,36.219" style="fill:rgb(3,4,5);fill-rule:nonzero;"/>
        </g>
        <g transform="matrix(4.16667,0,0,4.16667,1294.97,186.72)">
            <path d="M0,-13.522C-3.48,-12.322 -7.26,-11.722 -11.34,-11.722C-14.04,-11.722 -16.515,-12.187 -18.765,-13.117C-19.641,-13.479 -20.458,-13.918 -21.243,-14.399L-38.851,-14.399C-37.515,-12.106 -35.923,-10.026 -34.063,-8.168C-31.214,-5.317 -27.839,-3.097 -23.939,-1.507C-20.039,0.082 -15.84,0.877 -11.34,0.877C-8.76,0.877 -6.255,0.667 -3.825,0.248C-1.396,-0.172 0.885,-0.712 3.015,-1.373C5.145,-2.033 7.079,-2.797 8.819,-3.668C10.56,-4.538 12.06,-5.422 13.319,-6.322L13.319,-14.399L0,-14.399L0,-13.522Z" style="fill:rgb(3,4,5);fill-rule:nonzero;"/>
        </g>
        <g transform="matrix(4.16667,0,0,4.16667,1579.43,330.804)">
            <path d="M0,-36.177L0,-48.777L-42.748,-48.777L-42.748,12.6L0.81,12.6L0.81,0.001L-29.429,0.001L-29.429,-11.878L-2.52,-11.878L-2.52,-24.478L-29.429,-24.478L-29.429,-36.177L0,-36.177Z" style="fill:rgb(3,4,5);fill-rule:nonzero;"/>
        </g>
        <g transform="matrix(4.16667,0,0,4.16667,253.481,204.062)">
            <path d="M0,24.75C-1.74,26.85 -3.825,28.499 -6.255,29.699C-8.685,30.899 -11.4,31.499 -14.399,31.499C-17.1,31.499 -19.574,31.034 -21.824,30.104C-24.074,29.175 -26.024,27.854 -27.674,26.145C-29.324,24.435 -30.614,22.409 -31.544,20.069C-32.474,17.729 -32.939,15.15 -32.939,12.33C-32.939,9.51 -32.474,6.931 -31.544,4.591C-30.614,2.25 -29.324,0.226 -27.674,-1.484C-26.024,-3.194 -24.074,-4.515 -21.824,-5.444C-19.574,-6.374 -17.1,-6.839 -14.399,-6.839C-11.46,-6.839 -8.79,-6.254 -6.39,-5.084C-3.99,-3.914 -1.95,-2.339 -0.27,-0.359L9.81,-9.359C6.87,-12.599 3.314,-15.089 -0.855,-16.829C-2.62,-17.565 -4.451,-18.136 -6.34,-18.561C-6.958,-18.7 -7.584,-18.822 -8.216,-18.928C-8.265,-18.936 -8.314,-18.944 -8.363,-18.952C-8.932,-19.045 -9.507,-19.124 -10.087,-19.19C-10.191,-19.202 -10.294,-19.215 -10.398,-19.226C-10.931,-19.282 -11.47,-19.325 -12.012,-19.358C-12.145,-19.366 -12.277,-19.378 -12.411,-19.385C-13.068,-19.418 -13.73,-19.438 -14.399,-19.438C-15.034,-19.438 -15.661,-19.419 -16.284,-19.387C-16.449,-19.378 -16.611,-19.364 -16.775,-19.354C-17.248,-19.323 -17.717,-19.285 -18.182,-19.236C-18.342,-19.219 -18.5,-19.2 -18.659,-19.181C-19.152,-19.122 -19.641,-19.053 -20.127,-18.973C-20.239,-18.955 -20.352,-18.938 -20.464,-18.918C-21.06,-18.814 -21.65,-18.697 -22.234,-18.561C-23.869,-18.181 -25.458,-17.682 -26.999,-17.054C-30.899,-15.464 -34.274,-13.244 -37.124,-10.394C-39.974,-7.544 -42.208,-4.185 -43.829,-0.314C-45.448,3.556 -46.258,7.771 -46.258,12.33C-46.258,16.89 -45.448,21.12 -43.829,25.02C-42.208,28.919 -39.974,32.279 -37.124,35.1C-34.274,37.919 -30.899,40.139 -26.999,41.759C-24.886,42.636 -22.682,43.268 -20.394,43.67C-20.299,43.687 -20.204,43.701 -20.11,43.717C-19.612,43.8 -19.109,43.872 -18.603,43.933C-18.459,43.95 -18.316,43.968 -18.172,43.983C-17.698,44.034 -17.221,44.073 -16.74,44.104C-16.585,44.115 -16.431,44.128 -16.275,44.137C-15.655,44.168 -15.031,44.188 -14.399,44.188C-13.724,44.188 -13.056,44.168 -12.395,44.135C-12.276,44.128 -12.159,44.117 -12.041,44.109C-11.478,44.076 -10.92,44.031 -10.368,43.972C-10.291,43.964 -10.215,43.953 -10.138,43.945C-9.535,43.877 -8.937,43.794 -8.346,43.696C-8.32,43.692 -8.295,43.687 -8.269,43.683C-5.595,43.236 -3.046,42.496 -0.63,41.444C3.57,39.614 7.169,37.02 10.169,33.659L0,24.75Z" style="fill:rgb(3,4,5);fill-rule:nonzero;"/>
        </g>
    </g>
</svg>
