<?xml version="1.0" encoding="UTF-8" standalone="no"?>
<!DOCTYPE svg PUBLIC "-//W3C//DTD SVG 1.1//EN" "http://www.w3.org/Graphics/SVG/1.1/DTD/svg11.dtd">
<svg width="100%" height="100%" viewBox="0 0 1690 260" version="1.1" xmlns="http://www.w3.org/2000/svg" xmlns:xlink="http://www.w3.org/1999/xlink" xml:space="preserve" xmlns:serif="http://www.serif.com/" style="fill-rule:evenodd;clip-rule:evenodd;stroke-linejoin:round;stroke-miterlimit:2;">
    <g transform="matrix(1.40599,0,0,1.40599,0,-0.353211)">
        <path d="M90.27,164.97C50.89,164.97 18.85,132.46 18.85,92.5C18.85,52.54 50.89,20.02 90.27,20.02C129.65,20.02 161.69,52.53 161.69,92.5C161.69,132.47 129.65,164.97 90.27,164.97ZM90.27,28.27C55.44,28.27 27.1,57.08 27.1,92.5C27.1,127.92 55.44,156.73 90.27,156.73C125.1,156.73 153.44,127.92 153.44,92.5C153.44,57.08 125.1,28.27 90.27,28.27Z" style="fill:rgb(244,142,0);fill-rule:nonzero;"/>
    </g>
    <g transform="matrix(1.40599,0,0,1.40599,0,-0.353211)">
        <path d="M90.27,184.13C40.5,184.13 0,143.02 0,92.5C0,41.98 40.5,0.87 90.27,0.87C140.04,0.87 180.54,41.98 180.54,92.5C180.54,143.02 140.04,184.13 90.27,184.13ZM90.27,9.12C45.04,9.12 8.25,46.52 8.25,92.5C8.25,138.48 45.05,175.88 90.27,175.88C135.49,175.88 172.29,138.48 172.29,92.5C172.29,46.52 135.5,9.12 90.27,9.12Z" style="fill:rgb(244,142,0);fill-rule:nonzero;"/>
    </g>
    <g transform="matrix(1.40599,0,0,1.40599,0,-0.353211)">
        <path d="M78.46,104.41L78.46,133.06L61.12,133.06L61.12,47.61L94.3,47.61C114.41,47.61 124.46,56.99 124.46,75.76C124.46,86.9 120.27,95.11 111.89,100.39L124.08,133.06L105.1,133.06L95.17,104.41L78.46,104.41ZM103.72,85.81C105.73,83.3 106.74,79.99 106.74,75.88C106.74,71.77 105.67,68.51 103.54,66.08C101.4,63.65 98.32,62.44 94.3,62.44L78.47,62.44L78.47,89.58L94.56,89.58C98.66,89.58 101.72,88.32 103.73,85.81L103.72,85.81Z" style="fill:rgb(244,142,0);fill-rule:nonzero;"/>
    </g>
    <g transform="matrix(1.40599,0,0,1.40599,0,-0.353211)">
        <path d="M231.36,106.67L231.36,135.33L214.02,135.33L214.02,49.87L247.2,49.87C267.31,49.87 277.36,59.26 277.36,78.02C277.36,89.16 273.17,97.37 264.79,102.65L276.98,135.32L258,135.32L248.07,106.67L231.36,106.67ZM256.62,88.08C258.63,85.57 259.64,82.26 259.64,78.15C259.64,74.04 258.57,70.78 256.44,68.35C254.3,65.92 251.22,64.7 247.2,64.7L231.37,64.7L231.37,91.84L247.46,91.84C251.56,91.84 254.62,90.58 256.63,88.07L256.62,88.08Z" style="fill:rgb(244,142,0);fill-rule:nonzero;"/>
    </g>
    <g transform="matrix(1.40599,0,0,1.40599,0,-0.353211)">
        <path d="M307.58,119.43C309.55,121.15 312.38,122.01 316.06,122.01C323.85,122.01 330.8,121.76 336.92,121.26L340.44,120.88L340.69,133.32C331.06,135.66 322.34,136.84 314.55,136.84C305.08,136.84 298.21,134.33 293.94,129.3C289.67,124.27 287.53,116.1 287.53,104.8C287.53,82.26 296.79,71 315.3,71C333.81,71 342.7,80.47 342.7,99.4L341.44,111.09L304.49,111.09C304.57,114.95 305.6,117.73 307.57,119.45L307.58,119.43ZM326.12,98.26C326.12,93.23 325.32,89.74 323.73,87.77C322.14,85.8 319.35,84.82 315.37,84.82C311.39,84.82 308.58,85.85 306.95,87.9C305.32,89.95 304.46,93.41 304.37,98.27L326.11,98.27L326.12,98.26Z" style="fill:rgb(244,142,0);fill-rule:nonzero;"/>
    </g>
    <g transform="matrix(1.40599,0,0,1.40599,0,-0.353211)">
        <path d="M375.88,86.82L375.88,135.33L359.04,135.33L359.04,86.82L352.25,86.82L352.25,72.49L359.04,72.49L359.04,69.72C359.04,60.67 360.38,54.43 363.06,51C365.74,47.57 370.52,45.85 377.39,45.85C380.41,45.85 384.3,46.27 389.08,47.11L391.72,47.49L391.47,61.19C387.78,61.02 384.68,60.94 382.17,60.94C379.66,60.94 377.98,61.61 377.14,62.95C376.3,64.29 375.88,66.6 375.88,69.86L375.88,72.5L391.09,72.5L391.09,86.83L375.88,86.83L375.88,86.82Z" style="fill:rgb(244,142,0);fill-rule:nonzero;"/>
    </g>
    <g transform="matrix(1.40599,0,0,1.40599,0,-0.353211)">
        <path d="M405.03,79.6C409.47,73.86 416.88,70.99 427.27,70.99C437.66,70.99 445.07,73.86 449.51,79.6C453.95,85.34 456.17,93.4 456.17,103.79C456.17,125.82 446.54,136.84 427.27,136.84C408,136.84 398.37,125.82 398.37,103.79C398.37,93.4 400.59,85.34 405.03,79.6ZM418.04,117.99C419.76,121 422.83,122.51 427.28,122.51C431.73,122.51 434.8,121 436.52,117.99C438.24,114.97 439.1,110.24 439.1,103.79C439.1,97.34 438.24,92.65 436.52,89.72C434.8,86.79 431.72,85.32 427.28,85.32C422.84,85.32 419.76,86.79 418.04,89.72C416.32,92.65 415.46,97.34 415.46,103.79C415.46,110.24 416.32,114.97 418.04,117.99Z" style="fill:rgb(244,142,0);fill-rule:nonzero;"/>
    </g>
    <g transform="matrix(1.40599,0,0,1.40599,0,-0.353211)">
        <path d="M469.75,135.33L469.75,72.5L486.46,72.5L486.46,79.16C493.5,74.97 500.2,72.25 506.57,70.99L506.57,87.95C499.78,89.38 493.96,90.84 489.1,92.35L486.59,93.23L486.59,135.33L469.75,135.33Z" style="fill:rgb(244,142,0);fill-rule:nonzero;"/>
    </g>
    <g transform="matrix(1.40599,0,0,1.40599,0,-0.353211)">
        <path d="M534.59,135.33L517.75,135.33L517.75,72.5L534.46,72.5L534.46,76.02C540.24,72.67 545.18,70.99 549.29,70.99C556.08,70.99 561.31,72.96 565,76.9C572.71,72.96 579.74,70.99 586.11,70.99C594.4,70.99 600.16,73.4 603.39,78.22C606.61,83.04 608.23,90.72 608.23,101.28L608.23,135.34L591.39,135.34L591.39,101.79C591.39,96.43 590.8,92.47 589.63,89.91C588.46,87.36 586.11,86.08 582.59,86.08C579.91,86.08 576.64,86.67 572.79,87.84L570.9,88.47C571.23,94.75 571.4,99.53 571.4,102.8L571.4,135.35L554.56,135.35L554.56,103.05C554.56,96.85 554.01,92.47 552.93,89.92C551.84,87.37 549.45,86.09 545.77,86.09C542.5,86.09 539.28,86.68 536.09,87.85L534.58,88.35L534.58,135.35L534.59,135.33Z" style="fill:rgb(244,142,0);fill-rule:nonzero;"/>
    </g>
    <g transform="matrix(1.40599,0,0,1.40599,0,-0.353211)">
        <path d="M641.34,119.43C643.31,121.15 646.14,122.01 649.82,122.01C657.61,122.01 664.56,121.76 670.68,121.26L674.2,120.88L674.45,133.32C664.82,135.66 656.1,136.84 648.31,136.84C638.84,136.84 631.97,134.33 627.7,129.3C623.43,124.27 621.29,116.1 621.29,104.8C621.29,82.26 630.55,71 649.06,71C667.57,71 676.46,80.47 676.46,99.4L675.2,111.09L638.25,111.09C638.33,114.95 639.36,117.73 641.33,119.45L641.34,119.43ZM659.88,98.26C659.88,93.23 659.08,89.74 657.49,87.77C655.9,85.8 653.11,84.82 649.13,84.82C645.15,84.82 642.34,85.85 640.71,87.9C639.08,89.95 638.22,93.41 638.13,98.27L659.87,98.27L659.88,98.26Z" style="fill:rgb(244,142,0);fill-rule:nonzero;"/>
    </g>
    <g transform="matrix(1.40599,0,0,1.40599,0,-0.353211)">
        <path d="M689.79,135.33L689.79,72.5L706.5,72.5L706.5,79.16C713.54,74.97 720.24,72.25 726.61,70.99L726.61,87.95C719.82,89.38 714,90.84 709.14,92.35L706.63,93.23L706.63,135.33L689.79,135.33Z" style="fill:rgb(244,142,0);fill-rule:nonzero;"/>
    </g>
    <g transform="matrix(1.40599,0,0,1.40599,0,-0.353211)">
        <rect x="730.63" y="114.47" width="18.1" height="20.86" style="fill:rgb(244,142,0);fill-rule:nonzero;"/>
    </g>
    <g transform="matrix(1.40599,0,0,1.40599,0,-0.353211)">
        <path d="M775.49,135.33L766.06,135.33L766.06,72.5L775.36,72.5L775.36,76.9C782.15,73.13 788.64,71.24 794.84,71.24C803.22,71.24 808.85,73.5 811.74,78.03C814.63,82.56 816.08,90.6 816.08,102.16L816.08,135.34L806.78,135.34L806.78,102.41C806.78,93.7 805.92,87.73 804.2,84.5C802.48,81.28 798.82,79.66 793.2,79.66C790.52,79.66 787.69,80.06 784.72,80.85C781.75,81.65 779.46,82.42 777.87,83.18L775.48,84.31L775.48,135.33L775.49,135.33Z" style="fill:rgb(244,142,0);fill-rule:nonzero;"/>
    </g>
    <g transform="matrix(1.40599,0,0,1.40599,0,-0.353211)">
        <path d="M877.53,127.54L881.17,127.16L881.42,134.57C871.87,135.91 863.7,136.58 856.91,136.58C847.86,136.58 841.45,133.96 837.68,128.73C833.91,123.5 832.02,115.35 832.02,104.29C832.02,82.26 840.77,71.24 858.28,71.24C866.74,71.24 873.07,73.61 877.26,78.34C881.45,83.07 883.54,90.51 883.54,100.65L883.04,107.81L841.57,107.81C841.57,114.77 842.83,119.92 845.34,123.27C847.85,126.62 852.23,128.3 858.47,128.3C864.71,128.3 871.06,128.05 877.51,127.55L877.53,127.54ZM874.14,100.27C874.14,92.56 872.9,87.12 870.43,83.94C867.96,80.76 863.94,79.16 858.37,79.16C852.8,79.16 848.61,80.84 845.8,84.19C842.99,87.54 841.55,92.9 841.47,100.27L874.14,100.27Z" style="fill:rgb(244,142,0);fill-rule:nonzero;"/>
    </g>
    <g transform="matrix(1.40599,0,0,1.40599,0,-0.353211)">
        <path d="M931.69,80.66L911.71,80.66L911.71,110.69C911.71,117.9 912.23,122.63 913.28,124.89C914.33,127.15 916.82,128.28 920.76,128.28L931.94,127.53L932.57,135.32C926.96,136.24 922.68,136.7 919.75,136.7C913.22,136.7 908.69,135.11 906.18,131.93C903.67,128.75 902.41,122.67 902.41,113.71L902.41,80.66L893.49,80.66L893.49,72.49L902.41,72.49L902.41,53.26L911.71,53.26L911.71,72.49L931.69,72.49L931.69,80.66Z" style="fill:rgb(244,142,0);fill-rule:nonzero;"/>
    </g>
    <g transform="matrix(1.40599,0,0,1.40599,0,-0.353211)">
        <path d="M939.35,72.5L948.79,72.5L961.48,127.16L963.49,127.16L978.44,73.75L988.24,73.75L1003.19,127.16L1005.32,127.16L1017.89,72.5L1027.32,72.5L1012.37,135.33L996.66,135.33L983.34,86.19L970.02,135.33L954.31,135.33L939.35,72.5Z" style="fill:rgb(244,142,0);fill-rule:nonzero;"/>
    </g>
    <g transform="matrix(1.40599,0,0,1.40599,0,-0.353211)">
        <path d="M1038.13,103.79C1038.13,92.31 1040.18,84.02 1044.29,78.91C1048.39,73.8 1055.33,71.24 1065.09,71.24C1074.85,71.24 1081.76,73.8 1085.82,78.91C1089.88,84.02 1091.92,92.31 1091.92,103.79C1091.92,115.27 1089.99,123.6 1086.14,128.8C1082.28,134 1075.25,136.59 1065.03,136.59C1054.81,136.59 1047.77,133.99 1043.92,128.8C1040.06,123.6 1038.14,115.27 1038.14,103.79L1038.13,103.79ZM1047.81,103.6C1047.81,112.77 1048.92,119.2 1051.14,122.89C1053.36,126.58 1058.01,128.42 1065.09,128.42C1072.17,128.42 1076.8,126.6 1078.98,122.95C1081.16,119.31 1082.25,112.88 1082.25,103.66C1082.25,94.44 1081.04,88.1 1078.61,84.62C1076.18,81.15 1071.68,79.4 1065.1,79.4C1058.52,79.4 1054,81.14 1051.53,84.62C1049.06,88.1 1047.82,94.42 1047.82,103.6L1047.81,103.6Z" style="fill:rgb(244,142,0);fill-rule:nonzero;"/>
    </g>
    <g transform="matrix(1.40599,0,0,1.40599,0,-0.353211)">
        <path d="M1108.51,135.33L1108.51,72.5L1117.81,72.5L1117.81,81.04C1125.1,76.01 1132.76,72.71 1140.81,71.11L1140.81,80.66C1137.29,81.33 1133.63,82.38 1129.81,83.8C1126,85.23 1123.09,86.48 1121.08,87.57L1117.94,89.2L1117.94,135.32L1108.52,135.32L1108.51,135.33Z" style="fill:rgb(244,142,0);fill-rule:nonzero;"/>
    </g>
    <g transform="matrix(1.40599,0,0,1.40599,0,-0.353211)">
        <path d="M1162.67,135.33L1153.24,135.33L1153.24,45.1L1162.67,45.1L1162.67,98.38L1172.47,97.88L1190.44,72.5L1201.12,72.5L1180.64,101.4L1202,135.33L1191.32,135.33L1172.6,106.17L1162.67,106.55L1162.67,135.33Z" style="fill:rgb(244,142,0);fill-rule:nonzero;"/>
    </g>
</svg>
