<?xml version="1.0" encoding="UTF-8" standalone="no"?>
<!DOCTYPE svg PUBLIC "-//W3C//DTD SVG 1.1//EN" "http://www.w3.org/Graphics/SVG/1.1/DTD/svg11.dtd">
<svg width="100%" height="100%" viewBox="0 0 570 570" version="1.1" xmlns="http://www.w3.org/2000/svg" xmlns:xlink="http://www.w3.org/1999/xlink" xml:space="preserve" xmlns:serif="http://www.serif.com/" style="fill-rule:evenodd;clip-rule:evenodd;stroke-linejoin:round;stroke-miterlimit:2;">
    <g transform="matrix(0.721213,0,0,0.721213,-4.42297,185.184)">
        <path d="M145,7.6L100.1,162.6L100.1,265.5L54.9,265.5L54.9,162.5L10,7.6L55.6,7.6L77.5,104.9L99.4,7.6L145,7.6Z" style="fill:rgb(184,255,0);fill-rule:nonzero;"/>
        <path d="M291.5,199.8C291.5,238.3 273,269.2 231.2,269.2C189.3,269.2 170.9,238.3 170.9,199.8L170.9,7.6L216.1,7.6L216.1,199.9C216.1,210.5 217.2,227 231.2,227C245.2,227 246.3,210.4 246.3,199.9L246.3,7.6L291.5,7.6L291.5,199.8Z" style="fill:rgb(184,255,0);fill-rule:nonzero;"/>
        <path d="M455.5,265.4L447.6,265.4L379.4,141.7L379.4,265.4L334.2,265.4L334.2,7.6L342.1,7.6L410.3,129.4L410.3,7.6L455.5,7.6L455.5,265.4Z" style="fill:rgb(184,255,0);fill-rule:nonzero;"/>
        <path d="M543.3,201.8L498,201.8L498,7.6L543.2,7.6L543.2,201.8L543.3,201.8Z" style="fill:rgb(184,255,0);fill-rule:nonzero;"/>
        <path d="M680.9,45.6L648.8,45.6L648.8,265.4L603.6,265.4L603.6,45.6L571.6,45.6L571.6,7.6L680.9,7.6L680.9,45.6Z" style="fill:rgb(184,255,0);fill-rule:nonzero;"/>
        <path d="M792.6,265.4L709.3,265.4L709.3,7.6L792.6,7.6L792.6,45.7L754.5,45.7L754.5,114.7L792.6,114.7L792.6,150.5L754.5,150.5L754.5,225.5L792.6,225.5L792.6,265.4Z" style="fill:rgb(184,255,0);fill-rule:nonzero;"/>
        <g>
            <rect x="498.2" y="223.1" width="45.2" height="44.3" style="fill:rgb(123,150,145);fill-rule:nonzero;"/>
        </g>
    </g>
</svg>
