<?xml version="1.0" encoding="UTF-8" standalone="no"?>
<!DOCTYPE svg PUBLIC "-//W3C//DTD SVG 1.1//EN" "http://www.w3.org/Graphics/SVG/1.1/DTD/svg11.dtd">
<svg width="100%" height="100%" viewBox="0 0 600 570" version="1.1" xmlns="http://www.w3.org/2000/svg" xmlns:xlink="http://www.w3.org/1999/xlink" xml:space="preserve" xmlns:serif="http://www.serif.com/" style="fill-rule:evenodd;clip-rule:evenodd;stroke-linejoin:round;stroke-miterlimit:2;">
    <g transform="matrix(0.494478,0,0,0.494478,52.7584,-0.563705)">
        <path d="M481.6,452.72C373.24,452.72 285.08,363.25 285.08,253.28C285.08,143.31 373.24,53.84 481.6,53.84C589.96,53.84 678.12,143.31 678.12,253.28C678.12,363.25 589.96,452.72 481.6,452.72ZM481.6,76.54C385.75,76.54 307.77,155.83 307.77,253.28C307.77,350.73 385.74,430.02 481.6,430.02C577.46,430.02 655.43,350.74 655.43,253.28C655.43,155.82 577.46,76.54 481.6,76.54Z" style="fill:rgb(18,18,13);fill-rule:nonzero;"/>
        <path d="M481.6,505.43C344.63,505.43 233.19,392.32 233.19,253.28C233.19,114.24 344.63,1.14 481.6,1.14C618.57,1.14 730.01,114.25 730.01,253.29C730.01,392.33 618.57,505.44 481.6,505.44L481.6,505.43ZM481.6,23.83C357.14,23.83 255.89,126.76 255.89,253.28C255.89,379.8 357.15,482.73 481.6,482.73C606.05,482.73 707.31,379.8 707.31,253.28C707.31,126.76 606.06,23.83 481.6,23.83Z" style="fill:rgb(18,18,13);fill-rule:nonzero;"/>
        <path d="M449.11,286.07L449.11,364.91L401.39,364.91L401.39,129.76L492.68,129.76C548.01,129.76 575.67,155.58 575.67,207.22C575.67,237.88 564.14,260.47 541.09,275L574.63,364.91L522.41,364.91L495.09,286.07L449.1,286.07L449.11,286.07ZM518.62,234.89C524.15,227.97 526.92,218.87 526.92,207.57C526.92,196.27 523.98,187.28 518.1,180.6C512.22,173.92 503.75,170.57 492.68,170.57L449.11,170.57L449.11,245.26L493.37,245.26C504.66,245.26 513.08,241.8 518.61,234.89L518.62,234.89Z" style="fill:rgb(18,18,13);fill-rule:nonzero;"/>
        <path d="M34.34,685.13L34.34,741L0.52,741L0.52,574.38L65.21,574.38C104.42,574.38 124.02,592.68 124.02,629.27C124.02,651 115.85,667 99.52,677.29L123.29,741L86.29,741L66.93,685.13L34.34,685.13ZM83.59,648.87C87.51,643.97 89.47,637.52 89.47,629.51C89.47,621.5 87.39,615.14 83.22,610.4C79.05,605.66 73.05,603.29 65.21,603.29L34.34,603.29L34.34,656.22L65.7,656.22C73.7,656.22 79.67,653.77 83.59,648.87Z" style="fill:rgb(18,18,13);fill-rule:nonzero;"/>
        <path d="M182.95,710.01C186.79,713.36 192.3,715.03 199.49,715.03C214.68,715.03 228.24,714.54 240.17,713.56L247.03,712.83L247.52,737.09C228.73,741.66 211.74,743.95 196.55,743.95C178.09,743.95 164.69,739.05 156.36,729.25C148.03,719.45 143.86,703.52 143.86,681.47C143.86,637.53 161.91,615.56 198.01,615.56C234.11,615.56 251.43,634.02 251.43,670.94L248.98,693.73L176.94,693.73C177.1,701.25 179.1,706.68 182.94,710.03L182.95,710.01ZM219.09,668.72C219.09,658.92 217.54,652.1 214.43,648.26C211.33,644.42 205.89,642.5 198.14,642.5C190.39,642.5 184.91,644.5 181.72,648.5C178.53,652.51 176.86,659.24 176.7,668.72L219.09,668.72Z" style="fill:rgb(18,18,13);fill-rule:nonzero;"/>
        <path d="M316.12,646.42L316.12,741L283.29,741L283.29,646.42L270.06,646.42L270.06,618.49L283.29,618.49L283.29,613.1C283.29,595.46 285.9,583.29 291.13,576.59C296.35,569.89 305.67,566.54 319.06,566.54C324.94,566.54 332.54,567.36 341.85,568.99L347,569.72L346.51,596.43C339.32,596.1 333.28,595.94 328.38,595.94C323.48,595.94 320.21,597.25 318.58,599.86C316.95,602.47 316.13,606.97 316.13,613.34L316.13,618.49L345.78,618.49L345.78,646.42L316.12,646.42Z" style="fill:rgb(18,18,13);fill-rule:nonzero;"/>
        <path d="M372.97,632.33C381.63,621.14 396.08,615.55 416.34,615.55C436.6,615.55 451.05,621.15 459.71,632.33C468.37,643.52 472.7,659.25 472.7,679.5C472.7,722.46 453.91,743.94 416.34,743.94C378.77,743.94 359.98,722.46 359.98,679.5C359.98,659.25 364.3,643.52 372.97,632.33ZM398.33,707.19C401.67,713.07 407.68,716.01 416.34,716.01C425,716.01 431,713.07 434.35,707.19C437.69,701.31 439.37,692.08 439.37,679.5C439.37,666.92 437.69,657.78 434.35,652.06C431,646.34 425,643.48 416.34,643.48C407.68,643.48 401.68,646.34 398.33,652.06C394.98,657.78 393.31,666.93 393.31,679.5C393.31,692.07 394.98,701.31 398.33,707.19Z" style="fill:rgb(18,18,13);fill-rule:nonzero;"/>
        <path d="M499.16,741L499.16,618.48L531.75,618.48L531.75,631.47C545.47,623.3 558.54,617.99 570.96,615.55L570.96,648.63C557.73,651.41 546.37,654.26 536.9,657.21L532,658.92L532,741.01L499.17,741.01L499.16,741Z" style="fill:rgb(18,18,13);fill-rule:nonzero;"/>
        <path d="M625.6,741L592.77,741L592.77,618.48L625.36,618.48L625.36,625.34C636.63,618.81 646.27,615.54 654.27,615.54C667.5,615.54 677.71,619.38 684.9,627.05C699.93,619.37 713.65,615.54 726.06,615.54C742.23,615.54 753.46,620.24 759.75,629.63C766.04,639.03 769.19,654.01 769.19,674.59L769.19,740.99L736.36,740.99L736.36,675.57C736.36,665.12 735.21,657.4 732.93,652.41C730.64,647.43 726.07,644.94 719.21,644.94C713.98,644.94 707.61,646.08 700.1,648.37L696.42,649.59C697.07,661.84 697.4,671.15 697.4,677.52L697.4,740.98L664.57,740.98L664.57,678.01C664.57,665.92 663.51,657.39 661.38,652.41C659.26,647.43 654.6,644.94 647.41,644.94C641.04,644.94 634.75,646.08 628.54,648.37L625.6,649.35L625.6,741Z" style="fill:rgb(18,18,13);fill-rule:nonzero;"/>
        <path d="M833.75,710.01C837.59,713.36 843.1,715.03 850.29,715.03C865.48,715.03 879.04,714.54 890.97,713.56L897.83,712.83L898.32,737.09C879.53,741.66 862.54,743.95 847.35,743.95C828.89,743.95 815.49,739.05 807.16,729.25C798.83,719.45 794.66,703.52 794.66,681.47C794.66,637.53 812.71,615.56 848.81,615.56C884.91,615.56 902.23,634.02 902.23,670.94L899.78,693.73L827.74,693.73C827.9,701.25 829.9,706.68 833.74,710.03L833.75,710.01ZM869.89,668.72C869.89,658.92 868.34,652.1 865.23,648.26C862.13,644.42 856.69,642.5 848.94,642.5C841.19,642.5 835.71,644.5 832.52,648.5C829.33,652.51 827.66,659.24 827.5,668.72L869.89,668.72Z" style="fill:rgb(18,18,13);fill-rule:nonzero;"/>
        <path d="M928.21,741L928.21,618.48L960.8,618.48L960.8,631.47C974.52,623.3 987.59,617.99 1000.01,615.55L1000.01,648.63C986.78,651.41 975.42,654.26 965.95,657.21L961.05,658.92L961.05,741.01L928.22,741.01L928.21,741Z" style="fill:rgb(18,18,13);fill-rule:nonzero;"/>
        <rect x="32.62" y="927.48" width="20.09" height="27.93" style="fill:rgb(18,18,13);fill-rule:nonzero;"/>
        <path d="M107.6,955.41L89.22,955.41L89.22,832.89L107.35,832.89L107.35,841.47C120.58,834.12 133.24,830.44 145.33,830.44C161.66,830.44 172.65,834.85 178.29,843.67C183.93,852.49 186.74,868.17 186.74,890.71L186.74,955.4L168.61,955.4L168.61,891.2C168.61,874.21 166.93,862.57 163.59,856.28C160.24,849.99 153.09,846.84 142.15,846.84C136.92,846.84 131.41,847.62 125.61,849.17C119.81,850.73 115.36,852.23 112.26,853.71L107.6,855.91L107.6,955.41Z" style="fill:rgb(18,18,13);fill-rule:nonzero;"/>
        <path d="M306.56,940.21L313.67,939.48L314.16,953.94C295.54,956.55 279.61,957.86 266.38,957.86C248.74,957.86 236.24,952.76 228.89,942.54C221.54,932.33 217.86,916.44 217.86,894.88C217.86,851.92 234.93,830.44 269.07,830.44C285.57,830.44 297.9,835.06 306.07,844.29C314.24,853.52 318.32,868.02 318.32,887.78L317.34,901.75L236.48,901.75C236.48,915.31 238.93,925.36 243.83,931.89C248.73,938.43 257.27,941.69 269.44,941.69C281.61,941.69 293.98,941.2 306.56,940.22L306.56,940.21ZM299.94,887.04C299.94,872.02 297.53,861.4 292.71,855.19C287.89,848.98 280.05,845.88 269.19,845.88C258.33,845.88 250.16,849.15 244.69,855.68C239.21,862.22 236.4,872.67 236.24,887.04L299.95,887.04L299.94,887.04Z" style="fill:rgb(18,18,13);fill-rule:nonzero;"/>
        <path d="M412.17,848.82L373.21,848.82L373.21,907.38C373.21,921.43 374.23,930.66 376.27,935.07C378.31,939.48 383.17,941.68 390.85,941.68L412.66,940.21L413.88,955.4C402.93,957.2 394.6,958.1 388.89,958.1C376.15,958.1 367.33,955 362.43,948.79C357.53,942.58 355.08,930.74 355.08,913.26L355.08,848.82L337.68,848.82L337.68,832.89L355.08,832.89L355.08,795.4L373.21,795.4L373.21,832.89L412.17,832.89L412.17,848.82Z" style="fill:rgb(18,18,13);fill-rule:nonzero;"/>
        <path d="M427.11,832.89L445.49,832.89L470.24,939.48L474.16,939.48L503.32,835.34L522.43,835.34L551.59,939.48L555.76,939.48L580.26,832.89L598.64,832.89L569.48,955.41L538.85,955.41L512.88,859.6L486.91,955.41L456.28,955.41L427.12,832.89L427.11,832.89Z" style="fill:rgb(18,18,13);fill-rule:nonzero;"/>
        <path d="M619.71,893.9C619.71,871.52 623.71,855.35 631.72,845.38C639.72,835.42 653.24,830.43 672.27,830.43C691.3,830.43 704.78,835.42 712.7,845.38C720.62,855.35 724.58,871.52 724.58,893.9C724.58,916.28 720.82,932.53 713.31,942.66C705.79,952.79 692.07,957.85 672.14,957.85C652.21,957.85 638.49,952.79 630.97,942.66C623.46,932.53 619.7,916.28 619.7,893.9L619.71,893.9ZM638.58,893.54C638.58,911.43 640.74,923.97 645.07,931.15C649.39,938.34 658.46,941.93 672.27,941.93C686.08,941.93 695.1,938.38 699.34,931.27C703.59,924.16 705.71,911.63 705.71,893.66C705.71,875.69 703.34,863.32 698.6,856.54C693.86,849.76 685.08,846.37 672.26,846.37C659.44,846.37 650.61,849.76 645.8,856.54C640.98,863.32 638.57,875.65 638.57,893.54L638.58,893.54Z" style="fill:rgb(18,18,13);fill-rule:nonzero;"/>
        <path d="M756.93,955.41L756.93,832.89L775.06,832.89L775.06,849.55C789.27,839.75 804.22,833.3 819.9,830.19L819.9,848.81C813.04,850.12 805.89,852.16 798.46,854.94C791.03,857.72 785.35,860.17 781.43,862.29L775.3,865.48L775.3,955.41L756.92,955.41L756.93,955.41Z" style="fill:rgb(18,18,13);fill-rule:nonzero;"/>
        <path d="M862.53,955.41L844.15,955.41L844.15,779.48L862.53,779.48L862.53,883.37L881.64,882.39L916.68,832.89L937.51,832.89L897.57,889.25L939.23,955.41L918.4,955.41L881.89,898.56L862.53,899.3L862.53,955.41Z" style="fill:rgb(18,18,13);fill-rule:nonzero;"/>
        <path d="M0,1076.56L16.19,1076.56L28.14,1138.13L31.17,1138.13L45.54,1078.07L62.48,1078.07L76.85,1138.13L79.88,1138.13L91.68,1076.56L108.02,1076.56L91.98,1152.2L65.81,1152.2L54.01,1100.31L42.21,1152.2L16.04,1152.2L0,1076.56Z" style="fill:rgb(18,18,13);fill-rule:nonzero;"/>
        <path d="M117.7,1076.56L133.89,1076.56L145.84,1138.13L148.87,1138.13L163.24,1078.07L180.18,1078.07L194.55,1138.13L197.58,1138.13L209.38,1076.56L225.72,1076.56L209.68,1152.2L183.51,1152.2L171.71,1100.31L159.91,1152.2L133.74,1152.2L117.7,1076.56Z" style="fill:rgb(18,18,13);fill-rule:nonzero;"/>
        <path d="M235.4,1076.56L251.59,1076.56L263.54,1138.13L266.57,1138.13L280.94,1078.07L297.88,1078.07L312.25,1138.13L315.28,1138.13L327.08,1076.56L343.42,1076.56L327.38,1152.2L301.21,1152.2L289.41,1100.31L277.61,1152.2L251.44,1152.2L235.4,1076.56Z" style="fill:rgb(18,18,13);fill-rule:nonzero;"/>
        <rect x="354.92" y="1130.41" width="17.7" height="21.79" style="fill:rgb(18,18,13);fill-rule:nonzero;"/>
        <path d="M393.34,1152.21L393.34,1076.56L409.68,1076.56L409.68,1085.64C418.25,1080.09 426.82,1076.51 435.4,1074.9L435.4,1091.39C426.72,1093.11 419.31,1095.33 413.16,1098.05L409.83,1099.41L409.83,1152.21L393.34,1152.21Z" style="fill:rgb(18,18,13);fill-rule:nonzero;"/>
        <path d="M502.72,1138.58L506.96,1138.13L507.26,1150.38C495.76,1152.7 485.57,1153.86 476.7,1153.86C465.51,1153.86 457.46,1150.78 452.57,1144.63C447.68,1138.48 445.23,1128.64 445.23,1115.13C445.23,1088.3 456.17,1074.89 478.06,1074.89C499.95,1074.89 509.83,1086.44 509.83,1109.53L508.77,1121.33L461.87,1121.33C461.97,1127.58 463.33,1132.17 465.96,1135.1C468.58,1138.03 473.47,1139.49 480.63,1139.49C487.79,1139.49 495.15,1139.19 502.72,1138.58ZM493.64,1108.63C493.64,1101.17 492.45,1095.95 490.09,1092.97C487.72,1090 483.71,1088.51 478.06,1088.51C472.41,1088.51 468.3,1090.07 465.73,1093.2C463.16,1096.33 461.82,1101.47 461.72,1108.63L493.64,1108.63Z" style="fill:rgb(18,18,13);fill-rule:nonzero;"/>
        <rect x="526.47" y="1103.93" width="45.23" height="14.98" style="fill:rgb(18,18,13);fill-rule:nonzero;"/>
        <path d="M608.92,1152.2L592.43,1152.2L592.43,1076.56L608.77,1076.56L608.77,1081.25C616.13,1077.01 623.09,1074.9 629.65,1074.9C639.73,1074.9 646.62,1077.75 650.3,1083.45C653.98,1089.15 655.82,1098.56 655.82,1111.66L655.82,1152.21L639.48,1152.21L639.48,1112.12C639.48,1103.95 638.6,1098.15 636.83,1094.72C635.07,1091.29 631.46,1089.58 626.01,1089.58C620.87,1089.58 615.92,1090.59 611.18,1092.61L608.91,1093.52L608.91,1152.22L608.92,1152.2Z" style="fill:rgb(18,18,13);fill-rule:nonzero;"/>
        <path d="M730.41,1138.58L734.65,1138.13L734.95,1150.38C723.45,1152.7 713.26,1153.86 704.39,1153.86C693.2,1153.86 685.15,1150.78 680.26,1144.63C675.37,1138.48 672.92,1128.64 672.92,1115.13C672.92,1088.3 683.86,1074.89 705.75,1074.89C727.64,1074.89 737.52,1086.44 737.52,1109.53L736.46,1121.33L689.56,1121.33C689.66,1127.58 691.02,1132.17 693.65,1135.1C696.27,1138.03 701.16,1139.49 708.32,1139.49C715.48,1139.49 722.84,1139.19 730.41,1138.58ZM721.33,1108.63C721.33,1101.17 720.14,1095.95 717.78,1092.97C715.41,1090 711.4,1088.51 705.75,1088.51C700.1,1088.51 695.99,1090.07 693.42,1093.2C690.85,1096.33 689.51,1101.47 689.41,1108.63L721.33,1108.63Z" style="fill:rgb(18,18,13);fill-rule:nonzero;"/>
        <path d="M795.62,1090.62L774.73,1090.62L774.73,1123.9C774.73,1130.05 775.18,1134.14 776.09,1136.15C777,1138.17 779.32,1139.18 783.05,1139.18L795.46,1138.73L796.22,1151.89C789.46,1153.2 784.32,1153.86 780.79,1153.86C772.22,1153.86 766.34,1151.89 763.17,1147.96C759.99,1144.03 758.4,1136.62 758.4,1125.72L758.4,1090.62L748.72,1090.62L748.72,1076.55L758.4,1076.55L758.4,1054.61L774.74,1054.61L774.74,1076.55L795.62,1076.55L795.62,1090.62Z" style="fill:rgb(18,18,13);fill-rule:nonzero;"/>
        <rect x="809.83" y="1130.41" width="17.7" height="21.79" style="fill:rgb(18,18,13);fill-rule:nonzero;"/>
        <path d="M909.98,1045.09L909.98,1152.2L893.64,1152.2L893.64,1148.27C886.28,1152 879.52,1153.87 873.37,1153.87C863.48,1153.87 856.25,1150.9 851.66,1144.95C847.07,1139 844.78,1129.01 844.78,1115C844.78,1100.99 847.33,1090.79 852.42,1084.44C857.51,1078.08 865.45,1074.91 876.25,1074.91C879.88,1074.91 885.63,1075.57 893.5,1076.88L893.5,1045.11L909.99,1045.11L909.98,1045.09ZM890.92,1136.46L893.49,1135.4L893.49,1090.62C887.44,1089.61 881.84,1089.11 876.7,1089.11C866.51,1089.11 861.42,1097.58 861.42,1114.53C861.42,1123.81 862.6,1130.24 864.98,1133.82C867.35,1137.4 871.11,1139.19 876.25,1139.19C881.39,1139.19 886.28,1138.28 890.92,1136.47L890.92,1136.46Z" style="fill:rgb(18,18,13);fill-rule:nonzero;"/>
        <path d="M985.32,1138.58L989.56,1138.13L989.86,1150.38C978.36,1152.7 968.17,1153.86 959.3,1153.86C948.11,1153.86 940.06,1150.78 935.17,1144.63C930.28,1138.48 927.83,1128.64 927.83,1115.13C927.83,1088.3 938.77,1074.89 960.66,1074.89C982.55,1074.89 992.43,1086.44 992.43,1109.53L991.37,1121.33L944.47,1121.33C944.57,1127.58 945.93,1132.17 948.56,1135.1C951.18,1138.03 956.07,1139.49 963.23,1139.49C970.39,1139.49 977.75,1139.19 985.32,1138.58ZM976.24,1108.63C976.24,1101.17 975.05,1095.95 972.69,1092.97C970.32,1090 966.31,1088.51 960.66,1088.51C955.01,1088.51 950.9,1090.07 948.33,1093.2C945.76,1096.33 944.42,1101.47 944.32,1108.63L976.24,1108.63Z" style="fill:rgb(18,18,13);fill-rule:nonzero;"/>
    </g>
</svg>
