<svg id="Layer_1" data-name="Layer 1" xmlns="http://www.w3.org/2000/svg" viewBox="0 0 63.35 53.17"><defs><style>.cls-1{fill:#3e74b7;}.cls-2{fill:#dd3b21;}.cls-3{fill:#eac8a6;}</style></defs><path class="cls-1" d="M.5,53.06a.51.51,0,0,1-.35-.13A.36.36,0,0,1,0,52.65V46a.34.34,0,0,1,.15-.29.6.6,0,0,1,.35-.1.58.58,0,0,1,.35.1A.36.36,0,0,1,1,46v.71a2.43,2.43,0,0,1,.78-.83,2.33,2.33,0,0,1,1.32-.36,2.55,2.55,0,0,1,1.39.4,2.94,2.94,0,0,1,1,1.06,3,3,0,0,1,.37,1.48v4.16a.35.35,0,0,1-.15.31.75.75,0,0,1-.36.1A.7.7,0,0,1,5,53a.34.34,0,0,1-.16-.31V48.49a1.9,1.9,0,0,0-.27-1,2.18,2.18,0,0,0-.71-.74,1.65,1.65,0,0,0-1-.29,1.84,1.84,0,0,0-.9.24,2,2,0,0,0-.71.68A2.06,2.06,0,0,0,1,48.49v4.16a.36.36,0,0,1-.15.28A.52.52,0,0,1,.5,53.06Z"/><path class="cls-1" d="M10.68,53.17a2.87,2.87,0,0,1-1.51-.41,3.08,3.08,0,0,1-1.09-1.09,2.91,2.91,0,0,1-.4-1.45V46.05a.36.36,0,0,1,.16-.28.52.52,0,0,1,.36-.13.49.49,0,0,1,.35.13.35.35,0,0,1,.15.28v4.17a1.87,1.87,0,0,0,.27,1,2.31,2.31,0,0,0,.71.75,1.85,1.85,0,0,0,2,0,2,2,0,0,0,.69-.74,1.92,1.92,0,0,0,.26-1V46a.36.36,0,0,1,.16-.27.56.56,0,0,1,.36-.12.53.53,0,0,1,.37.12.35.35,0,0,1,.13.27v4.19a2.79,2.79,0,0,1-.4,1.46,2.94,2.94,0,0,1-1.08,1.08A2.84,2.84,0,0,1,10.68,53.17Z"/><path class="cls-1" d="M18,53.06a2.83,2.83,0,0,1-1.86-.55,2.22,2.22,0,0,1-.64-1.76V42.5a.34.34,0,0,1,.17-.29.7.7,0,0,1,.33-.1.69.69,0,0,1,.36.1.33.33,0,0,1,.16.29v3.14h2a.29.29,0,0,1,.25.13.48.48,0,0,1,.1.29.49.49,0,0,1-.1.3.31.31,0,0,1-.25.13h-2v4.26a1.45,1.45,0,0,0,.33,1.08,1.71,1.71,0,0,0,1.15.3h.43a.43.43,0,0,1,.34.14.44.44,0,0,1,.12.32.52.52,0,0,1-.12.33.43.43,0,0,1-.34.14Z"/><path class="cls-1" d="M20.65,53.06a.51.51,0,0,1-.35-.13.36.36,0,0,1-.15-.28V46a.34.34,0,0,1,.15-.29.6.6,0,0,1,.35-.1.58.58,0,0,1,.35.1.36.36,0,0,1,.14.29v.77a2.22,2.22,0,0,1,.47-.61,2.43,2.43,0,0,1,.7-.46,2.3,2.3,0,0,1,.93-.18h.55a.35.35,0,0,1,.29.14.55.55,0,0,1,0,.66.38.38,0,0,1-.29.14h-.55a1.92,1.92,0,0,0-1,.28,2.21,2.21,0,0,0-.77.78,2.39,2.39,0,0,0-.3,1.23v3.87a.36.36,0,0,1-.15.28A.52.52,0,0,1,20.65,53.06Z"/><path class="cls-1" d="M25.84,43.44a.69.69,0,0,1-.49-.19.62.62,0,0,1-.21-.46.6.6,0,0,1,.21-.46.73.73,0,0,1,1,0,.63.63,0,0,1,.2.46.65.65,0,0,1-.2.46A.69.69,0,0,1,25.84,43.44Zm0,9.62a.52.52,0,0,1-.36-.13.36.36,0,0,1-.15-.28V46a.34.34,0,0,1,.15-.29.61.61,0,0,1,.36-.1.59.59,0,0,1,.36.1.34.34,0,0,1,.15.29v6.62a.36.36,0,0,1-.15.28A.5.5,0,0,1,25.83,53.06Z"/><path class="cls-1" d="M28.79,53.06a.49.49,0,0,1-.35-.13.36.36,0,0,1-.15-.28V46a.34.34,0,0,1,.15-.29.58.58,0,0,1,.35-.1.53.53,0,0,1,.34.1.34.34,0,0,1,.15.29v.71a2.57,2.57,0,0,1,.79-.83,2.44,2.44,0,0,1,2.66.07,2.76,2.76,0,0,1,.86,1.13,2.79,2.79,0,0,1,1.06-1.18,2.53,2.53,0,0,1,2.6,0,2.62,2.62,0,0,1,1,1,3.16,3.16,0,0,1,.38,1.6v4.16a.36.36,0,0,1-.15.28.52.52,0,0,1-.37.13.49.49,0,0,1-.35-.13.36.36,0,0,1-.15-.28V48.49a2.07,2.07,0,0,0-.27-1.11,2,2,0,0,0-.68-.67,1.76,1.76,0,0,0-.84-.22,1.83,1.83,0,0,0-.87.23,1.92,1.92,0,0,0-1,1.7v4.25a.31.31,0,0,1-.16.29.64.64,0,0,1-.35.1.61.61,0,0,1-.34-.1.31.31,0,0,1-.16-.29V48.43a1.93,1.93,0,0,0-.26-1,1.8,1.8,0,0,0-.65-.69,1.58,1.58,0,0,0-.88-.25,1.83,1.83,0,0,0-.88.23,2,2,0,0,0-.7.68,2.1,2.1,0,0,0-.27,1.09v4.16a.36.36,0,0,1-.15.28A.52.52,0,0,1,28.79,53.06Z"/><path class="cls-1" d="M41,43.44a.69.69,0,0,1-.49-.19.62.62,0,0,1-.21-.46.6.6,0,0,1,.21-.46.73.73,0,0,1,1,0,.63.63,0,0,1,.2.46.65.65,0,0,1-.2.46A.69.69,0,0,1,41,43.44Zm0,9.62a.52.52,0,0,1-.36-.13.36.36,0,0,1-.15-.28V46a.34.34,0,0,1,.15-.29.7.7,0,0,1,.72,0,.34.34,0,0,1,.15.29v6.62a.36.36,0,0,1-.15.28A.52.52,0,0,1,41,53.06Z"/><path class="cls-1" d="M44,53.06a.49.49,0,0,1-.35-.13.36.36,0,0,1-.15-.28V46a.34.34,0,0,1,.15-.29.58.58,0,0,1,.35-.1.53.53,0,0,1,.34.1.34.34,0,0,1,.15.29v.71a2.34,2.34,0,0,1,.78-.83,2.3,2.3,0,0,1,1.32-.36,2.5,2.5,0,0,1,1.38.4A2.88,2.88,0,0,1,49,47a3,3,0,0,1,.37,1.48v4.16a.35.35,0,0,1-.15.31.76.76,0,0,1-.37.1.7.7,0,0,1-.33-.1.34.34,0,0,1-.17-.31V48.49a2,2,0,0,0-.26-1,2.28,2.28,0,0,0-.71-.74,1.68,1.68,0,0,0-1-.29,1.81,1.81,0,0,0-.9.24,1.93,1.93,0,0,0-.71.68,2.06,2.06,0,0,0-.27,1.08v4.16a.36.36,0,0,1-.15.28A.52.52,0,0,1,44,53.06Z"/><path class="cls-1" d="M53.71,53.17a2.48,2.48,0,0,1-1.37-.42,3,3,0,0,1-1-1.1,2.93,2.93,0,0,1-.39-1.46v-1.7A3,3,0,0,1,52.34,46a2.6,2.6,0,0,1,1.41-.4,2.24,2.24,0,0,1,1.3.36,2.4,2.4,0,0,1,.77.83V41.48a.35.35,0,0,1,.16-.29.75.75,0,0,1,.36-.1.65.65,0,0,1,.37.1.35.35,0,0,1,.13.29V52.65a.37.37,0,0,1-.13.28.49.49,0,0,1-.37.13.5.5,0,0,1-.34-.13.38.38,0,0,1-.14-.28V52a2.17,2.17,0,0,1-.83.85A2.47,2.47,0,0,1,53.71,53.17Zm.19-.94a1.77,1.77,0,0,0,1-.29,2.53,2.53,0,0,0,.68-.66,1.17,1.17,0,0,0,.25-.61V48.49a2,2,0,0,0-.28-1.08,2,2,0,0,0-.72-.68,1.88,1.88,0,0,0-.91-.24,1.68,1.68,0,0,0-1,.29,2.28,2.28,0,0,0-.71.74,2,2,0,0,0-.26,1v1.7a2.09,2.09,0,0,0,.26,1,2.35,2.35,0,0,0,.71.76A1.72,1.72,0,0,0,53.9,52.23Z"/><path class="cls-1" d="M60.83,53.17a4.24,4.24,0,0,1-1.3-.19,2.74,2.74,0,0,1-.86-.45.72.72,0,0,1-.31-.49.46.46,0,0,1,0-.21.59.59,0,0,1,.13-.18.25.25,0,0,1,.19-.08.62.62,0,0,1,.38.18,3,3,0,0,0,.6.37,2.62,2.62,0,0,0,1.09.18A1.85,1.85,0,0,0,62.05,52a1.06,1.06,0,0,0,.36-.78,1.17,1.17,0,0,0-.27-.81,1.83,1.83,0,0,0-.73-.44c-.29-.11-.61-.21-.94-.3a7,7,0,0,1-.94-.35,1.59,1.59,0,0,1-1-1.61,2.08,2.08,0,0,1,.25-1,2,2,0,0,1,.79-.81A2.73,2.73,0,0,1,61,45.55a4.23,4.23,0,0,1,1,.11,2.67,2.67,0,0,1,.79.29c.2.12.31.24.31.38a.58.58,0,0,1-.06.2.86.86,0,0,1-.15.22.27.27,0,0,1-.22.1.84.84,0,0,1-.33-.11,3.3,3.3,0,0,0-.55-.22,2.3,2.3,0,0,0-.78-.11,1.83,1.83,0,0,0-.91.2,1.31,1.31,0,0,0-.5.49,1.08,1.08,0,0,0-.16.55.85.85,0,0,0,.28.67,2.29,2.29,0,0,0,.73.39c.3.1.62.19.94.28a4.57,4.57,0,0,1,1,.37,2,2,0,0,1,.72.65,2.1,2.1,0,0,1,.27,1.13,1.83,1.83,0,0,1-.66,1.48A2.86,2.86,0,0,1,60.83,53.17Z"/><path class="cls-2" d="M61.65,5.7A11.5,11.5,0,0,0,57.3,1.45a10.79,10.79,0,0,0-10.89.05A12.32,12.32,0,0,0,42,5.75a11.89,11.89,0,0,0-1.75,6.55V39.39s0,.1,0,.15h23.1V12.79A13.39,13.39,0,0,0,61.65,5.7Z"/><path class="cls-2" d="M33.65,39.29V12.79A13.48,13.48,0,0,0,32,5.7,11.5,11.5,0,0,0,27.6,1.45,11,11,0,0,0,22.31,0,11.4,11.4,0,0,0,17,1.36l.42.24A12.3,12.3,0,0,1,21.6,6a12.72,12.72,0,0,1,1.6,6.4V39.54H33.67A2,2,0,0,1,33.65,39.29Z"/><path class="cls-1" d="M10.56,12.79a13,13,0,0,1,1.75-6.94A12.11,12.11,0,0,1,16.76,1.5L17,1.36A10.43,10.43,0,0,0,11.8,0,11.39,11.39,0,0,0,6.2,1.5,12.11,12.11,0,0,0,1.75,5.85,13,13,0,0,0,0,12.79V39.54H10.55a2,2,0,0,0,0-.25Z"/><path class="cls-3" d="M23.2,12.4A12.72,12.72,0,0,0,21.6,6a12.3,12.3,0,0,0-4.15-4.4L17,1.36l-.27.14a12.11,12.11,0,0,0-4.45,4.35,13,13,0,0,0-1.75,6.94v26.5a2,2,0,0,1,0,.25H23.2V12.4Z"/></svg>
