<?xml version="1.0" encoding="UTF-8" standalone="no"?>
<svg
   xmlns:dc="http://purl.org/dc/elements/1.1/"
   xmlns:cc="http://creativecommons.org/ns#"
   xmlns:rdf="http://www.w3.org/1999/02/22-rdf-syntax-ns#"
   xmlns:svg="http://www.w3.org/2000/svg"
   xmlns="http://www.w3.org/2000/svg"
   xmlns:sodipodi="http://sodipodi.sourceforge.net/DTD/sodipodi-0.dtd"
   xmlns:inkscape="http://www.inkscape.org/namespaces/inkscape"
   version="1.1"
   x="0px"
   y="0px"
   viewBox="0 0 270 90"
   enable-background="new 0 0 90 90"
   xml:space="preserve"
   id="svg4"
   sodipodi:docname="Logo-Horizontal.svg"
   width="270"
   height="90"
   inkscape:version="0.92.4 5da689c313, 2019-01-14"><metadata
     id="metadata10"><rdf:RDF><cc:Work
         rdf:about=""><dc:format>image/svg+xml</dc:format><dc:type
           rdf:resource="http://purl.org/dc/dcmitype/StillImage" /><dc:title></dc:title></cc:Work></rdf:RDF></metadata><defs
     id="defs8" /><sodipodi:namedview
     pagecolor="#ffffff"
     bordercolor="#666666"
     borderopacity="1"
     objecttolerance="10"
     gridtolerance="10"
     guidetolerance="10"
     inkscape:pageopacity="0"
     inkscape:pageshadow="2"
     inkscape:window-width="1916"
     inkscape:window-height="1041"
     id="namedview6"
     showgrid="false"
     inkscape:zoom="2.6222222"
     inkscape:cx="25.550847"
     inkscape:cy="45"
     inkscape:window-x="0"
     inkscape:window-y="18"
     inkscape:window-maximized="0"
     inkscape:current-layer="svg4" /><path
     d="m 168.7,30.9 h 4.8 v 0.8 h -4.8 z m 0,2.8 h 4.8 v -0.8 h -4.8 z m 0,1.9 h 4.8 v -0.8 h -4.8 z m 7.7,-6.3 V 56 c 0,1 -0.8,1.9 -1.9,1.9 h -6.9 c -0.2,0 -0.4,0 -0.6,-0.1 v 17.2 0 3.3 h -8.8 -4.2 -4.1 -3.5 -4.2 v -3.7 c 0.1,-3.3 2.8,-5.9 6,-5.9 0,0 0,0 0.1,0 V 52 l -6.8,2.8 -0.4,-1 c -0.4,0.1 -0.7,0.1 -1.1,0.1 -2.3,0 -4.3,-1.3 -5.1,-3.4 l -0.2,-0.6 4.2,-1.7 -0.5,-1.1 9.9,-4.1 v -1.2 c 0,-1.9 0.5,-3.7 1.5,-5.2 -0.2,-0.1 -0.3,-0.2 -0.5,-0.3 v 0 l -0.2,-0.1 c 0,0 -0.1,-0.1 -0.1,-0.1 -0.1,-0.1 -0.2,-0.1 -0.3,-0.2 -0.4,-0.3 -0.9,-0.6 -1.2,-1 0,0 -0.1,-0.1 -0.1,-0.1 -1.4,-1.3 -2.6,-2.8 -3.3,-4.6 0,0 0,-0.1 0,-0.1 -0.1,-0.2 -0.1,-0.3 -0.2,-0.5 0,-0.1 -0.1,-0.1 -0.1,-0.2 -0.1,-0.1 -0.1,-0.3 -0.2,-0.5 0,-0.1 -0.1,-0.2 -0.1,-0.3 -0.1,-0.2 -0.1,-0.4 -0.2,-0.6 0,-0.2 -0.1,-0.3 -0.1,-0.5 0,-0.1 0,-0.2 -0.1,-0.3 0,-0.2 -0.1,-0.3 -0.1,-0.5 0,-0.1 0,-0.2 0,-0.3 0,-0.2 0,-0.3 -0.1,-0.5 0,-0.1 0,-0.2 0,-0.2 0,-0.3 0,-0.5 0,-0.8 0,-0.2 0,-0.4 0,-0.6 0,-0.1 0,-0.2 0,-0.3 0,-0.1 0,-0.2 0,-0.3 0,-0.1 0,-0.2 0,-0.3 0,-0.1 0,-0.2 0,-0.2 0,-0.1 0,-0.3 0.1,-0.4 0,0 0,-0.1 0,-0.1 0.2,-0.9 0.4,-1.8 0.8,-2.6 0,0 0,0 0,-0.1 0.1,-0.1 0.1,-0.3 0.2,-0.4 0,-0.1 0.1,-0.1 0.1,-0.2 0.1,-0.1 0.1,-0.2 0.2,-0.3 0,-0.1 0.1,-0.2 0.1,-0.3 0,-0.1 0.1,-0.2 0.1,-0.2 0.1,-0.1 0.2,-0.3 0.3,-0.4 0,0 0,0 0,-0.1 0.3,-0.5 0.7,-1 1.1,-1.5 l 0.2,-0.2 v 0 c 2.5,-2.9 6.2,-4.7 10.4,-4.7 7.5,0 13.6,6 13.6,13.3 0,0.8 -0.1,1.6 -0.2,2.3 h 4.9 c 0.8,0.1 1.6,0.9 1.6,2 z m -18.5,-4.6 c 0,-2.5 -0.7,-3.8 -1.2,-4.4 0,0 -0.1,-0.1 -0.1,-0.2 L 156.5,20 c -0.6,-0.6 -3,-2.4 -9,-2.4 0,0 -0.4,0 -1,0 -0.2,0.2 -0.3,0.4 -0.5,0.6 0,0 0,0 0,0.1 -0.1,0.1 -0.2,0.3 -0.3,0.4 0,0 0,0.1 -0.1,0.1 -0.1,0.1 -0.1,0.2 -0.2,0.3 0,0.1 -0.1,0.1 -0.1,0.2 0,0.1 -0.1,0.1 -0.1,0.2 -0.1,0.2 -0.2,0.5 -0.3,0.7 0,0 0,0 0,0 -0.1,0.1 -0.1,0.3 -0.2,0.4 0,0 0,0 0,0 -0.1,0.1 -0.1,0.3 -0.2,0.4 0,0 0,0 0,0 -0.2,0.6 -0.4,1.2 -0.5,1.9 0,0 0,0 0,0.1 0,0.1 0,0.2 -0.1,0.4 0,0.1 0,0.1 0,0.2 0,0.1 0,0.2 0,0.3 0,0.1 0,0.2 0,0.3 0,0.1 0,0.2 0,0.2 0,0.2 0,0.4 0,0.6 0,0.2 0,0.5 0,0.7 0,0.1 0,0.1 0,0.2 0,0.2 0,0.3 0,0.5 0,0.1 0,0.2 0,0.3 0,0.1 0,0.3 0.1,0.4 0,0.1 0,0.2 0,0.3 0,0.1 0.1,0.3 0.1,0.4 0,0.1 0,0.2 0.1,0.3 0,0.2 0.1,0.3 0.1,0.5 0.1,0.2 0.1,0.3 0.2,0.5 0,0.1 0,0.1 0.1,0.2 0.1,0.1 0.1,0.3 0.2,0.4 0,0 0,0.1 0.1,0.1 0.1,0.2 0.1,0.3 0.2,0.5 0,0 0,0 0,0 0.7,1.4 1.6,2.6 2.8,3.6 0,0 0.1,0 0.1,0.1 0.1,0.1 0.2,0.2 0.3,0.3 0.1,0.1 0.1,0.1 0.2,0.2 0.1,0.1 0.2,0.2 0.3,0.2 0.1,0.1 0.2,0.2 0.3,0.2 0.1,0 0.1,0.1 0.2,0.1 4.9,-0.9 8.6,-5.3 8.6,-10.3 z m -8.6,17.8 5.5,-2.2 c 0.5,-0.2 1,-0.3 1.6,-0.3 1.7,0 3.2,1 3.9,2.6 0.4,1 0.4,2.2 0,3.2 -0.4,1 -1.2,1.8 -2.3,2.2 l -8.6,3.5 v 17.3 c 0.3,0.1 0.6,0.1 0.8,0.3 0.7,-0.3 1.4,-0.4 2.1,-0.4 0,0 0.1,0 0.1,0 v -10 h 0.7 0.7 v 10.2 c 2.4,0.6 4.2,2.7 4.4,5.3 h 7.6 V 56.1 c 0,-0.1 0,-0.1 0,-0.1 V 41.5 c -0.1,-2 -0.8,-3.8 -2,-5.4 -2.1,1.4 -4.7,2.2 -7.4,2.2 -2,0 -3.9,-0.4 -5.6,-1.2 -0.9,1.4 -1.4,3 -1.4,4.7 v 0.7 z M 165.7,37 v -2.4 c -0.3,0.3 -0.7,0.6 -1,0.9 0.4,0.5 0.7,1 1,1.5 z m -12,33.2 c -0.2,-0.1 -0.4,-0.1 -0.7,-0.2 -0.2,0 -0.4,-0.1 -0.7,-0.1 0,0 -0.1,0 -0.1,0 -0.2,0 -0.4,0 -0.6,0 -0.5,0.1 -1,0.2 -1.5,0.5 -1.4,0.7 -2.4,2.1 -2.6,3.8 h 2.3 2.5 0.3 0.4 0.7 0.2 3 c -0.2,-1.9 -1.5,-3.4 -3.2,-4 z m -13.3,-17.6 -1.3,-3.2 -3,1.2 c 0.8,1.3 2.1,2.1 3.7,2.1 0.2,0 0.4,-0.1 0.6,-0.1 z m 17.1,-5.7 c 0.7,-0.3 1.3,-0.9 1.6,-1.6 0.3,-0.7 0.3,-1.5 0,-2.2 -0.5,-1.1 -1.5,-1.8 -2.7,-1.8 -0.4,0 -0.8,0.1 -1.1,0.2 l -15.3,6.2 2.2,5.4 z m -11.4,28.6 h -2.6 V 77 h 2.6 z m 0.2,-1.3 c 0.2,-1.7 1,-3.2 2.3,-4.3 -0.2,0 -0.4,0 -0.6,0 -2.4,0 -4.4,1.9 -4.7,4.3 z m 19.5,1.3 h -7.6 v 0 H 154 v 0 h -4.1 -2.3 V 77 h 2.3 4.1 4.2 7.6 z m 2.8,-50.4 c 0,-6.6 -5.5,-12 -12.4,-12 -3.3,0 -6.4,1.3 -8.6,3.4 6.2,0 8.8,2 9.7,2.8 l 0.1,0.1 c 0.1,0.1 0.2,0.2 0.2,0.3 0.7,0.8 1.5,2.4 1.5,5.1 0,5.3 -3.3,9.7 -8.2,11.2 1.6,0.7 3.4,1.2 5.3,1.2 6.9,-0.1 12.4,-5.5 12.4,-12.1 z m 6.5,4.2 c 0,-0.3 -0.3,-0.6 -0.6,-0.6 h -5.2 c -0.5,1.7 -1.3,3.2 -2.4,4.5 V 56 c 0,0.3 0.3,0.6 0.6,0.6 h 6.9 c 0.3,0 0.6,-0.3 0.6,-0.6 V 29.3 Z m -73.8,2.5 H 96.5 V 31 h 4.8 z m 0,1.1 h -4.8 v 0.8 h 4.8 z m 0,1.9 h -4.8 v 0.8 h 4.8 z m -5.8,-7.4 h 4.9 c -0.1,-0.8 -0.2,-1.5 -0.2,-2.3 0,-7.3 6.1,-13.3 13.6,-13.3 4.2,0 7.9,1.8 10.4,4.7 v 0 l 0.2,0.2 c 0.4,0.5 0.7,1 1.1,1.5 0,0 0,0 0,0.1 0.1,0.1 0.2,0.3 0.3,0.4 0,0.1 0.1,0.2 0.1,0.2 0,0.1 0.1,0.2 0.1,0.3 0.1,0.1 0.1,0.2 0.2,0.3 0,0.1 0.1,0.1 0.1,0.2 0.1,0.1 0.1,0.3 0.2,0.4 0,0 0,0 0,0.1 0.3,0.8 0.6,1.7 0.8,2.6 0,0 0,0.1 0,0.1 0,0.1 0,0.3 0.1,0.4 0,0.1 0,0.2 0,0.2 0,0.1 0,0.2 0,0.3 0,0.1 0,0.2 0,0.3 0,0.1 0,0.2 0,0.3 0,0.2 0,0.4 0,0.6 0,0.3 0,0.5 0,0.8 0,0.1 0,0.2 0,0.2 0,0.2 0,0.3 -0.1,0.5 0,0.1 0,0.2 0,0.3 0,0.2 0,0.3 -0.1,0.5 0,0.1 0,0.2 -0.1,0.3 0,0.2 -0.1,0.3 -0.1,0.5 0,0.2 -0.1,0.4 -0.2,0.6 0,0.1 -0.1,0.2 -0.1,0.3 0,0.2 -0.1,0.3 -0.2,0.5 0,0.1 -0.1,0.1 -0.1,0.2 -0.1,0.2 -0.1,0.3 -0.2,0.5 0,0 0,0.1 0,0.1 -0.8,1.7 -1.9,3.3 -3.3,4.6 0,0 -0.1,0.1 -0.1,0.1 -0.4,0.3 -0.8,0.7 -1.2,1 -0.1,0.1 -0.2,0.2 -0.3,0.2 0,0 -0.1,0.1 -0.1,0.1 l -0.2,0.1 v 0 c -0.2,0.1 -0.3,0.2 -0.5,0.3 0.9,1.6 1.5,3.3 1.5,5.2 V 43 l 9.9,4.1 -0.5,1.1 4.2,1.7 -0.2,0.6 c -0.8,2.1 -2.8,3.4 -5.1,3.4 -0.4,0 -0.7,0 -1.1,-0.1 l -0.4,1 -6.9,-2.8 v 16.7 c 0,0 0,0 0.1,0 3.2,0 5.8,2.6 6,5.9 v 3.7 h -4.2 -3.5 -4.3 -4.2 -8.8 V 75 75 57.7 c -0.2,0.1 -0.4,0.1 -0.6,0.1 h -6.9 c -1,0 -1.9,-0.8 -1.9,-1.9 V 29.3 c 0,-1.1 0.8,-1.9 1.9,-1.9 z m 25.1,7.6 c 0.1,0 0.1,-0.1 0.2,-0.1 0.1,-0.1 0.2,-0.2 0.3,-0.2 0.1,-0.1 0.2,-0.2 0.3,-0.2 0.1,0 0.1,-0.1 0.2,-0.2 0.1,-0.1 0.2,-0.2 0.3,-0.3 0,0 0.1,0 0.1,-0.1 1.1,-1 2.1,-2.3 2.8,-3.6 0,0 0,0 0,0 0.1,-0.2 0.1,-0.3 0.2,-0.5 0,0 0,-0.1 0.1,-0.1 0.1,-0.1 0.1,-0.3 0.2,-0.4 0,-0.1 0,-0.1 0.1,-0.2 0.1,-0.2 0.1,-0.3 0.2,-0.5 0.1,-0.2 0.1,-0.3 0.1,-0.5 0,-0.1 0,-0.2 0.1,-0.3 0,-0.1 0.1,-0.3 0.1,-0.4 0,-0.1 0,-0.2 0,-0.3 0,-0.1 0,-0.3 0.1,-0.4 0,-0.1 0,-0.2 0,-0.3 0,-0.2 0,-0.3 0,-0.5 0,-0.1 0,-0.1 0,-0.2 0,-0.2 0,-0.5 0,-0.7 0,-0.2 0,-0.4 0,-0.6 0,-0.1 0,-0.2 0,-0.2 0,-0.1 0,-0.2 0,-0.3 0,-0.1 0,-0.2 0,-0.3 0,-0.1 0,-0.1 0,-0.2 0,-0.1 0,-0.2 -0.1,-0.4 0,0 0,0 0,-0.1 -0.1,-0.6 -0.3,-1.3 -0.5,-1.9 0,0 0,0 0,0 -0.1,-0.2 -0.1,-0.3 -0.2,-0.4 0,0 0,0 0,0 -0.1,-0.1 -0.1,-0.3 -0.2,-0.4 0,0 0,0 0,0 -0.1,-0.2 -0.2,-0.5 -0.3,-0.7 0,-0.1 -0.1,-0.1 -0.1,-0.2 0,-0.1 -0.1,-0.1 -0.1,-0.2 -0.1,-0.1 -0.1,-0.2 -0.2,-0.3 0,0 0,-0.1 -0.1,-0.1 -0.1,-0.1 -0.2,-0.3 -0.3,-0.4 0,0 0,0 0,-0.1 -0.1,-0.2 -0.3,-0.4 -0.5,-0.6 -0.6,0 -1,0 -1,0 -6,0 -8.4,1.9 -9,2.4 l -0.1,0.1 c -0.1,0.1 -0.1,0.1 -0.1,0.2 -0.4,0.5 -1.2,1.8 -1.2,4.4 0.1,5 3.8,9.4 8.6,10.3 z m 0.1,6.9 c 0,-1.7 -0.5,-3.3 -1.4,-4.7 -1.7,0.8 -3.6,1.2 -5.6,1.2 -2.7,0 -5.3,-0.8 -7.4,-2.2 -1.2,1.5 -2,3.4 -2,5.4 V 56 c 0,0.1 0,0.1 0,0.1 v 18.1 h 7.6 c 0.2,-2.6 2.1,-4.7 4.4,-5.3 V 58.7 h 0.7 0.7 v 10 c 0,0 0.1,0 0.1,0 0.7,0 1.5,0.1 2.1,0.4 0.3,-0.1 0.5,-0.2 0.8,-0.3 V 51.5 L 112.1,48 c -1,-0.4 -1.8,-1.2 -2.3,-2.2 -0.4,-1 -0.4,-2.2 0,-3.2 0.6,-1.6 2.2,-2.6 3.9,-2.6 0.5,0 1.1,0.1 1.6,0.3 l 5.5,2.2 v -0.6 z m -15.4,-6.4 c -0.4,-0.3 -0.7,-0.6 -1,-0.9 V 37 c 0.3,-0.5 0.6,-1 1,-1.5 z m 7.8,38.7 h 3 0.2 0.7 0.4 0.3 2.5 2.3 c -0.2,-1.7 -1.2,-3.1 -2.6,-3.8 -0.5,-0.2 -1,-0.4 -1.5,-0.5 -0.2,0 -0.4,0 -0.6,0 0,0 -0.1,0 -0.1,0 -0.2,0 -0.5,0 -0.7,0.1 -0.2,0 -0.5,0.1 -0.7,0.2 -1.7,0.6 -3,2.1 -3.2,4 z m 17.1,-21.5 c 1.5,0 2.9,-0.8 3.7,-2.1 l -3,-1.2 -1.3,3.2 c 0.2,0 0.4,0.1 0.6,0.1 z m -2.4,0.4 2.2,-5.4 -15.3,-6.2 c -0.4,-0.1 -0.7,-0.2 -1.1,-0.2 -1.2,0 -2.3,0.7 -2.7,1.8 -0.3,0.7 -0.3,1.5 0,2.2 0.3,0.7 0.9,1.3 1.6,1.6 z M 123.9,77 h 2.6 v -1.6 h -2.6 z m 2.8,-2.8 c -0.3,-2.4 -2.3,-4.3 -4.7,-4.3 -0.2,0 -0.4,0 -0.6,0 1.3,1 2.1,2.5 2.3,4.3 z M 104.2,77 h 7.6 4.2 4.1 2.3 v -1.6 h -2.3 -4.1 v 0 h -4.2 v 0 h -7.6 z m 9.5,-39.9 c 1.9,0 3.7,-0.4 5.3,-1.2 -4.8,-1.5 -8.2,-6 -8.2,-11.2 0,-2.8 0.8,-4.3 1.5,-5.1 0,0 0.1,-0.1 0.2,-0.3 l 0.1,-0.1 c 0.9,-0.8 3.6,-2.8 9.7,-2.8 -2.2,-2.1 -5.3,-3.4 -8.6,-3.4 -6.8,0 -12.4,5.4 -12.4,12 0,6.6 5.6,12.1 12.4,12.1 z M 94.9,56 c 0,0.3 0.3,0.6 0.6,0.6 h 6.9 c 0.3,0 0.6,-0.3 0.6,-0.6 V 33.2 c -1.1,-1.3 -1.9,-2.9 -2.4,-4.5 h -5.1 c -0.3,0 -0.6,0.3 -0.6,0.6 z"
     id="path2"
     inkscape:connector-curvature="0"
     style="fill:#000000" /></svg>