<?xml version="1.0" encoding="UTF-8" standalone="no"?>
<!DOCTYPE svg PUBLIC "-//W3C//DTD SVG 1.1//EN" "http://www.w3.org/Graphics/SVG/1.1/DTD/svg11.dtd">
<svg width="100%" height="100%" viewBox="0 0 1690 260" version="1.1" xmlns="http://www.w3.org/2000/svg" xmlns:xlink="http://www.w3.org/1999/xlink" xml:space="preserve" xmlns:serif="http://www.serif.com/" style="fill-rule:evenodd;clip-rule:evenodd;stroke-linejoin:round;stroke-miterlimit:2;">
    <g transform="matrix(1.4075,0,0,1.4075,-0.9075,-0.19375)">
        <path d="M91.11,164.85C51.8,164.85 19.82,132.4 19.82,92.5C19.82,52.6 51.8,20.15 91.11,20.15C130.42,20.15 162.4,52.6 162.4,92.5C162.4,132.4 130.42,164.85 91.11,164.85ZM91.11,28.39C56.34,28.39 28.05,57.15 28.05,92.5C28.05,127.85 56.34,156.61 91.11,156.61C125.88,156.61 154.17,127.85 154.17,92.5C154.17,57.15 125.88,28.39 91.11,28.39Z" style="fill:white;fill-rule:nonzero;"/>
        <path d="M91.11,183.97C41.42,183.97 1,142.93 1,92.5C1,42.07 41.42,1.03 91.11,1.03C140.8,1.03 181.22,42.06 181.22,92.5C181.22,142.94 140.8,183.97 91.11,183.97ZM91.11,9.27C45.96,9.27 9.23,46.6 9.23,92.5C9.23,138.4 45.96,175.73 91.11,175.73C136.26,175.73 172.99,138.39 172.99,92.5C172.99,46.61 136.26,9.27 91.11,9.27Z" style="fill:white;fill-rule:nonzero;"/>
        <path d="M79.32,104.39L79.32,132.99L62.01,132.99L62.01,47.69L95.13,47.69C115.2,47.69 125.24,57.06 125.24,75.79C125.24,86.91 121.06,95.11 112.69,100.38L124.86,133L105.92,133L96.01,104.4L79.33,104.4L79.32,104.39ZM104.54,85.83C106.55,83.32 107.55,80.02 107.55,75.92C107.55,71.82 106.48,68.56 104.35,66.14C102.22,63.72 99.14,62.5 95.13,62.5L79.32,62.5L79.32,89.6L95.38,89.6C99.48,89.6 102.53,88.35 104.54,85.84L104.54,85.83Z" style="fill:white;fill-rule:nonzero;"/>
        <path d="M231.95,72.62L231.95,101.22L214.64,101.22L214.64,15.92L247.76,15.92C267.83,15.92 277.87,25.29 277.87,44.02C277.87,55.14 273.69,63.34 265.32,68.61L277.49,101.23L258.55,101.23L248.64,72.63L231.96,72.63L231.95,72.62ZM257.17,54.05C259.18,51.54 260.18,48.24 260.18,44.14C260.18,40.04 259.11,36.78 256.98,34.36C254.85,31.94 251.77,30.72 247.76,30.72L231.95,30.72L231.95,57.82L248.01,57.82C252.11,57.82 255.16,56.57 257.17,54.06L257.17,54.05Z" style="fill:white;fill-rule:nonzero;"/>
        <path d="M308.04,85.35C310,87.06 312.83,87.92 316.51,87.92C324.29,87.92 331.23,87.67 337.33,87.17L340.84,86.79L341.09,99.21C331.47,101.55 322.78,102.72 315,102.72C305.55,102.72 298.69,100.21 294.43,95.19C290.16,90.17 288.03,82.02 288.03,70.73C288.03,48.24 297.27,36.99 315.75,36.99C334.23,36.99 343.1,46.44 343.1,65.34L341.85,77.01L304.97,77.01C305.05,80.86 306.08,83.64 308.04,85.35ZM326.54,64.21C326.54,59.19 325.74,55.7 324.16,53.74C322.57,51.78 319.79,50.79 315.82,50.79C311.85,50.79 309.05,51.82 307.42,53.86C305.79,55.91 304.93,59.36 304.85,64.21L326.55,64.21L326.54,64.21Z" style="fill:white;fill-rule:nonzero;"/>
        <path d="M376.21,52.8L376.21,101.22L359.4,101.22L359.4,52.8L352.63,52.8L352.63,38.5L359.4,38.5L359.4,35.74C359.4,26.71 360.74,20.48 363.41,17.05C366.09,13.62 370.85,11.91 377.71,11.91C380.72,11.91 384.61,12.33 389.38,13.16L392.01,13.54L391.76,27.21C388.08,27.04 384.99,26.96 382.48,26.96C379.97,26.96 378.3,27.63 377.46,28.97C376.62,30.31 376.21,32.61 376.21,35.87L376.21,38.5L391.39,38.5L391.39,52.8L376.21,52.8Z" style="fill:white;fill-rule:nonzero;"/>
        <path d="M405.32,45.59C409.75,39.86 417.15,37 427.52,37C437.89,37 445.29,39.87 449.72,45.59C454.15,51.32 456.37,59.37 456.37,69.74C456.37,91.74 446.75,102.73 427.52,102.73C408.29,102.73 398.67,91.73 398.67,69.74C398.67,59.37 400.88,51.32 405.32,45.59ZM418.3,83.91C420.01,86.92 423.09,88.43 427.52,88.43C431.95,88.43 435.03,86.92 436.74,83.91C438.45,80.9 439.31,76.18 439.31,69.74C439.31,63.3 438.45,58.62 436.74,55.69C435.02,52.76 431.95,51.3 427.52,51.3C423.09,51.3 420.01,52.76 418.3,55.69C416.58,58.62 415.73,63.3 415.73,69.74C415.73,76.18 416.59,80.9 418.3,83.91Z" style="fill:white;fill-rule:nonzero;"/>
        <path d="M469.92,101.22L469.92,38.5L486.6,38.5L486.6,45.15C493.62,40.97 500.32,38.25 506.67,37L506.67,53.93C499.9,55.35 494.08,56.81 489.23,58.32L486.72,59.2L486.72,101.22L469.91,101.22L469.92,101.22Z" style="fill:white;fill-rule:nonzero;"/>
        <path d="M534.65,101.22L517.84,101.22L517.84,38.5L534.52,38.5L534.52,42.01C540.29,38.67 545.22,36.99 549.32,36.99C556.09,36.99 561.32,38.96 565,42.89C572.69,38.96 579.72,36.99 586.07,36.99C594.35,36.99 600.1,39.39 603.32,44.2C606.54,49.01 608.15,56.68 608.15,67.22L608.15,101.22L591.34,101.22L591.34,67.73C591.34,62.38 590.75,58.43 589.58,55.88C588.41,53.33 586.07,52.05 582.56,52.05C579.88,52.05 576.62,52.64 572.78,53.81L570.9,54.44C571.23,60.71 571.4,65.48 571.4,68.74L571.4,101.23L554.59,101.23L554.59,68.99C554.59,62.8 554.05,58.43 552.96,55.88C551.87,53.33 549.49,52.05 545.81,52.05C542.55,52.05 539.33,52.64 536.15,53.81L534.65,54.31L534.65,101.23L534.65,101.22Z" style="fill:white;fill-rule:nonzero;"/>
        <path d="M641.21,85.35C643.17,87.06 646,87.92 649.68,87.92C657.46,87.92 664.4,87.67 670.5,87.17L674.01,86.79L674.26,99.21C664.64,101.55 655.94,102.72 648.17,102.72C638.72,102.72 631.86,100.21 627.6,95.19C623.33,90.17 621.2,82.02 621.2,70.73C621.2,48.24 630.44,36.99 648.92,36.99C667.4,36.99 676.27,46.44 676.27,65.34L675.02,77.01L638.14,77.01C638.22,80.86 639.25,83.64 641.21,85.35ZM659.71,64.21C659.71,59.19 658.91,55.7 657.33,53.74C655.74,51.78 652.96,50.79 648.99,50.79C645.02,50.79 642.22,51.82 640.59,53.86C638.96,55.91 638.1,59.36 638.02,64.21L659.72,64.21L659.71,64.21Z" style="fill:white;fill-rule:nonzero;"/>
        <path d="M689.57,101.22L689.57,38.5L706.25,38.5L706.25,45.15C713.27,40.97 719.97,38.25 726.32,37L726.32,53.93C719.55,55.35 713.73,56.81 708.88,58.32L706.37,59.2L706.37,101.22L689.56,101.22L689.57,101.22Z" style="fill:white;fill-rule:nonzero;"/>
        <rect x="734.35" y="86.92" width="10.29" height="14.3" style="fill:white;fill-rule:nonzero;"/>
        <path d="M775.25,101.22L765.84,101.22L765.84,38.5L775.12,38.5L775.12,42.89C781.89,39.13 788.37,37.24 794.56,37.24C802.92,37.24 808.55,39.5 811.43,44.02C814.32,48.54 815.76,56.56 815.76,68.1L815.76,101.22L806.48,101.22L806.48,68.35C806.48,59.65 805.62,53.69 803.91,50.47C802.2,47.25 798.54,45.64 792.93,45.64C790.25,45.64 787.43,46.04 784.46,46.83C781.49,47.63 779.21,48.4 777.62,49.15L775.24,50.28L775.24,101.21L775.25,101.22Z" style="fill:white;fill-rule:nonzero;"/>
        <path d="M877.11,93.44L880.75,93.06L881,100.46C871.47,101.8 863.31,102.47 856.54,102.47C847.51,102.47 841.11,99.86 837.35,94.63C833.59,89.4 831.7,81.27 831.7,70.23C831.7,48.24 840.44,37.24 857.92,37.24C866.37,37.24 872.68,39.6 876.86,44.33C881.04,49.06 883.13,56.48 883.13,66.6L882.63,73.75L841.23,73.75C841.23,80.69 842.48,85.84 844.99,89.18C847.5,92.53 851.87,94.2 858.1,94.2C864.33,94.2 870.66,93.95 877.11,93.45L877.11,93.44ZM873.72,66.22C873.72,58.53 872.49,53.09 870.02,49.91C867.55,46.73 863.54,45.14 857.98,45.14C852.42,45.14 848.24,46.82 845.43,50.16C842.63,53.51 841.19,58.86 841.1,66.22L873.72,66.22Z" style="fill:white;fill-rule:nonzero;"/>
        <path d="M931.17,46.65L911.22,46.65L911.22,76.63C911.22,83.82 911.74,88.55 912.79,90.8C913.83,93.06 916.32,94.19 920.25,94.19L931.41,93.44L932.04,101.22C926.44,102.14 922.17,102.6 919.24,102.6C912.72,102.6 908.2,101.01 905.69,97.83C903.18,94.65 901.93,88.59 901.93,79.64L901.93,46.65L893.02,46.65L893.02,38.5L901.93,38.5L901.93,19.31L911.21,19.31L911.21,38.5L931.16,38.5L931.16,46.65L931.17,46.65Z" style="fill:white;fill-rule:nonzero;"/>
        <path d="M938.81,38.5L948.23,38.5L960.9,93.07L962.91,93.07L977.84,39.76L987.62,39.76L1002.55,93.07L1004.68,93.07L1017.22,38.5L1026.63,38.5L1011.7,101.22L996.02,101.22L982.72,52.17L969.42,101.22L953.74,101.22L938.81,38.5Z" style="fill:white;fill-rule:nonzero;"/>
        <path d="M1037.42,69.73C1037.42,58.27 1039.47,49.99 1043.57,44.89C1047.67,39.79 1054.59,37.24 1064.33,37.24C1074.07,37.24 1080.97,39.79 1085.03,44.89C1089.09,49.99 1091.11,58.27 1091.11,69.73C1091.11,81.19 1089.19,89.51 1085.34,94.69C1081.49,99.88 1074.47,102.47 1064.27,102.47C1054.07,102.47 1047.04,99.88 1043.2,94.69C1039.35,89.51 1037.43,81.19 1037.43,69.73L1037.42,69.73ZM1047.08,69.55C1047.08,78.71 1048.19,85.13 1050.4,88.81C1052.61,92.49 1057.26,94.33 1064.32,94.33C1071.38,94.33 1076.01,92.51 1078.18,88.87C1080.35,85.23 1081.44,78.81 1081.44,69.61C1081.44,60.41 1080.23,54.08 1077.8,50.6C1075.37,47.13 1070.88,45.39 1064.31,45.39C1057.74,45.39 1053.23,47.13 1050.76,50.6C1048.29,54.07 1047.06,60.38 1047.06,69.54L1047.08,69.55Z" style="fill:white;fill-rule:nonzero;"/>
        <path d="M1107.67,101.22L1107.67,38.5L1116.95,38.5L1116.95,47.03C1124.22,42.01 1131.88,38.71 1139.91,37.12L1139.91,46.65C1136.4,47.32 1132.74,48.37 1128.93,49.79C1125.12,51.21 1122.22,52.47 1120.21,53.55L1117.07,55.18L1117.07,101.22L1107.66,101.22L1107.67,101.22Z" style="fill:white;fill-rule:nonzero;"/>
        <path d="M1161.74,101.22L1152.33,101.22L1152.33,11.15L1161.74,11.15L1161.74,64.34L1171.52,63.84L1189.46,38.5L1200.12,38.5L1179.67,67.35L1201,101.22L1190.34,101.22L1171.65,72.12L1161.74,72.5L1161.74,101.23L1161.74,101.22Z" style="fill:white;fill-rule:nonzero;"/>
        <path d="M214.43,144.27L222.72,144.27L228.84,175.79L230.39,175.79L237.75,145.04L246.42,145.04L253.78,175.79L255.33,175.79L261.37,144.27L269.73,144.27L261.52,183L248.12,183L242.08,156.43L236.04,183L222.64,183L214.43,144.27Z" style="fill:white;fill-rule:nonzero;"/>
        <path d="M274.69,144.27L282.98,144.27L289.1,175.79L290.65,175.79L298.01,145.04L306.68,145.04L314.04,175.79L315.59,175.79L321.63,144.27L329.99,144.27L321.78,183L308.38,183L302.34,156.43L296.3,183L282.9,183L274.69,144.27Z" style="fill:white;fill-rule:nonzero;"/>
        <path d="M334.95,144.27L343.24,144.27L349.36,175.79L350.91,175.79L358.27,145.04L366.94,145.04L374.3,175.79L375.85,175.79L381.89,144.27L390.25,144.27L382.04,183L368.64,183L362.6,156.43L356.56,183L343.16,183L334.95,144.27Z" style="fill:white;fill-rule:nonzero;"/>
        <rect x="396.14" y="171.85" width="9.06" height="11.15" style="fill:white;fill-rule:nonzero;"/>
        <path d="M415.81,183L415.81,144.27L424.17,144.27L424.17,148.92C428.56,146.08 432.95,144.25 437.34,143.42L437.34,151.86C432.9,152.74 429.1,153.87 425.95,155.27L424.25,155.97L424.25,183L415.81,183Z" style="fill:white;fill-rule:nonzero;"/>
        <path d="M471.8,176.03L473.97,175.8L474.12,182.07C468.23,183.26 463.02,183.85 458.47,183.85C452.74,183.85 448.62,182.28 446.12,179.13C443.61,175.98 442.36,170.95 442.36,164.03C442.36,150.3 447.96,143.43 459.17,143.43C470.38,143.43 475.44,149.34 475.44,161.17L474.9,167.21L450.89,167.21C450.94,170.41 451.64,172.76 452.98,174.26C454.32,175.76 456.83,176.51 460.49,176.51C464.15,176.51 467.93,176.36 471.8,176.05L471.8,176.03ZM467.16,160.69C467.16,156.87 466.55,154.2 465.34,152.67C464.13,151.15 462.07,150.38 459.18,150.38C456.29,150.38 454.18,151.18 452.87,152.78C451.55,154.38 450.87,157.01 450.82,160.68L467.16,160.68L467.16,160.69Z" style="fill:white;fill-rule:nonzero;"/>
        <rect x="483.96" y="158.29" width="23.16" height="7.67" style="fill:white;fill-rule:nonzero;"/>
        <path d="M526.17,183L517.73,183L517.73,144.27L526.09,144.27L526.09,146.67C529.86,144.5 533.42,143.42 536.78,143.42C541.94,143.42 545.47,144.88 547.35,147.8C549.24,150.72 550.18,155.53 550.18,162.25L550.18,183.01L541.82,183.01L541.82,162.49C541.82,158.31 541.37,155.34 540.46,153.58C539.56,151.83 537.71,150.95 534.92,150.95C532.29,150.95 529.76,151.47 527.33,152.5L526.17,152.97L526.17,183.02L526.17,183Z" style="fill:white;fill-rule:nonzero;"/>
        <path d="M588.36,176.03L590.53,175.8L590.68,182.07C584.79,183.26 579.58,183.85 575.03,183.85C569.3,183.85 565.18,182.28 562.68,179.13C560.17,175.98 558.92,170.95 558.92,164.03C558.92,150.3 564.52,143.43 575.73,143.43C586.94,143.43 592,149.34 592,161.17L591.46,167.21L567.45,167.21C567.5,170.41 568.2,172.76 569.54,174.26C570.88,175.76 573.39,176.51 577.05,176.51C580.71,176.51 584.49,176.36 588.36,176.05L588.36,176.03ZM583.72,160.69C583.72,156.87 583.11,154.2 581.9,152.67C580.69,151.15 578.63,150.38 575.74,150.38C572.85,150.38 570.74,151.18 569.43,152.78C568.11,154.38 567.43,157.01 567.38,160.68L583.72,160.68L583.72,160.69Z" style="fill:white;fill-rule:nonzero;"/>
        <path d="M621.75,151.48L611.06,151.48L611.06,168.52C611.06,171.67 611.29,173.76 611.76,174.79C612.23,175.82 613.41,176.34 615.32,176.34L621.67,176.11L622.06,182.85C618.6,183.52 615.97,183.86 614.16,183.86C609.77,183.86 606.76,182.85 605.14,180.84C603.52,178.83 602.7,175.03 602.7,169.45L602.7,151.48L597.74,151.48L597.74,144.28L602.7,144.28L602.7,133.05L611.06,133.05L611.06,144.28L621.75,144.28L621.75,151.48Z" style="fill:white;fill-rule:nonzero;"/>
        <rect x="629.02" y="171.85" width="9.06" height="11.15" style="fill:white;fill-rule:nonzero;"/>
        <path d="M680.3,128.17L680.3,183.01L671.94,183.01L671.94,181C668.17,182.91 664.71,183.87 661.56,183.87C656.5,183.87 652.8,182.35 650.45,179.3C648.1,176.25 646.93,171.14 646.93,163.97C646.93,156.8 648.23,151.58 650.84,148.32C653.45,145.07 657.51,143.44 663.04,143.44C664.9,143.44 667.84,143.78 671.87,144.45L671.87,128.19L680.31,128.19L680.3,128.17ZM670.54,174.95L671.86,174.41L671.86,151.49C668.76,150.97 665.9,150.72 663.26,150.72C658.04,150.72 655.44,155.06 655.44,163.73C655.44,168.48 656.05,171.77 657.26,173.61C658.47,175.44 660.4,176.36 663.03,176.36C665.66,176.36 668.17,175.9 670.54,174.97L670.54,174.95Z" style="fill:white;fill-rule:nonzero;"/>
        <path d="M718.87,176.03L721.04,175.8L721.19,182.07C715.3,183.26 710.09,183.85 705.54,183.85C699.81,183.85 695.69,182.28 693.19,179.13C690.68,175.98 689.43,170.95 689.43,164.03C689.43,150.3 695.03,143.43 706.24,143.43C717.45,143.43 722.51,149.34 722.51,161.17L721.97,167.21L697.96,167.21C698.01,170.41 698.71,172.76 700.05,174.26C701.39,175.76 703.9,176.51 707.56,176.51C711.22,176.51 715,176.36 718.87,176.05L718.87,176.03ZM714.22,160.69C714.22,156.87 713.61,154.2 712.4,152.67C711.19,151.15 709.13,150.38 706.24,150.38C703.35,150.38 701.24,151.18 699.93,152.78C698.61,154.38 697.93,157.01 697.88,160.68L714.22,160.68L714.22,160.69Z" style="fill:white;fill-rule:nonzero;"/>
    </g>
</svg>
