<?xml version="1.0" encoding="UTF-8" standalone="no"?>
<!DOCTYPE svg PUBLIC "-//W3C//DTD SVG 1.1//EN" "http://www.w3.org/Graphics/SVG/1.1/DTD/svg11.dtd">
<svg width="100%" height="100%" viewBox="0 0 600 570" version="1.1" xmlns="http://www.w3.org/2000/svg" xmlns:xlink="http://www.w3.org/1999/xlink" xml:space="preserve" xmlns:serif="http://www.serif.com/" style="fill-rule:evenodd;clip-rule:evenodd;stroke-linejoin:round;stroke-miterlimit:2;">
    <g transform="matrix(1,0,0,1,0,69.968)">
        <path d="M295.28,193.09C249.19,193.09 211.69,155.03 211.69,108.26C211.69,61.49 249.19,23.42 295.28,23.42C341.37,23.42 378.87,61.48 378.87,108.26C378.87,155.04 341.37,193.09 295.28,193.09ZM295.28,33.08C254.51,33.08 221.34,66.81 221.34,108.26C221.34,149.71 254.51,183.44 295.28,183.44C336.05,183.44 369.22,149.72 369.22,108.26C369.22,66.8 336.05,33.08 295.28,33.08Z" style="fill:rgb(244,142,0);fill-rule:nonzero;"/>
    </g>
    <g transform="matrix(1,0,0,1,0,69.968)">
        <path d="M295.28,215.51C237.02,215.51 189.61,167.4 189.61,108.26C189.61,49.12 237.02,1 295.28,1C353.54,1 400.95,49.11 400.95,108.25C400.95,167.39 353.55,215.5 295.28,215.5L295.28,215.51ZM295.28,10.65C242.34,10.65 199.27,54.43 199.27,108.25C199.27,162.07 242.34,205.85 295.28,205.85C348.22,205.85 391.29,162.07 391.29,108.25C391.29,54.43 348.22,10.65 295.28,10.65Z" style="fill:rgb(244,142,0);fill-rule:nonzero;"/>
    </g>
    <g transform="matrix(1,0,0,1,0,69.968)">
        <path d="M281.46,122.19L281.46,155.74L261.16,155.74L261.16,55.71L300,55.71C323.53,55.71 335.3,66.69 335.3,88.66C335.3,101.7 330.39,111.31 320.59,117.49L334.86,155.73L312.65,155.73L301.03,122.19L281.46,122.19ZM311.03,100.43C313.38,97.49 314.56,93.61 314.56,88.81C314.56,84.01 313.31,80.18 310.81,77.34C308.31,74.5 304.7,73.07 300,73.07L281.46,73.07L281.46,104.84L300.29,104.84C305.09,104.84 308.68,103.37 311.03,100.43Z" style="fill:rgb(244,142,0);fill-rule:nonzero;"/>
    </g>
    <g transform="matrix(1,0,0,1,0,69.968)">
        <path d="M21.3,315.14L21.3,348.68L1,348.68L1,248.66L39.84,248.66C63.37,248.66 75.14,259.64 75.14,281.61C75.14,294.65 70.23,304.26 60.43,310.44L74.7,348.68L52.49,348.68L40.87,315.14L21.3,315.14ZM50.87,293.37C53.22,290.43 54.4,286.56 54.4,281.75C54.4,276.94 53.15,273.12 50.65,270.28C48.15,267.44 44.54,266.02 39.84,266.02L21.3,266.02L21.3,297.79L40.13,297.79C44.93,297.79 48.52,296.32 50.87,293.38L50.87,293.37Z" style="fill:rgb(244,142,0);fill-rule:nonzero;"/>
    </g>
    <g transform="matrix(1,0,0,1,0,69.968)">
        <path d="M110.51,330.07C112.81,332.08 116.12,333.08 120.44,333.08C129.56,333.08 137.7,332.79 144.86,332.2L148.98,331.76L149.28,346.32C138,349.06 127.8,350.44 118.68,350.44C107.6,350.44 99.56,347.5 94.56,341.61C89.56,335.73 87.06,326.16 87.06,312.93C87.06,286.55 97.9,273.36 119.57,273.36C141.24,273.36 151.64,284.44 151.64,306.61L150.17,320.29L106.92,320.29C107.02,324.8 108.22,328.06 110.52,330.07L110.51,330.07ZM132.21,305.28C132.21,299.4 131.28,295.31 129.41,293C127.55,290.7 124.29,289.54 119.63,289.54C114.97,289.54 111.68,290.74 109.77,293.14C107.86,295.55 106.85,299.59 106.76,305.28L132.21,305.28Z" style="fill:rgb(244,142,0);fill-rule:nonzero;"/>
    </g>
    <g transform="matrix(1,0,0,1,0,69.968)">
        <path d="M190.46,291.89L190.46,348.67L170.75,348.67L170.75,291.89L162.81,291.89L162.81,275.12L170.75,275.12L170.75,271.88C170.75,261.29 172.32,253.98 175.46,249.96C178.6,245.94 184.19,243.93 192.23,243.93C195.76,243.93 200.32,244.42 205.91,245.4L209,245.84L208.71,261.87C204.39,261.67 200.76,261.57 197.82,261.57C194.88,261.57 192.91,262.36 191.94,263.93C190.96,265.5 190.47,268.19 190.47,272.02L190.47,275.11L208.27,275.11L208.27,291.88L190.47,291.88L190.46,291.89Z" style="fill:rgb(244,142,0);fill-rule:nonzero;"/>
    </g>
    <g transform="matrix(1,0,0,1,0,69.968)">
        <path d="M224.59,283.43C229.79,276.71 238.46,273.35 250.63,273.35C262.8,273.35 271.47,276.71 276.67,283.43C281.87,290.15 284.47,299.59 284.47,311.75C284.47,337.54 273.19,350.44 250.64,350.44C228.09,350.44 216.81,337.55 216.81,311.75C216.81,299.59 219.41,290.15 224.61,283.43L224.59,283.43ZM239.81,328.37C241.82,331.9 245.42,333.67 250.62,333.67C255.82,333.67 259.42,331.9 261.43,328.37C263.44,324.84 264.45,319.3 264.45,311.75C264.45,304.2 263.44,298.71 261.43,295.28C259.42,291.85 255.82,290.13 250.62,290.13C245.42,290.13 241.82,291.84 239.81,295.28C237.8,298.71 236.79,304.2 236.79,311.75C236.79,319.3 237.8,324.84 239.81,328.37Z" style="fill:rgb(244,142,0);fill-rule:nonzero;"/>
    </g>
    <g transform="matrix(1,0,0,1,0,69.968)">
        <path d="M300.34,348.68L300.34,275.12L319.9,275.12L319.9,282.92C328.14,278.02 335.98,274.83 343.44,273.36L343.44,293.22C335.5,294.89 328.68,296.6 322.99,298.37L320.05,299.4L320.05,348.68L300.34,348.68Z" style="fill:rgb(244,142,0);fill-rule:nonzero;"/>
    </g>
    <g transform="matrix(1,0,0,1,0,69.968)">
        <path d="M376.24,348.67L356.53,348.67L356.53,275.12L376.09,275.12L376.09,279.24C382.86,275.32 388.64,273.35 393.45,273.35C401.39,273.35 407.52,275.66 411.84,280.27C420.86,275.66 429.1,273.35 436.55,273.35C446.26,273.35 453,276.17 456.78,281.81C460.55,287.45 462.44,296.44 462.44,308.8L462.44,348.66L442.73,348.66L442.73,309.39C442.73,303.11 442.04,298.48 440.67,295.49C439.29,292.5 436.55,291 432.43,291C429.29,291 425.47,291.69 420.96,293.06L418.75,293.8C419.14,301.15 419.34,306.74 419.34,310.57L419.34,348.67L399.63,348.67L399.63,310.87C399.63,303.62 398.99,298.49 397.72,295.5C396.45,292.51 393.65,291.01 389.34,291.01C385.52,291.01 381.74,291.7 378.01,293.07L376.24,293.66L376.24,348.67Z" style="fill:rgb(244,142,0);fill-rule:nonzero;"/>
    </g>
    <g transform="matrix(1,0,0,1,0,69.968)">
        <path d="M501.2,330.07C503.5,332.08 506.81,333.08 511.13,333.08C520.25,333.08 528.39,332.79 535.55,332.2L539.67,331.76L539.97,346.32C528.69,349.06 518.49,350.44 509.37,350.44C498.29,350.44 490.25,347.5 485.25,341.61C480.25,335.73 477.75,326.16 477.75,312.93C477.75,286.55 488.59,273.36 510.26,273.36C531.93,273.36 542.33,284.44 542.33,306.61L540.86,320.29L497.61,320.29C497.71,324.8 498.91,328.06 501.21,330.07L501.2,330.07ZM522.9,305.28C522.9,299.4 521.97,295.31 520.1,293C518.24,290.7 514.98,289.54 510.32,289.54C505.66,289.54 502.37,290.74 500.46,293.14C498.55,295.55 497.54,299.59 497.45,305.28L522.9,305.28Z" style="fill:rgb(244,142,0);fill-rule:nonzero;"/>
    </g>
    <g transform="matrix(1,0,0,1,0,69.968)">
        <path d="M557.9,348.67L557.9,275.12L577.46,275.12L577.46,282.92C585.7,278.02 593.54,274.83 600.99,273.36L600.99,293.22C593.05,294.89 586.23,296.6 580.54,298.37L577.6,299.4L577.6,348.68L557.89,348.68L557.9,348.67Z" style="fill:rgb(244,142,0);fill-rule:nonzero;"/>
    </g>
    <g transform="matrix(1,0,0,1,0,69.968)">
        <rect x="19.09" y="460.61" width="12.06" height="16.77" style="fill:rgb(244,142,0);fill-rule:nonzero;"/>
    </g>
    <g transform="matrix(1,0,0,1,0,69.968)">
        <path d="M64.1,477.38L53.07,477.38L53.07,403.83L63.95,403.83L63.95,408.98C71.9,404.57 79.49,402.36 86.75,402.36C96.55,402.36 103.15,405.01 106.53,410.3C109.91,415.59 111.61,425.01 111.61,438.54L111.61,477.37L100.72,477.37L100.72,438.83C100.72,428.63 99.71,421.65 97.71,417.87C95.7,414.1 91.41,412.21 84.84,412.21C81.7,412.21 78.39,412.68 74.91,413.61C71.43,414.54 68.76,415.45 66.89,416.33L64.1,417.66L64.1,477.38Z" style="fill:rgb(244,142,0);fill-rule:nonzero;"/>
    </g>
    <g transform="matrix(1,0,0,1,0,69.968)">
        <path d="M183.54,468.26L187.81,467.82L188.1,476.5C176.92,478.07 167.36,478.86 159.42,478.86C148.83,478.86 141.33,475.8 136.92,469.67C132.51,463.54 130.3,454 130.3,441.06C130.3,415.27 140.55,402.37 161.04,402.37C170.94,402.37 178.35,405.14 183.25,410.68C188.15,416.22 190.61,424.93 190.61,436.79L190.02,445.18L141.48,445.18C141.48,453.32 142.95,459.35 145.89,463.27C148.83,467.19 153.96,469.15 161.26,469.15C168.56,469.15 175.99,468.85 183.54,468.27L183.54,468.26ZM179.57,436.34C179.57,427.32 178.12,420.95 175.23,417.22C172.34,413.49 167.63,411.63 161.11,411.63C154.59,411.63 149.68,413.59 146.4,417.51C143.11,421.43 141.42,427.71 141.33,436.34L179.57,436.34Z" style="fill:rgb(244,142,0);fill-rule:nonzero;"/>
    </g>
    <g transform="matrix(1,0,0,1,0,69.968)">
        <path d="M246.94,413.39L223.55,413.39L223.55,448.55C223.55,456.99 224.16,462.53 225.39,465.17C226.61,467.82 229.53,469.14 234.14,469.14L247.23,468.26L247.97,477.38C241.4,478.46 236.4,479 232.96,479C225.31,479 220.02,477.14 217.07,473.41C214.13,469.68 212.66,462.58 212.66,452.08L212.66,413.39L202.22,413.39L202.22,403.83L212.66,403.83L212.66,381.33L223.54,381.33L223.54,403.83L246.93,403.83L246.93,413.39L246.94,413.39Z" style="fill:rgb(244,142,0);fill-rule:nonzero;"/>
    </g>
    <g transform="matrix(1,0,0,1,0,69.968)">
        <path d="M255.9,403.83L266.94,403.83L281.8,467.82L284.16,467.82L301.66,405.31L313.13,405.31L330.63,467.82L333.13,467.82L347.84,403.83L358.87,403.83L341.37,477.38L322.98,477.38L307.39,419.87L291.8,477.38L273.41,477.38L255.9,403.83Z" style="fill:rgb(244,142,0);fill-rule:nonzero;"/>
    </g>
    <g transform="matrix(1,0,0,1,0,69.968)">
        <path d="M371.53,440.46C371.53,427.03 373.93,417.32 378.74,411.34C383.54,405.36 391.66,402.37 403.09,402.37C414.52,402.37 422.6,405.36 427.36,411.34C432.12,417.32 434.49,427.03 434.49,440.46C434.49,453.89 432.23,463.65 427.72,469.73C423.21,475.81 414.97,478.85 403.01,478.85C391.05,478.85 382.81,475.81 378.3,469.73C373.79,463.65 371.53,453.9 371.53,440.46ZM382.86,440.24C382.86,450.98 384.16,458.51 386.76,462.82C389.36,467.14 394.8,469.29 403.09,469.29C411.38,469.29 416.79,467.16 419.34,462.89C421.89,458.62 423.16,451.1 423.16,440.31C423.16,429.52 421.74,422.1 418.9,418.02C416.05,413.95 410.78,411.92 403.09,411.92C395.4,411.92 390.1,413.96 387.2,418.02C384.31,422.09 382.86,429.49 382.86,440.23L382.86,440.24Z" style="fill:rgb(244,142,0);fill-rule:nonzero;"/>
    </g>
    <g transform="matrix(1,0,0,1,0,69.968)">
        <path d="M453.91,477.38L453.91,403.83L464.79,403.83L464.79,413.83C473.32,407.95 482.29,404.07 491.71,402.21L491.71,413.39C487.59,414.18 483.3,415.4 478.84,417.07C474.38,418.74 470.97,420.21 468.62,421.48L464.94,423.39L464.94,477.38L453.91,477.38Z" style="fill:rgb(244,142,0);fill-rule:nonzero;"/>
    </g>
    <g transform="matrix(1,0,0,1,0,69.968)">
        <path d="M517.3,477.38L506.27,477.38L506.27,371.77L517.3,371.77L517.3,434.14L528.77,433.55L549.81,403.84L562.31,403.84L538.33,437.67L563.34,477.39L550.84,477.39L528.92,443.26L517.3,443.7L517.3,477.39L517.3,477.38Z" style="fill:rgb(244,142,0);fill-rule:nonzero;"/>
    </g>
</svg>
