<svg xmlns="http://www.w3.org/2000/svg" xmlns:xlink="http://www.w3.org/1999/xlink" version="1.1" x="0px" y="0px" viewBox="0 0 90 90" enable-background="new 0 0 90 90" xml:space="preserve"><path fill="#000000" d="M78.7,30.9h4.8v0.8h-4.8V30.9z M78.7,33.7h4.8v-0.8h-4.8V33.7z M78.7,35.6h4.8v-0.8h-4.8V35.6z M86.4,29.3  V56c0,1-0.8,1.9-1.9,1.9h-6.9c-0.2,0-0.4,0-0.6-0.1V75h0v3.3h-8.8H64h-4.1h-3.5h-4.2v-3.7c0.1-3.3,2.8-5.9,6-5.9c0,0,0,0,0.1,0V52  l-6.8,2.8l-0.4-1c-0.4,0.1-0.7,0.1-1.1,0.1c-2.3,0-4.3-1.3-5.1-3.4l-0.2-0.6l4.2-1.7l-0.5-1.1l9.9-4.1v-1.2c0-1.9,0.5-3.7,1.5-5.2  c-0.2-0.1-0.3-0.2-0.5-0.3l0,0l-0.2-0.1c0,0-0.1-0.1-0.1-0.1c-0.1-0.1-0.2-0.1-0.3-0.2c-0.4-0.3-0.9-0.6-1.2-1c0,0-0.1-0.1-0.1-0.1  c-1.4-1.3-2.6-2.8-3.3-4.6c0,0,0-0.1,0-0.1c-0.1-0.2-0.1-0.3-0.2-0.5c0-0.1-0.1-0.1-0.1-0.2c-0.1-0.1-0.1-0.3-0.2-0.5  c0-0.1-0.1-0.2-0.1-0.3c-0.1-0.2-0.1-0.4-0.2-0.6c0-0.2-0.1-0.3-0.1-0.5c0-0.1,0-0.2-0.1-0.3c0-0.2-0.1-0.3-0.1-0.5  c0-0.1,0-0.2,0-0.3c0-0.2,0-0.3-0.1-0.5c0-0.1,0-0.2,0-0.2c0-0.3,0-0.5,0-0.8c0-0.2,0-0.4,0-0.6c0-0.1,0-0.2,0-0.3  c0-0.1,0-0.2,0-0.3c0-0.1,0-0.2,0-0.3c0-0.1,0-0.2,0-0.2c0-0.1,0-0.3,0.1-0.4c0,0,0-0.1,0-0.1c0.2-0.9,0.4-1.8,0.8-2.6  c0,0,0,0,0-0.1c0.1-0.1,0.1-0.3,0.2-0.4c0-0.1,0.1-0.1,0.1-0.2c0.1-0.1,0.1-0.2,0.2-0.3c0-0.1,0.1-0.2,0.1-0.3  c0-0.1,0.1-0.2,0.1-0.2c0.1-0.1,0.2-0.3,0.3-0.4c0,0,0,0,0-0.1c0.3-0.5,0.7-1,1.1-1.5l0.2-0.2l0,0c2.5-2.9,6.2-4.7,10.4-4.7  c7.5,0,13.6,6,13.6,13.3c0,0.8-0.1,1.6-0.2,2.3h4.9C85.6,27.4,86.4,28.2,86.4,29.3z M67.9,24.7c0-2.5-0.7-3.8-1.2-4.4  c0,0-0.1-0.1-0.1-0.2l-0.1-0.1c-0.6-0.6-3-2.4-9-2.4c0,0-0.4,0-1,0c-0.2,0.2-0.3,0.4-0.5,0.6c0,0,0,0,0,0.1  c-0.1,0.1-0.2,0.3-0.3,0.4c0,0,0,0.1-0.1,0.1c-0.1,0.1-0.1,0.2-0.2,0.3c0,0.1-0.1,0.1-0.1,0.2c0,0.1-0.1,0.1-0.1,0.2  c-0.1,0.2-0.2,0.5-0.3,0.7c0,0,0,0,0,0c-0.1,0.1-0.1,0.3-0.2,0.4c0,0,0,0,0,0c-0.1,0.1-0.1,0.3-0.2,0.4c0,0,0,0,0,0  c-0.2,0.6-0.4,1.2-0.5,1.9c0,0,0,0,0,0.1c0,0.1,0,0.2-0.1,0.4c0,0.1,0,0.1,0,0.2c0,0.1,0,0.2,0,0.3c0,0.1,0,0.2,0,0.3  c0,0.1,0,0.2,0,0.2c0,0.2,0,0.4,0,0.6c0,0.2,0,0.5,0,0.7c0,0.1,0,0.1,0,0.2c0,0.2,0,0.3,0,0.5c0,0.1,0,0.2,0,0.3  c0,0.1,0,0.3,0.1,0.4c0,0.1,0,0.2,0,0.3c0,0.1,0.1,0.3,0.1,0.4c0,0.1,0,0.2,0.1,0.3c0,0.2,0.1,0.3,0.1,0.5c0.1,0.2,0.1,0.3,0.2,0.5  c0,0.1,0,0.1,0.1,0.2c0.1,0.1,0.1,0.3,0.2,0.4c0,0,0,0.1,0.1,0.1c0.1,0.2,0.1,0.3,0.2,0.5c0,0,0,0,0,0c0.7,1.4,1.6,2.6,2.8,3.6  c0,0,0.1,0,0.1,0.1c0.1,0.1,0.2,0.2,0.3,0.3c0.1,0.1,0.1,0.1,0.2,0.2c0.1,0.1,0.2,0.2,0.3,0.2c0.1,0.1,0.2,0.2,0.3,0.2  c0.1,0,0.1,0.1,0.2,0.1C64.2,34.1,67.9,29.7,67.9,24.7z M59.3,42.5l5.5-2.2c0.5-0.2,1-0.3,1.6-0.3c1.7,0,3.2,1,3.9,2.6  c0.4,1,0.4,2.2,0,3.2c-0.4,1-1.2,1.8-2.3,2.2l-8.6,3.5v17.3c0.3,0.1,0.6,0.1,0.8,0.3c0.7-0.3,1.4-0.4,2.1-0.4c0,0,0.1,0,0.1,0v-10  h0.7h0.7v10.2c2.4,0.6,4.2,2.7,4.4,5.3h7.6V56.1c0-0.1,0-0.1,0-0.1V41.5c-0.1-2-0.8-3.8-2-5.4c-2.1,1.4-4.7,2.2-7.4,2.2  c-2,0-3.9-0.4-5.6-1.2c-0.9,1.4-1.4,3-1.4,4.7V42.5z M75.7,37v-2.4c-0.3,0.3-0.7,0.6-1,0.9C75.1,36,75.4,36.5,75.7,37z M63.7,70.2  c-0.2-0.1-0.4-0.1-0.7-0.2c-0.2,0-0.4-0.1-0.7-0.1c0,0-0.1,0-0.1,0c-0.2,0-0.4,0-0.6,0c-0.5,0.1-1,0.2-1.5,0.5  c-1.4,0.7-2.4,2.1-2.6,3.8h2.3h2.5h0.3h0.4h0.7h0.2h3C66.7,72.3,65.4,70.8,63.7,70.2z M50.4,52.6l-1.3-3.2l-3,1.2  c0.8,1.3,2.1,2.1,3.7,2.1C50,52.7,50.2,52.6,50.4,52.6z M67.5,46.9c0.7-0.3,1.3-0.9,1.6-1.6c0.3-0.7,0.3-1.5,0-2.2  c-0.5-1.1-1.5-1.8-2.7-1.8c-0.4,0-0.8,0.1-1.1,0.2L50,47.7l2.2,5.4L67.5,46.9z M56.1,75.5h-2.6V77h2.6V75.5z M56.3,74.2  c0.2-1.7,1-3.2,2.3-4.3c-0.2,0-0.4,0-0.6,0c-2.4,0-4.4,1.9-4.7,4.3H56.3z M75.8,75.5h-7.6h0H64h0h-4.1h-2.3V77h2.3H64h4.2h7.6V75.5z   M78.6,25.1c0-6.6-5.5-12-12.4-12c-3.3,0-6.4,1.3-8.6,3.4c6.2,0,8.8,2,9.7,2.8l0.1,0.1c0.1,0.1,0.2,0.2,0.2,0.3  c0.7,0.8,1.5,2.4,1.5,5.1c0,5.3-3.3,9.7-8.2,11.2c1.6,0.7,3.4,1.2,5.3,1.2C73.1,37.1,78.6,31.7,78.6,25.1z M85.1,29.3  c0-0.3-0.3-0.6-0.6-0.6h-5.2c-0.5,1.7-1.3,3.2-2.4,4.5V56c0,0.3,0.3,0.6,0.6,0.6h6.9c0.3,0,0.6-0.3,0.6-0.6V29.3z M11.3,31.8H6.5  v-0.8h4.8V31.8z M11.3,32.9H6.5v0.8h4.8V32.9z M11.3,34.8H6.5v0.8h4.8V34.8z M5.5,27.4h4.9c-0.1-0.8-0.2-1.5-0.2-2.3  c0-7.3,6.1-13.3,13.6-13.3c4.2,0,7.9,1.8,10.4,4.7l0,0l0.2,0.2c0.4,0.5,0.7,1,1.1,1.5c0,0,0,0,0,0.1c0.1,0.1,0.2,0.3,0.3,0.4  c0,0.1,0.1,0.2,0.1,0.2c0,0.1,0.1,0.2,0.1,0.3c0.1,0.1,0.1,0.2,0.2,0.3c0,0.1,0.1,0.1,0.1,0.2c0.1,0.1,0.1,0.3,0.2,0.4  c0,0,0,0,0,0.1c0.3,0.8,0.6,1.7,0.8,2.6c0,0,0,0.1,0,0.1c0,0.1,0,0.3,0.1,0.4c0,0.1,0,0.2,0,0.2c0,0.1,0,0.2,0,0.3  c0,0.1,0,0.2,0,0.3c0,0.1,0,0.2,0,0.3c0,0.2,0,0.4,0,0.6c0,0.3,0,0.5,0,0.8c0,0.1,0,0.2,0,0.2c0,0.2,0,0.3-0.1,0.5  c0,0.1,0,0.2,0,0.3c0,0.2,0,0.3-0.1,0.5c0,0.1,0,0.2-0.1,0.3c0,0.2-0.1,0.3-0.1,0.5c0,0.2-0.1,0.4-0.2,0.6c0,0.1-0.1,0.2-0.1,0.3  c0,0.2-0.1,0.3-0.2,0.5c0,0.1-0.1,0.1-0.1,0.2c-0.1,0.2-0.1,0.3-0.2,0.5c0,0,0,0.1,0,0.1c-0.8,1.7-1.9,3.3-3.3,4.6  c0,0-0.1,0.1-0.1,0.1c-0.4,0.3-0.8,0.7-1.2,1c-0.1,0.1-0.2,0.2-0.3,0.2c0,0-0.1,0.1-0.1,0.1l-0.2,0.1l0,0c-0.2,0.1-0.3,0.2-0.5,0.3  c0.9,1.6,1.5,3.3,1.5,5.2V43l9.9,4.1l-0.5,1.1l4.2,1.7l-0.2,0.6c-0.8,2.1-2.8,3.4-5.1,3.4c-0.4,0-0.7,0-1.1-0.1l-0.4,1L31.9,52v16.7  c0,0,0,0,0.1,0c3.2,0,5.8,2.6,6,5.9v3.7h-4.2h-3.5H26h-4.2H13V75h0V57.7c-0.2,0.1-0.4,0.1-0.6,0.1H5.5c-1,0-1.9-0.8-1.9-1.9V29.3  C3.6,28.2,4.4,27.4,5.5,27.4z M30.6,35c0.1,0,0.1-0.1,0.2-0.1c0.1-0.1,0.2-0.2,0.3-0.2c0.1-0.1,0.2-0.2,0.3-0.2  c0.1,0,0.1-0.1,0.2-0.2c0.1-0.1,0.2-0.2,0.3-0.3c0,0,0.1,0,0.1-0.1c1.1-1,2.1-2.3,2.8-3.6c0,0,0,0,0,0c0.1-0.2,0.1-0.3,0.2-0.5  c0,0,0-0.1,0.1-0.1c0.1-0.1,0.1-0.3,0.2-0.4c0-0.1,0-0.1,0.1-0.2c0.1-0.2,0.1-0.3,0.2-0.5c0.1-0.2,0.1-0.3,0.1-0.5  c0-0.1,0-0.2,0.1-0.3c0-0.1,0.1-0.3,0.1-0.4c0-0.1,0-0.2,0-0.3c0-0.1,0-0.3,0.1-0.4c0-0.1,0-0.2,0-0.3c0-0.2,0-0.3,0-0.5  c0-0.1,0-0.1,0-0.2c0-0.2,0-0.5,0-0.7c0-0.2,0-0.4,0-0.6c0-0.1,0-0.2,0-0.2c0-0.1,0-0.2,0-0.3c0-0.1,0-0.2,0-0.3c0-0.1,0-0.1,0-0.2  c0-0.1,0-0.2-0.1-0.4c0,0,0,0,0-0.1c-0.1-0.6-0.3-1.3-0.5-1.9c0,0,0,0,0,0c-0.1-0.2-0.1-0.3-0.2-0.4c0,0,0,0,0,0  c-0.1-0.1-0.1-0.3-0.2-0.4c0,0,0,0,0,0c-0.1-0.2-0.2-0.5-0.3-0.7c0-0.1-0.1-0.1-0.1-0.2c0-0.1-0.1-0.1-0.1-0.2  c-0.1-0.1-0.1-0.2-0.2-0.3c0,0,0-0.1-0.1-0.1c-0.1-0.1-0.2-0.3-0.3-0.4c0,0,0,0,0-0.1c-0.1-0.2-0.3-0.4-0.5-0.6c-0.6,0-1,0-1,0  c-6,0-8.4,1.9-9,2.4l-0.1,0.1c-0.1,0.1-0.1,0.1-0.1,0.2c-0.4,0.5-1.2,1.8-1.2,4.4C22.1,29.7,25.8,34.1,30.6,35z M30.7,41.9  c0-1.7-0.5-3.3-1.4-4.7c-1.7,0.8-3.6,1.2-5.6,1.2c-2.7,0-5.3-0.8-7.4-2.2c-1.2,1.5-2,3.4-2,5.4V56c0,0.1,0,0.1,0,0.1v18.1h7.6  c0.2-2.6,2.1-4.7,4.4-5.3V58.7h0.7h0.7v10c0,0,0.1,0,0.1,0c0.7,0,1.5,0.1,2.1,0.4c0.3-0.1,0.5-0.2,0.8-0.3V51.5L22.1,48  c-1-0.4-1.8-1.2-2.3-2.2c-0.4-1-0.4-2.2,0-3.2c0.6-1.6,2.2-2.6,3.9-2.6c0.5,0,1.1,0.1,1.6,0.3l5.5,2.2V41.9z M15.3,35.5  c-0.4-0.3-0.7-0.6-1-0.9V37C14.6,36.5,14.9,36,15.3,35.5z M23.1,74.2h3h0.2h0.7h0.4h0.3h2.5h2.3c-0.2-1.7-1.2-3.1-2.6-3.8  c-0.5-0.2-1-0.4-1.5-0.5c-0.2,0-0.4,0-0.6,0c0,0-0.1,0-0.1,0c-0.2,0-0.5,0-0.7,0.1c-0.2,0-0.5,0.1-0.7,0.2  C24.6,70.8,23.3,72.3,23.1,74.2z M40.2,52.7c1.5,0,2.9-0.8,3.7-2.1l-3-1.2l-1.3,3.2C39.8,52.6,40,52.7,40.2,52.7z M37.8,53.1  l2.2-5.4l-15.3-6.2c-0.4-0.1-0.7-0.2-1.1-0.2c-1.2,0-2.3,0.7-2.7,1.8c-0.3,0.7-0.3,1.5,0,2.2c0.3,0.7,0.9,1.3,1.6,1.6L37.8,53.1z   M33.9,77h2.6v-1.6h-2.6V77z M36.7,74.2c-0.3-2.4-2.3-4.3-4.7-4.3c-0.2,0-0.4,0-0.6,0c1.3,1,2.1,2.5,2.3,4.3H36.7z M14.2,77h7.6H26  h4.1h2.3v-1.6h-2.3H26h0h-4.2h0h-7.6V77z M23.7,37.1c1.9,0,3.7-0.4,5.3-1.2c-4.8-1.5-8.2-6-8.2-11.2c0-2.8,0.8-4.3,1.5-5.1  c0,0,0.1-0.1,0.2-0.3l0.1-0.1c0.9-0.8,3.6-2.8,9.7-2.8c-2.2-2.1-5.3-3.4-8.6-3.4c-6.8,0-12.4,5.4-12.4,12S16.9,37.1,23.7,37.1z   M4.9,56c0,0.3,0.3,0.6,0.6,0.6h6.9c0.3,0,0.6-0.3,0.6-0.6V33.2c-1.1-1.3-1.9-2.9-2.4-4.5H5.5c-0.3,0-0.6,0.3-0.6,0.6V56z"></path></svg>