<?xml version="1.0" encoding="UTF-8" standalone="no"?>
<!DOCTYPE svg PUBLIC "-//W3C//DTD SVG 1.1//EN" "http://www.w3.org/Graphics/SVG/1.1/DTD/svg11.dtd">
<svg width="600" height="570" viewBox="0 0 600 570" version="1.1" xmlns="http://www.w3.org/2000/svg" xmlns:xlink="http://www.w3.org/1999/xlink" xml:space="preserve" xmlns:serif="http://www.serif.com/" style="fill-rule:evenodd;clip-rule:evenodd;stroke-linejoin:round;stroke-miterlimit:2;">
    <g transform="matrix(0.508001,0,0,0.508001,142.774,121.847)">
        <g transform="matrix(0,-4.16667,-4.16667,0,543.98,233.136)">
            <path d="M-15.197,-15.196C-23.712,-15.196 -30.393,-8.425 -30.393,-0.001C-30.393,8.421 -23.712,15.197 -15.197,15.197C-6.684,15.197 -0,8.421 -0,-0.001C-0,-8.425 -6.684,-15.196 -15.197,-15.196" style="fill:rgb(230,121,25);fill-rule:nonzero;"/>
        </g>
        <g transform="matrix(4.16667,0,0,4.16667,538.29,296.654)">
            <path d="M0,29.024C1.13,29.066 1.343,28.683 1.35,27.977L1.341,26.337C1.342,25.491 1.101,25.337 0.322,25.304C-13.075,24.727 -23.563,13.849 -24.019,0.979C-24.037,0.199 -24.189,-0.04 -25.038,-0.04L-26.669,-0.04C-27.383,-0.042 -27.764,0.172 -27.712,1.294C-27.212,15.33 -15.709,28.378 0,29.024" style="fill:rgb(179,178,178);fill-rule:nonzero;"/>
        </g>
        <g transform="matrix(4.16667,0,0,4.16667,535.837,296.777)">
            <path d="M0,41.892C1.627,41.962 1.93,41.422 1.931,40.408L1.937,38.031C1.938,36.804 1.574,36.597 0.459,36.552C-18.895,35.716 -34.03,20.002 -34.684,1.412C-34.738,0.286 -34.936,-0.07 -36.193,-0.07L-38.546,-0.068C-39.563,-0.07 -40.105,0.232 -40.03,1.863C-39.301,22.141 -22.683,40.989 0,41.892" style="fill:rgb(179,178,178);fill-rule:nonzero;"/>
        </g>
        <g transform="matrix(4.16667,0,0,4.16667,549.435,296.341)">
            <path d="M0,-29.019C-1.113,-29.062 -1.335,-28.69 -1.333,-27.976L-1.334,-26.344C-1.335,-25.495 -1.103,-25.35 -0.314,-25.325C13.083,-24.728 23.569,-13.853 24.019,-0.992C24.042,-0.205 24.196,0.037 25.045,0.035L26.686,0.043C27.39,0.036 27.773,-0.176 27.722,-1.297C27.222,-15.33 15.708,-28.39 0,-29.019" style="fill:rgb(179,178,178);fill-rule:nonzero;"/>
        </g>
        <g transform="matrix(4.16667,0,0,4.16667,551.893,296.262)">
            <path d="M0,-41.917C-1.613,-41.973 -1.925,-41.44 -1.915,-40.415L-1.925,-38.069C-1.916,-36.82 -1.574,-36.608 -0.463,-36.576C18.897,-35.731 34.039,-20.022 34.68,-1.435C34.737,-0.296 34.959,0.054 36.199,0.056L38.555,0.054C39.568,0.054 40.109,-0.249 40.032,-1.868C39.316,-22.153 22.699,-41.01 0,-41.917" style="fill:rgb(179,178,178);fill-rule:nonzero;"/>
        </g>
        <g transform="matrix(4.16667,0,0,4.16667,532.891,296.892)">
            <path d="M0,57.253C2.223,57.35 2.637,56.611 2.639,55.226L2.647,51.977C2.648,50.3 2.15,50.018 0.627,49.956C-25.823,48.814 -46.511,27.337 -47.401,1.928C-47.477,0.391 -47.747,-0.097 -49.466,-0.097L-52.681,-0.094C-54.072,-0.097 -54.812,0.315 -54.709,2.545C-53.713,30.26 -31.001,56.018 0,57.253" style="fill:rgb(179,178,178);fill-rule:nonzero;"/>
        </g>
        <g transform="matrix(4.16667,0,0,4.16667,554.835,296.184)">
            <path d="M0,-57.288C-2.204,-57.364 -2.631,-56.636 -2.616,-55.235L-2.63,-52.029C-2.618,-50.323 -2.152,-50.032 -0.632,-49.989C25.827,-48.834 46.521,-27.365 47.396,-1.961C47.475,-0.405 47.778,0.073 49.474,0.076L52.694,0.074C54.078,0.074 54.817,-0.341 54.712,-2.553C53.734,-30.277 31.022,-56.049 0,-57.288" style="fill:rgb(179,178,178);fill-rule:nonzero;"/>
        </g>
        <g transform="matrix(4.16667,0,0,4.16667,-273.292,143.311)">
            <path d="M0,18.556C0.865,19.021 4.855,21.415 11.106,21.415C15.428,21.415 19.152,20.018 19.152,17.225C19.152,13.768 15.628,12.371 10.707,11.44C5.786,10.509 -1.13,9.046 -1.13,1.465C-1.13,-6.116 5.52,-8.045 11.771,-8.045C17.756,-8.045 21.679,-6.182 24.074,-4.719L22.211,0.069C20.283,-1.262 16.559,-2.857 11.771,-2.857C7.98,-2.857 4.389,-1.794 4.389,1.332C4.389,5.189 9.443,5.588 12.037,6.054C20.815,7.716 24.672,11.174 24.672,17.359C24.672,24.275 17.956,26.601 11.106,26.601C5.653,26.601 1.264,25.139 -1.862,23.277L0,18.556Z" style="fill:rgb(28,25,23);fill-rule:nonzero;"/>
        </g>
        <g transform="matrix(4.16667,0,0,4.16667,-122.272,190.42)">
            <path d="M0,-4.056L15.894,-4.056L15.894,-4.455C15.894,-11.304 12.635,-14.163 7.979,-14.163C3.325,-14.163 0,-11.304 0,-4.455L0,-4.056ZM21.546,0.201L0,0.201L0,0.533C0,7.05 3.79,10.109 9.443,10.109C13.565,10.109 17.157,8.779 19.418,7.25L21.28,11.971C18.021,14.099 13.965,15.295 9.443,15.295C0.398,15.295 -5.586,10.442 -5.586,-1.063L-5.586,-2.792C-5.586,-14.496 -0.133,-19.351 7.979,-19.351C16.026,-19.351 21.546,-14.496 21.546,-2.792L21.546,0.201Z" style="fill:rgb(28,25,23);fill-rule:nonzero;"/>
        </g>
        <g transform="matrix(4.16667,0,0,4.16667,-5.06083,240.021)">
            <path d="M0,-28.462C2.593,-29.925 6.982,-31.255 12.568,-31.255C20.947,-31.255 27.066,-26.334 27.066,-14.63L27.066,2.793L21.613,2.793L21.613,-14.962C21.613,-23.275 17.889,-26.067 12.236,-26.067C9.044,-26.067 7.049,-25.469 5.454,-24.804L5.454,2.793L0,2.793L0,-28.462Z" style="fill:rgb(28,25,23);fill-rule:nonzero;"/>
        </g>
        <g transform="matrix(4.16667,0,0,4.16667,157.04,126.971)">
            <path d="M0,14.098C0,22.943 3.791,25.536 9.842,25.536C12.702,25.536 14.696,24.937 16.093,24.272L16.093,2.394C15.162,1.862 13.167,1.064 10.042,1.064C4.057,1.064 0,3.591 0,12.502L0,14.098ZM21.613,27.931C17.955,30.124 12.967,30.723 9.709,30.723C0.731,30.723 -5.52,25.603 -5.52,14.098L-5.52,12.502C-5.52,0.798 0.931,-4.123 9.709,-4.123C12.235,-4.123 14.497,-3.657 16.093,-2.925L16.093,-16.625L21.613,-16.625L21.613,27.931Z" style="fill:rgb(28,25,23);fill-rule:nonzero;"/>
        </g>
        <g transform="matrix(4.16667,0,0,4.16667,300.296,190.42)">
            <path d="M0,-4.056L15.894,-4.056L15.894,-4.455C15.894,-11.304 12.635,-14.163 7.98,-14.163C3.326,-14.163 0,-11.304 0,-4.455L0,-4.056ZM21.546,0.201L0,0.201L0,0.533C0,7.05 3.791,10.109 9.443,10.109C13.567,10.109 17.158,8.779 19.418,7.25L21.281,11.971C18.022,14.099 13.965,15.295 9.443,15.295C0.399,15.295 -5.585,10.442 -5.585,-1.063L-5.585,-2.792C-5.585,-14.496 -0.133,-19.351 7.98,-19.351C16.028,-19.351 21.546,-14.496 21.546,-2.792L21.546,0.201Z" style="fill:rgb(28,25,23);fill-rule:nonzero;"/>
        </g>
        <g transform="matrix(4.16667,0,0,4.16667,415.02,240.021)">
            <path d="M0,-28.462C2.46,-29.925 6.782,-31.255 11.238,-31.255C13.965,-31.255 16.426,-30.723 18.354,-29.726L16.159,-24.804C14.829,-25.602 13.3,-26.067 11.238,-26.067C8.578,-26.067 6.716,-25.337 5.452,-24.804L5.452,2.793L0,2.793L0,-28.462Z" style="fill:rgb(28,25,23);fill-rule:nonzero;"/>
        </g>
        <g transform="matrix(4.16667,0,0,4.16667,713.571,523.899)">
            <path d="M0,-28.462C2.395,-29.925 6.517,-31.255 11.571,-31.255C15.494,-31.255 18.887,-29.991 21.213,-27.331C23.275,-29.26 26.733,-31.255 31.188,-31.255C38.97,-31.255 44.755,-26.334 44.755,-14.63L44.755,2.793L39.302,2.793L39.302,-14.962C39.302,-23.275 35.91,-26.067 30.856,-26.067C27.332,-26.067 25.137,-24.405 23.873,-23.075C24.604,-20.946 25.07,-18.355 25.07,-15.295L25.07,2.793L19.618,2.793L19.618,-15.627C19.618,-23.474 16.293,-26.067 11.238,-26.067C8.578,-26.067 6.783,-25.47 5.453,-24.804L5.453,2.793L0,2.793L0,-28.462Z" style="fill:rgb(28,25,23);fill-rule:nonzero;"/>
        </g>
        <g transform="matrix(4.16667,0,0,4.16667,607.277,485.388)">
            <path d="M0,-23.276C0,-32.187 4.788,-35.312 11.238,-35.312C15.096,-35.312 18.554,-34.115 21.214,-31.987L19.086,-27.2C17.157,-28.996 14.43,-30.126 11.238,-30.126C7.78,-30.126 5.453,-28.464 5.453,-23.342L5.453,-21.215L18.421,-21.215L18.421,-16.027L5.453,-16.027L5.453,12.036L0,12.036L0,-23.276Z" style="fill:rgb(28,25,23);fill-rule:nonzero;"/>
        </g>
    </g>
</svg>
