<?xml version="1.0" encoding="UTF-8" standalone="no"?>
<!DOCTYPE svg PUBLIC "-//W3C//DTD SVG 1.1//EN" "http://www.w3.org/Graphics/SVG/1.1/DTD/svg11.dtd">
<svg width="100%" height="100%" viewBox="0 0 600 570" version="1.1" xmlns="http://www.w3.org/2000/svg" xmlns:xlink="http://www.w3.org/1999/xlink" xml:space="preserve" xmlns:serif="http://www.serif.com/" style="fill-rule:evenodd;clip-rule:evenodd;stroke-linejoin:round;stroke-miterlimit:2;">
    <g transform="matrix(19.3864,-2.46403,1.12371,8.84107,-4780.51,-981.139)">
        <g transform="matrix(19.367,0,0,42.4673,232.904,227.313)">
            <path d="M0.033,-0.722L0.01,-0.722C0.006,-0.724 0.004,-0.726 0.004,-0.728C0.004,-0.73 0.006,-0.732 0.01,-0.734L0.161,-0.734C0.163,-0.734 0.164,-0.734 0.165,-0.733C0.166,-0.732 0.167,-0.73 0.167,-0.728C0.167,-0.726 0.166,-0.725 0.165,-0.723C0.164,-0.722 0.163,-0.722 0.161,-0.722L0.135,-0.722L0.181,-0.229L0.228,-0.677L0.223,-0.722L0.199,-0.722C0.197,-0.722 0.196,-0.722 0.195,-0.723C0.193,-0.725 0.193,-0.726 0.193,-0.728C0.193,-0.73 0.193,-0.732 0.195,-0.733C0.196,-0.734 0.197,-0.734 0.199,-0.734L0.352,-0.734C0.356,-0.732 0.357,-0.73 0.357,-0.728C0.357,-0.726 0.356,-0.724 0.352,-0.722L0.324,-0.722L0.371,-0.229L0.418,-0.667C0.419,-0.671 0.419,-0.676 0.419,-0.68C0.419,-0.691 0.417,-0.7 0.414,-0.707C0.411,-0.714 0.406,-0.718 0.4,-0.721L0.385,-0.723C0.383,-0.724 0.382,-0.725 0.382,-0.728C0.382,-0.73 0.384,-0.732 0.388,-0.734L0.469,-0.734C0.472,-0.732 0.474,-0.73 0.474,-0.728C0.474,-0.726 0.474,-0.725 0.473,-0.724C0.472,-0.723 0.471,-0.722 0.469,-0.722C0.46,-0.721 0.453,-0.716 0.446,-0.707C0.437,-0.695 0.432,-0.68 0.43,-0.662L0.365,-0.054C0.361,-0.025 0.359,-0.009 0.356,-0.004C0.354,-0.001 0.351,-0 0.347,-0L0.312,-0C0.307,-0 0.303,-0.002 0.301,-0.006L0.295,-0.06L0.233,-0.62L0.175,-0.054C0.172,-0.023 0.169,-0.007 0.168,-0.005C0.166,-0.002 0.162,-0 0.156,-0L0.121,-0C0.117,-0 0.114,-0.001 0.112,-0.004C0.111,-0.006 0.109,-0.021 0.106,-0.048L0.033,-0.722Z" style="fill:rgb(204,204,204);fill-opacity:0.4;fill-rule:nonzero;"/>
        </g>
        <g transform="matrix(19.367,0,0,42.4673,243.638,227.313)">
            <path d="M0.122,-0.734L0.122,-0.484C0.135,-0.502 0.147,-0.514 0.157,-0.52C0.168,-0.527 0.18,-0.53 0.194,-0.53C0.216,-0.53 0.231,-0.524 0.24,-0.513C0.253,-0.497 0.26,-0.473 0.26,-0.441L0.26,-0.013L0.277,-0.013C0.281,-0.01 0.282,-0.008 0.282,-0.006C0.282,-0.004 0.281,-0.002 0.277,-0L0.161,-0C0.158,-0.002 0.157,-0.004 0.157,-0.006C0.157,-0.009 0.158,-0.011 0.161,-0.013L0.172,-0.013L0.172,-0.467C0.172,-0.479 0.17,-0.487 0.167,-0.491C0.165,-0.494 0.161,-0.496 0.157,-0.496C0.149,-0.496 0.142,-0.492 0.136,-0.482C0.126,-0.469 0.122,-0.45 0.122,-0.427L0.122,-0.013L0.135,-0.013C0.138,-0.01 0.14,-0.008 0.14,-0.006C0.14,-0.004 0.138,-0.002 0.135,-0L0.014,-0L0.012,-0.001L0.01,-0.006C0.01,-0.009 0.012,-0.011 0.014,-0.013L0.036,-0.013L0.036,-0.722L0.014,-0.722C0.011,-0.724 0.009,-0.726 0.009,-0.728C0.009,-0.73 0.011,-0.732 0.014,-0.734L0.122,-0.734Z" style="fill:rgb(204,204,204);fill-opacity:0.4;fill-rule:nonzero;"/>
        </g>
        <g transform="matrix(19.367,0,0,42.4673,250.732,227.313)">
            <path d="M0.025,-0.689C0.025,-0.703 0.03,-0.715 0.04,-0.725C0.05,-0.735 0.062,-0.74 0.076,-0.74C0.09,-0.74 0.103,-0.735 0.113,-0.725C0.123,-0.715 0.128,-0.703 0.128,-0.689C0.128,-0.675 0.123,-0.662 0.113,-0.652C0.103,-0.642 0.09,-0.637 0.076,-0.637C0.062,-0.637 0.05,-0.642 0.04,-0.652C0.03,-0.662 0.025,-0.675 0.025,-0.689ZM0.032,-0.511L0.013,-0.511C0.011,-0.511 0.01,-0.512 0.009,-0.513C0.007,-0.514 0.007,-0.516 0.007,-0.518C0.007,-0.52 0.007,-0.521 0.009,-0.522C0.01,-0.523 0.011,-0.524 0.013,-0.524L0.119,-0.524L0.119,-0.013L0.14,-0.013C0.142,-0.013 0.144,-0.012 0.145,-0.011C0.146,-0.01 0.146,-0.008 0.146,-0.006C0.146,-0.004 0.146,-0.003 0.145,-0.002C0.144,-0.001 0.142,-0 0.14,-0L0.013,-0C0.01,-0.002 0.008,-0.004 0.008,-0.006C0.008,-0.009 0.01,-0.011 0.013,-0.013L0.032,-0.013L0.032,-0.511Z" style="fill:rgb(204,204,204);fill-opacity:0.4;fill-rule:nonzero;"/>
        </g>
        <g transform="matrix(19.367,0,0,42.4673,255.217,227.313)">
            <path d="M0.043,-0.511L0.021,-0.511C0.018,-0.511 0.015,-0.512 0.014,-0.513C0.012,-0.514 0.011,-0.516 0.011,-0.518C0.011,-0.52 0.013,-0.523 0.016,-0.525C0.043,-0.547 0.063,-0.568 0.075,-0.589C0.088,-0.61 0.098,-0.634 0.108,-0.662C0.115,-0.682 0.118,-0.696 0.119,-0.704L0.12,-0.727C0.121,-0.728 0.122,-0.729 0.124,-0.729C0.126,-0.729 0.128,-0.729 0.129,-0.728C0.13,-0.727 0.13,-0.725 0.13,-0.724L0.13,-0.524L0.203,-0.524C0.206,-0.524 0.208,-0.523 0.209,-0.522C0.211,-0.521 0.211,-0.519 0.211,-0.518C0.211,-0.516 0.211,-0.514 0.209,-0.513C0.208,-0.512 0.206,-0.511 0.203,-0.511L0.13,-0.511L0.13,-0.057C0.13,-0.043 0.132,-0.033 0.136,-0.028C0.139,-0.024 0.143,-0.022 0.148,-0.022C0.159,-0.022 0.169,-0.028 0.177,-0.041C0.19,-0.06 0.196,-0.089 0.196,-0.128L0.196,-0.199C0.196,-0.204 0.197,-0.207 0.199,-0.21C0.201,-0.212 0.202,-0.212 0.204,-0.212C0.206,-0.212 0.208,-0.212 0.209,-0.21C0.211,-0.207 0.212,-0.204 0.212,-0.199L0.212,-0.145C0.212,-0.09 0.203,-0.051 0.186,-0.028C0.168,-0.006 0.147,0.006 0.121,0.006C0.096,0.006 0.078,-0.001 0.067,-0.014C0.051,-0.032 0.043,-0.057 0.043,-0.09L0.043,-0.511Z" style="fill:rgb(204,204,204);fill-opacity:0.4;fill-rule:nonzero;"/>
        </g>
        <g transform="matrix(19.367,0,0,42.4673,260.939,227.313)">
            <path d="M0.101,-0.26L0.101,-0.079C0.101,-0.05 0.104,-0.032 0.11,-0.022C0.115,-0.016 0.123,-0.012 0.134,-0.012C0.153,-0.012 0.169,-0.022 0.183,-0.043C0.207,-0.077 0.22,-0.125 0.221,-0.184C0.222,-0.204 0.222,-0.215 0.224,-0.217C0.225,-0.22 0.227,-0.221 0.23,-0.221C0.232,-0.221 0.234,-0.22 0.235,-0.218C0.237,-0.216 0.238,-0.209 0.238,-0.2C0.238,-0.142 0.228,-0.093 0.207,-0.053C0.187,-0.014 0.16,0.006 0.125,0.006C0.093,0.006 0.066,-0.009 0.045,-0.04C0.024,-0.07 0.013,-0.136 0.013,-0.238L0.013,-0.31C0.013,-0.387 0.028,-0.446 0.056,-0.487C0.077,-0.515 0.101,-0.53 0.13,-0.53C0.165,-0.53 0.191,-0.511 0.21,-0.475C0.229,-0.438 0.238,-0.393 0.238,-0.34L0.238,-0.26L0.101,-0.26ZM0.151,-0.273L0.151,-0.481C0.151,-0.495 0.149,-0.505 0.144,-0.512C0.14,-0.517 0.135,-0.519 0.127,-0.519C0.12,-0.519 0.114,-0.516 0.109,-0.51C0.103,-0.504 0.101,-0.494 0.101,-0.481L0.101,-0.273L0.151,-0.273Z" style="fill:rgb(204,204,204);fill-opacity:0.4;fill-rule:nonzero;"/>
        </g>
    </g>
    <g transform="matrix(1.04809,0,0,1.04809,274.036,-174.508)">
        <g transform="matrix(2.95533,0,0,2.95533,-122.994,148.699)">
            <path d="M50.078,80.683C50.078,83.106 55.132,85.274 56.169,85.541C57.205,85.809 56.888,86.99 59.656,86.414C62.423,85.837 65.412,83.181 68.261,79.517C71.11,75.853 69.025,73.224 66.9,70.435C64.775,67.646 60.169,64.412 59.656,58.155C59.252,53.234 63.3,53.047 64.996,52.876C66.693,52.705 69.497,54.85 70.654,54.602C71.76,54.366 76.418,58.834 76.929,57.234C76.642,55.298 77.838,54.264 79.448,54.2C81.057,54.136 81.623,56.773 82.356,58.155C83.259,59.861 83.998,58.66 84.146,57.229C84.538,53.415 83.26,49.493 83.911,46.972C84.277,45.555 85.282,45.386 86.792,43.731C90.77,39.372 90.818,32.915 89.923,29.827C90.954,28.574 92.317,28.571 92.521,21.538C92.726,14.505 87.451,8.531 86.038,7.721C84.624,6.91 80.605,7.633 79.555,8.51C78.506,9.387 66.486,19.391 64.996,21.1C63.507,22.81 62.752,23.616 63.556,27.206C60.728,24.559 56.073,22.692 50.078,23.64C44.083,22.692 39.427,24.559 36.6,27.206C37.403,23.616 36.649,22.81 35.159,21.1C33.669,19.391 21.65,9.387 20.6,8.51C19.551,7.633 15.532,6.91 14.118,7.721C12.704,8.531 7.43,14.505 7.634,21.538C7.838,28.571 9.201,28.574 10.233,29.827C9.337,32.915 9.385,39.372 13.363,43.731C14.874,45.386 15.878,45.555 16.245,46.972C16.896,49.493 15.617,53.415 16.01,57.229C16.157,58.66 16.896,59.861 17.8,58.155C18.532,56.773 19.099,54.136 20.708,54.2C22.317,54.264 23.514,55.298 23.227,57.234C23.737,58.834 28.396,54.366 29.502,54.602C30.659,54.85 33.462,52.705 35.159,52.876C36.856,53.047 40.904,53.234 40.5,58.155C39.987,64.412 35.381,67.646 33.256,70.435C31.13,73.224 29.046,75.853 31.894,79.517C34.743,83.181 37.732,85.837 40.5,86.414C43.268,86.99 42.951,85.809 43.987,85.541C45.023,85.274 50.078,83.106 50.078,80.683C50.078,78.259 50.078,78.259 50.078,80.683Z" style="fill:rgb(230,121,25);"/>
            <path d="M50,86.57C52.004,86.57 56.013,85.541 56.013,85.541C57.049,85.809 56.732,86.99 59.5,86.414C59.5,86.414 60.917,86.187 61.043,87.1C61.17,88.013 60.255,90.034 57.757,91.5C55.258,92.966 52.642,92.872 50,92.901C47.358,92.872 44.742,92.966 42.243,91.5C39.745,90.034 38.83,88.013 38.957,87.1C39.083,86.187 40.5,86.414 40.5,86.414C43.268,86.99 42.951,85.809 43.987,85.541C43.987,85.541 47.996,86.57 50,86.57Z" style="fill:rgb(134,131,131);"/>
            <path d="M43.987,85.541C45.023,85.274 50.078,83.106 50.078,80.683C50.078,78.259 50.078,78.259 50.078,80.683C50.078,83.106 55.132,85.274 56.169,85.541" style="fill:rgb(214,183,14);"/>
            <g transform="matrix(-1,0,0,1,100.127,0)">
                <path d="M68.261,79.517C71.11,75.853 69.025,73.224 66.9,70.435C64.775,67.646 60.169,64.412 59.656,58.155C59.252,53.234 63.3,53.047 64.996,52.876C66.693,52.705 69.497,54.85 70.654,54.602C71.76,54.366 76.418,58.834 76.929,57.234C76.642,55.298 77.838,54.264 79.448,54.2C81.057,54.136 81.653,56.677 82.356,58.155C84.324,62.293 81.847,65.747 79.773,68.892C77.424,72.452 68.261,79.517 68.261,79.517Z" style="fill:rgb(134,131,131);"/>
            </g>
            <path d="M68.261,79.517C71.11,75.853 69.025,73.224 66.9,70.435C64.775,67.646 60.169,64.412 59.656,58.155C59.252,53.234 63.3,53.047 64.996,52.876C66.693,52.705 69.497,54.85 70.654,54.602C71.76,54.366 76.418,58.834 76.929,57.234C76.642,55.298 77.838,54.264 79.448,54.2C81.057,54.136 81.653,56.677 82.356,58.155C84.324,62.293 81.847,65.747 79.773,68.892C77.424,72.452 68.261,79.517 68.261,79.517Z" style="fill:rgb(134,131,131);"/>
            <path d="M43.987,85.541C45.023,85.274 50.078,83.106 50.078,80.683C50.078,78.259 50.078,78.259 50.078,80.683C50.078,83.106 55.132,85.274 56.169,85.541C56.169,85.541 52.03,86.57 50,86.57C47.996,86.57 43.987,85.541 43.987,85.541Z" style="fill:rgb(232,163,236);"/>
            <g>
                <g transform="matrix(-1,0,0,1,100.127,0)">
                    <path d="M60.195,60.954C59.927,60.092 59.738,59.163 59.656,58.155C59.252,53.234 63.3,53.047 64.996,52.876C66.693,52.705 69.497,54.85 70.654,54.602C70.654,54.602 69.967,56.613 70.404,58.155C70.842,59.696 70.041,63.351 65.402,63.351C60.762,63.351 60.195,60.954 60.195,60.954Z" style="fill:rgb(23,181,63);"/>
                </g>
                <path d="M60.195,60.954C59.927,60.092 59.738,59.163 59.656,58.155C59.252,53.234 63.3,53.047 64.996,52.876C66.693,52.705 69.497,54.85 70.654,54.602C70.654,54.602 69.967,56.613 70.404,58.155C70.842,59.696 70.041,63.351 65.402,63.351C60.762,63.351 60.195,60.954 60.195,60.954Z" style="fill:rgb(23,181,63);"/>
            </g>
        </g>
        <g transform="matrix(2.95533,0,0,2.95533,-196.878,125.485)">
            <path d="M114.4,17.155C111,12.755 107.7,13.855 105.9,14.455C105.6,14.555 105.4,14.655 105.1,14.655C104,14.855 101.1,16.955 90,27.055L89.4,27.555C87.7,29.055 87,30.655 86.7,31.855C85.3,31.155 83,30.455 79.7,30.155C77.8,29.955 75.6,30.055 74.9,30.155C74.2,30.155 72,29.955 70.1,30.155C66.8,30.455 64.5,31.155 63.1,31.855C62.8,30.555 62.1,29.055 60.4,27.555L59.8,27.055C48.9,16.955 46,14.855 44.9,14.655C44.7,14.655 44.4,14.555 44.1,14.455C42.3,13.855 39,12.755 35.6,17.155C32,21.855 29.3,32.155 33.1,36.755C33.5,37.155 33.8,37.555 34,37.855L33.9,38.155C33.8,38.355 32.2,43.155 35.3,49.155C36.6,51.755 37.9,52.955 38.9,53.855C40,54.955 40.5,55.355 40.4,57.455C40.2,60.555 39.7,62.655 39.7,62.655L39.7,63.055C39.7,63.355 39.9,71.455 44.7,77.455C49.1,82.955 52,86.055 55.6,87.655C56.9,90.055 59.2,92.555 61.8,94.155C61.9,94.255 62.1,94.355 62.4,94.555C63.3,97.455 66,101.855 71.4,101.855L74.4,101.855C74.4,101.855 76.1,101.855 79.1,101.755C84.6,101.655 87.3,97.255 88.1,94.455C88.3,94.355 88.5,94.155 88.6,94.155C91.2,92.655 93.6,90.055 94.9,87.655C98.5,86.055 101.4,82.955 105.8,77.455C110.6,71.455 110.8,63.455 110.8,63.055L110.8,62.655C110.8,62.655 110.3,60.855 110.1,57.455C110,55.355 110.4,54.955 111.5,53.855C112.4,52.955 113.7,51.655 115.1,49.155C118.2,43.155 116.5,38.355 116.5,38.155L116,37.855C116.2,37.555 116.5,37.155 116.9,36.655C120.7,32.155 118,21.855 114.4,17.155ZM78.8,99.255C75.9,99.355 74.2,99.355 74.2,99.355C73.6,99.255 72.6,99.255 71.2,99.255C68.2,99.255 66.5,97.455 65.5,95.855L65.9,95.855C66.4,95.855 66.9,95.755 67.5,95.555C68,95.355 68.4,95.155 68.9,94.955C69.9,95.455 72,96.155 75.1,95.955L76.2,95.955C78.7,95.955 80.4,95.355 81.3,94.955C81.8,95.155 82.3,95.355 82.7,95.555C83.3,95.855 84,95.855 84.6,95.855C83.5,97.455 81.8,99.155 78.8,99.255ZM75,91.255C75.3,91.655 75.6,91.955 75.9,92.155C76.4,92.455 77.1,92.855 77.8,93.255C77,93.355 76.1,93.455 75.1,93.355L74.9,93.355C73.8,93.455 72.9,93.355 72.2,93.255C72.9,92.855 73.6,92.455 74.1,92.155C74.4,91.955 74.7,91.655 75,91.255ZM115,35.155C113.4,37.055 112.4,38.555 113.3,39.655C113.4,39.755 113.6,40.055 114,40.155C114.2,41.655 114.4,44.655 112.6,48.155C111.5,50.355 110.4,51.355 109.5,52.255C108.2,53.455 107.1,54.555 107.3,57.855C107.5,60.855 107.9,62.755 108,63.355C107.2,62.455 106.4,61.655 105.8,60.855C104.2,58.655 103.3,60.255 100.9,61.955C98.4,63.555 101.1,64.555 98.1,62.655C97.1,62.055 96,61.655 95,61.455C94.6,60.955 94.2,60.555 93.7,60.255L93.4,60.155C93.1,60.055 86.8,58.155 84.1,62.455C83.3,63.155 81.3,65.455 83.9,70.255C84.9,72.055 86.6,74.055 88.2,75.955C89,76.955 89.9,77.955 90.6,78.955C90.1,78.755 89.5,78.555 88.9,78.555C84.8,78.055 85.5,80.955 85.5,80.955C86,82.855 86.7,82.555 87.4,81.955C88.1,81.355 89.9,81.755 92,81.955C92.2,81.955 92.4,81.955 92.5,81.855C92.9,82.655 93.1,83.355 93.2,84.055C92.3,84.155 90.8,84.555 88.9,84.455C86,84.355 84.2,85.355 84.2,85.355C84.8,88.255 87.8,85.955 90.1,86.255C91.2,86.455 92.2,86.255 92.9,85.855C92,87.855 89.8,90.555 87.1,92.055L86.9,92.155C86.9,92.155 85.1,93.755 83.7,93.155C81.6,92.255 78.9,90.855 77.5,89.955C77,89.655 76.7,88.555 76.5,87.555L76.5,87.455C77.7,87.655 79.2,87.655 79.8,87.155C80.8,86.455 81.1,84.455 81.1,84.455C81.1,84.455 80.2,85.455 79.7,84.455C79.1,83.455 80.1,81.355 80.6,81.355C81,81.355 82.7,81.355 81.7,79.355C80.7,77.455 76,79.355 75.3,79.555C74.6,79.255 69.8,77.455 68.9,79.355C67.9,81.355 69.6,81.355 70,81.355C70.4,81.355 71.4,83.455 70.9,84.455C70.3,85.455 69.5,84.455 69.5,84.455C69.5,84.455 69.7,86.355 70.8,87.155C71.4,87.655 73,87.655 74.1,87.455L74.1,87.555C73.9,88.555 73.6,89.655 73.1,89.955C71.7,90.855 69,92.255 66.9,93.155C65.8,93.655 64.1,92.455 63.6,92.055L63,91.955C60.3,90.355 58.1,87.755 57.3,85.755C58,86.155 58.9,86.255 60.1,86.155C62.4,85.855 65.4,88.155 66,85.255C66,85.255 64.2,84.255 61.3,84.355C59.4,84.455 57.9,83.955 57,83.955C57.1,83.255 57.3,82.555 57.7,81.755C57.9,81.755 58,81.855 58.2,81.855C60.3,81.755 62.1,81.255 62.8,81.855C63.5,82.455 64.2,82.755 64.7,80.855C64.7,80.855 65.4,78.055 61.3,78.455C60.6,78.555 60.1,78.655 59.6,78.855C60.4,77.855 61.2,76.855 62,75.855C63.6,73.955 65.3,71.955 66.3,70.155C68.9,65.355 66.9,63.055 66.1,62.355C63.4,57.955 57,59.955 56.8,60.055L56.5,60.155C56,60.455 55.6,60.855 55.2,61.355C54.2,61.555 53.1,61.855 52.1,62.555C49.1,64.455 51.7,63.455 49.3,61.855C46.8,60.255 46,58.555 44.4,60.755C43.8,61.555 43,62.455 42.2,63.255C42.3,62.655 42.8,60.655 42.9,57.755C43.1,54.455 42,53.455 40.7,52.155C39.8,51.355 38.8,50.255 37.6,48.055C35.8,44.555 35.9,41.555 36.2,40.055C36.6,39.955 36.8,39.755 36.9,39.555C37.8,38.455 36.8,37.055 35.2,35.055C32.5,31.755 34.4,23.055 37.8,18.655C40.1,15.655 41.9,16.255 43.5,16.855C43.9,16.955 44.3,17.155 44.5,17.155C45.2,17.455 48.2,19.655 58.4,28.955L59,29.455C61.5,31.655 60.9,33.755 60.9,33.855L59.4,38.855L63,35.155C63,35.155 64,34.255 66.5,33.455C66.4,34.355 66,35.555 65.1,37.255C62.8,41.655 59.5,48.655 60.7,52.455C61.9,56.255 64.7,58.755 64.7,58.755C64.7,58.755 67.4,57.555 66.3,56.155C65.1,54.655 65.5,51.755 63.9,49.755C62.3,47.755 63.7,47.755 65.3,44.255C66.7,41.155 70.2,35.355 69.9,32.955C70.1,32.955 70.4,32.855 70.6,32.855C72.3,32.655 74.6,32.855 75.1,32.855L75.3,32.855C75.8,32.855 78,32.755 79.8,32.855C80,32.855 80.3,32.855 80.5,32.955C80.2,35.355 83.7,41.155 85.1,44.255C86.7,47.755 88.1,47.755 86.5,49.755C84.9,51.755 85.3,54.755 84.1,56.155C82.9,57.655 85.7,58.755 85.7,58.755C85.7,58.755 88.5,56.255 89.7,52.455C90.9,48.655 87.6,41.655 85.3,37.255C84.4,35.555 84,34.355 83.9,33.455C86.4,34.155 87.3,35.055 87.3,35.055L91.1,39.255L89.3,33.855C89.3,33.855 88.7,31.655 91.2,29.455L91.8,28.955C101.9,19.655 104.9,17.455 105.6,17.155C105.9,17.055 106.3,16.955 106.7,16.855C108.3,16.355 110.1,15.755 112.4,18.655C115.8,23.055 117.6,31.855 115,35.155ZM56.06,79.387C55.244,79.454 55.398,79.149 54.605,78.853C54.046,78.644 53.628,78.813 53.425,79.29C53.232,79.741 53.334,80.31 53.76,80.637C54.172,80.954 54.58,81.199 55.014,81.387C54.626,82.321 54.4,83.246 54.4,84.155C52,82.455 49.7,79.855 46.5,75.855C44.5,73.355 43.4,70.455 42.8,68.055C43.3,67.755 43.8,67.155 44.1,66.055C44.8,62.955 47.4,63.655 46.7,65.355C46,67.055 47.1,68.655 49.4,66.855C50.5,65.955 52.1,64.655 53.8,63.555C53.2,65.055 53.1,66.755 53.5,68.255C54.2,70.855 56.2,72.355 59.1,72.555L59.7,72.555C60.4,72.555 61,72.455 61.6,72.355C61.1,72.955 60.6,73.555 60,74.255C58.559,75.953 57.119,77.677 56.06,79.387ZM95.08,81.413C95.537,81.222 95.964,80.969 96.396,80.637C96.822,80.31 96.923,79.741 96.731,79.29C96.527,78.813 96.11,78.644 95.55,78.853C94.727,79.161 94.925,79.477 93.998,79.378C92.926,77.671 91.487,75.95 90.1,74.255C89.6,73.655 89,72.955 88.6,72.355C89.2,72.455 89.8,72.555 90.5,72.555L91.1,72.555C94,72.455 96,70.855 96.7,68.255C97.1,66.755 96.9,65.055 96.4,63.555C98.1,64.655 99.7,66.055 100.8,66.855C103,68.555 104.2,66.955 103.5,65.355C102.8,63.655 105.4,62.955 106.1,66.055C106.3,67.155 106.8,67.755 107.4,68.055C106.6,70.455 105.5,73.355 103.5,75.855C100.3,79.855 98,82.455 95.7,84.155C95.7,83.254 95.47,82.338 95.08,81.413ZM89.8,68.755C90.7,68.755 91.4,67.155 91.4,65.255C91.4,63.755 91,62.555 90.4,62.055C91.3,62.155 92.1,62.255 92.4,62.355C93.7,63.255 94.5,65.755 94.1,67.555C93.7,69.055 92.6,69.855 90.9,69.955C88.5,70.055 86.7,69.355 85.9,68.055C85.1,66.855 85.2,65.355 86,63.855C86.7,62.655 87.9,62.155 89.1,62.055C88.5,62.555 88.1,63.855 88.1,65.255C88.2,67.255 88.9,68.755 89.8,68.755ZM60.2,68.755C61.1,68.755 61.8,67.155 61.8,65.255C61.8,63.755 61.4,62.555 60.8,62.055C62,62.155 63.3,62.555 63.9,63.855C64.7,65.355 64.8,66.955 64.1,68.055C63.3,69.355 61.5,70.055 59.1,69.955C57.4,69.855 56.3,69.055 55.9,67.555C55.4,65.755 56.2,63.255 57.6,62.355C57.9,62.255 58.7,62.055 59.6,62.055C59,62.555 58.6,63.855 58.6,65.255C58.6,67.255 59.3,68.755 60.2,68.755Z" style="fill-rule:nonzero;"/>
        </g>
    </g>
    <g transform="matrix(2.17737,-9.80598e-18,-4.17075e-18,2.21302,-156.666,173.644)">
        <g transform="matrix(76.453,0,0,75.2214,73.1023,176.391)">
            <path d="M0.384,-0.55C0.363,-0.607 0.322,-0.636 0.263,-0.636C0.232,-0.636 0.207,-0.627 0.188,-0.609C0.169,-0.591 0.159,-0.57 0.159,-0.546C0.159,-0.521 0.167,-0.501 0.182,-0.486C0.197,-0.47 0.215,-0.456 0.238,-0.443C0.261,-0.43 0.285,-0.418 0.311,-0.407C0.337,-0.395 0.361,-0.381 0.384,-0.364C0.407,-0.347 0.426,-0.326 0.441,-0.302C0.456,-0.277 0.463,-0.246 0.463,-0.208C0.463,-0.175 0.457,-0.144 0.444,-0.117C0.431,-0.089 0.413,-0.065 0.39,-0.046C0.367,-0.026 0.339,-0.011 0.307,-0.001C0.274,0.01 0.238,0.015 0.198,0.015C0.162,0.015 0.13,0.011 0.102,0.004C0.073,-0.004 0.052,-0.014 0.037,-0.025C0.044,-0.048 0.049,-0.07 0.054,-0.089C0.059,-0.108 0.063,-0.129 0.066,-0.152L0.085,-0.152C0.088,-0.137 0.093,-0.124 0.1,-0.111C0.107,-0.097 0.117,-0.086 0.128,-0.076C0.139,-0.066 0.153,-0.058 0.169,-0.053C0.185,-0.047 0.203,-0.044 0.223,-0.044C0.263,-0.044 0.293,-0.054 0.312,-0.074C0.331,-0.094 0.34,-0.118 0.34,-0.146C0.34,-0.171 0.333,-0.192 0.318,-0.208C0.303,-0.224 0.285,-0.238 0.263,-0.251C0.241,-0.263 0.217,-0.275 0.191,-0.287C0.165,-0.298 0.141,-0.312 0.119,-0.329C0.097,-0.346 0.079,-0.366 0.064,-0.391C0.049,-0.415 0.042,-0.446 0.042,-0.484C0.042,-0.519 0.048,-0.549 0.061,-0.576C0.073,-0.603 0.089,-0.625 0.11,-0.643C0.131,-0.661 0.155,-0.675 0.182,-0.684C0.209,-0.693 0.237,-0.698 0.267,-0.698C0.303,-0.698 0.335,-0.694 0.362,-0.685C0.389,-0.676 0.412,-0.664 0.431,-0.649C0.425,-0.634 0.42,-0.619 0.416,-0.605C0.411,-0.59 0.406,-0.572 0.399,-0.55L0.384,-0.55Z" style="fill:rgb(134,131,131);fill-rule:nonzero;"/>
        </g>
        <g transform="matrix(76.453,0,0,75.2214,112.464,176.391)">
            <path d="M0.634,-0.362C0.634,-0.405 0.629,-0.444 0.618,-0.479C0.607,-0.513 0.592,-0.542 0.574,-0.566C0.555,-0.59 0.532,-0.608 0.505,-0.622C0.478,-0.635 0.448,-0.641 0.416,-0.641C0.382,-0.641 0.352,-0.633 0.325,-0.617C0.298,-0.6 0.275,-0.578 0.256,-0.55C0.237,-0.522 0.223,-0.489 0.214,-0.452C0.204,-0.414 0.199,-0.374 0.199,-0.331C0.199,-0.278 0.205,-0.233 0.216,-0.196C0.227,-0.159 0.243,-0.13 0.262,-0.108C0.281,-0.085 0.304,-0.069 0.329,-0.059C0.354,-0.049 0.381,-0.044 0.409,-0.044C0.439,-0.044 0.468,-0.05 0.495,-0.063C0.522,-0.076 0.546,-0.095 0.567,-0.121C0.587,-0.147 0.603,-0.18 0.616,-0.22C0.628,-0.26 0.634,-0.307 0.634,-0.362ZM0.035,-0.34C0.035,-0.389 0.044,-0.436 0.063,-0.479C0.081,-0.522 0.107,-0.56 0.14,-0.593C0.173,-0.626 0.214,-0.651 0.261,-0.67C0.308,-0.689 0.361,-0.698 0.419,-0.698C0.472,-0.698 0.522,-0.691 0.568,-0.676C0.614,-0.661 0.654,-0.639 0.688,-0.61C0.722,-0.581 0.749,-0.544 0.769,-0.499C0.788,-0.454 0.798,-0.401 0.798,-0.341C0.798,-0.291 0.789,-0.244 0.77,-0.201C0.751,-0.158 0.724,-0.12 0.691,-0.088C0.657,-0.055 0.617,-0.03 0.57,-0.012C0.523,0.006 0.472,0.015 0.416,0.015C0.363,0.015 0.314,0.008 0.268,-0.005C0.221,-0.018 0.181,-0.039 0.147,-0.068C0.112,-0.096 0.085,-0.133 0.065,-0.179C0.045,-0.224 0.035,-0.277 0.035,-0.34Z" style="fill:rgb(134,131,131);fill-rule:nonzero;"/>
        </g>
        <g transform="matrix(76.453,0,0,75.2214,177.285,176.391)">
            <path d="M0.63,-0.111C0.625,-0.097 0.62,-0.083 0.616,-0.069C0.612,-0.054 0.609,-0.04 0.608,-0.026C0.554,0.001 0.486,0.015 0.404,0.015C0.346,0.015 0.294,0.007 0.249,-0.01C0.203,-0.026 0.164,-0.049 0.133,-0.079C0.101,-0.108 0.077,-0.143 0.06,-0.184C0.043,-0.225 0.035,-0.269 0.035,-0.316C0.035,-0.385 0.046,-0.444 0.068,-0.493C0.089,-0.541 0.118,-0.58 0.155,-0.611C0.191,-0.641 0.233,-0.663 0.281,-0.677C0.329,-0.691 0.379,-0.698 0.432,-0.698C0.449,-0.698 0.468,-0.697 0.487,-0.694C0.506,-0.691 0.525,-0.688 0.543,-0.684C0.561,-0.679 0.578,-0.674 0.595,-0.668C0.611,-0.662 0.625,-0.656 0.636,-0.649C0.629,-0.632 0.624,-0.616 0.621,-0.599C0.617,-0.582 0.614,-0.564 0.613,-0.547L0.599,-0.547C0.574,-0.579 0.548,-0.602 0.521,-0.616C0.494,-0.629 0.463,-0.636 0.427,-0.636C0.4,-0.636 0.374,-0.63 0.347,-0.618C0.32,-0.606 0.295,-0.588 0.273,-0.563C0.251,-0.538 0.233,-0.507 0.22,-0.469C0.206,-0.43 0.199,-0.384 0.199,-0.331C0.199,-0.28 0.206,-0.236 0.22,-0.2C0.234,-0.163 0.252,-0.133 0.275,-0.111C0.297,-0.088 0.322,-0.071 0.351,-0.06C0.379,-0.049 0.407,-0.044 0.436,-0.044C0.452,-0.044 0.468,-0.046 0.485,-0.05C0.502,-0.053 0.518,-0.058 0.534,-0.065C0.55,-0.071 0.565,-0.079 0.58,-0.088C0.594,-0.097 0.606,-0.108 0.617,-0.119L0.63,-0.111Z" style="fill:rgb(134,131,131);fill-rule:nonzero;"/>
        </g>
        <g transform="matrix(76.453,0,0,75.2214,229.414,176.391)">
            <path d="M0.093,-0.408C0.093,-0.463 0.092,-0.513 0.091,-0.556C0.09,-0.599 0.088,-0.642 0.085,-0.685C0.096,-0.684 0.109,-0.683 0.122,-0.682C0.135,-0.681 0.15,-0.68 0.167,-0.68C0.184,-0.68 0.199,-0.681 0.212,-0.682C0.225,-0.683 0.238,-0.684 0.249,-0.685C0.246,-0.642 0.244,-0.599 0.243,-0.556C0.242,-0.513 0.241,-0.463 0.241,-0.408L0.241,-0.272C0.241,-0.217 0.242,-0.167 0.243,-0.125C0.244,-0.082 0.246,-0.039 0.249,0.002C0.238,0.001 0.225,-0 0.212,-0L0.122,-0C0.109,-0 0.096,0.001 0.085,0.002C0.088,-0.039 0.09,-0.082 0.091,-0.125C0.092,-0.167 0.093,-0.217 0.093,-0.272L0.093,-0.408Z" style="fill:rgb(134,131,131);fill-rule:nonzero;"/>
        </g>
        <g transform="matrix(76.453,0,0,75.2214,256.008,176.391)">
            <path d="M0.299,-0.497C0.282,-0.457 0.265,-0.418 0.25,-0.379C0.235,-0.339 0.22,-0.3 0.205,-0.259L0.388,-0.259C0.373,-0.3 0.359,-0.339 0.345,-0.379C0.33,-0.418 0.315,-0.457 0.299,-0.497ZM0.653,0.002C0.637,0.001 0.622,-0 0.608,-0L0.523,-0C0.508,-0 0.494,0.001 0.48,0.002C0.469,-0.031 0.458,-0.064 0.447,-0.098C0.436,-0.132 0.424,-0.166 0.411,-0.2C0.39,-0.201 0.368,-0.201 0.347,-0.202C0.326,-0.202 0.304,-0.202 0.283,-0.202C0.266,-0.202 0.248,-0.202 0.231,-0.202C0.214,-0.201 0.196,-0.201 0.179,-0.2C0.166,-0.166 0.153,-0.132 0.142,-0.098C0.131,-0.064 0.12,-0.031 0.111,0.002C0.103,0.001 0.095,-0 0.088,-0L0.04,-0C0.032,-0 0.023,0.001 0.014,0.002C0.022,-0.015 0.033,-0.039 0.046,-0.07C0.059,-0.101 0.074,-0.135 0.09,-0.174C0.106,-0.213 0.123,-0.254 0.142,-0.299C0.16,-0.343 0.178,-0.388 0.197,-0.433C0.215,-0.478 0.233,-0.523 0.251,-0.567C0.268,-0.611 0.284,-0.652 0.299,-0.69C0.306,-0.689 0.312,-0.688 0.318,-0.687C0.324,-0.686 0.33,-0.685 0.337,-0.685C0.344,-0.685 0.35,-0.686 0.356,-0.687C0.362,-0.688 0.368,-0.689 0.375,-0.69C0.396,-0.633 0.419,-0.573 0.444,-0.508C0.468,-0.443 0.492,-0.38 0.517,-0.318C0.542,-0.255 0.566,-0.196 0.589,-0.14C0.612,-0.084 0.634,-0.037 0.653,0.002Z" style="fill:rgb(134,131,131);fill-rule:nonzero;"/>
        </g>
        <g transform="matrix(76.453,0,0,75.2214,308.138,176.391)">
            <path d="M0.089,-0.408C0.089,-0.463 0.088,-0.513 0.087,-0.556C0.086,-0.599 0.084,-0.642 0.081,-0.685C0.092,-0.684 0.105,-0.683 0.118,-0.682C0.131,-0.681 0.146,-0.68 0.163,-0.68C0.18,-0.68 0.195,-0.681 0.208,-0.682C0.221,-0.683 0.234,-0.684 0.245,-0.685C0.242,-0.642 0.24,-0.599 0.239,-0.556C0.238,-0.513 0.237,-0.463 0.237,-0.408L0.237,-0.272C0.237,-0.234 0.237,-0.197 0.238,-0.162C0.238,-0.127 0.238,-0.096 0.239,-0.07C0.277,-0.07 0.315,-0.071 0.353,-0.073C0.391,-0.075 0.429,-0.078 0.468,-0.083C0.467,-0.076 0.466,-0.069 0.465,-0.063C0.464,-0.057 0.464,-0.049 0.464,-0.038C0.464,-0.027 0.464,-0.019 0.465,-0.013C0.466,-0.007 0.467,-0.002 0.468,0.002C0.45,0.001 0.428,0.001 0.402,0.001C0.375,0 0.339,-0 0.293,-0L0.135,-0C0.12,-0 0.108,0 0.101,0.001C0.093,0.001 0.086,0.001 0.081,0.002C0.084,-0.039 0.086,-0.082 0.087,-0.125C0.088,-0.167 0.089,-0.217 0.089,-0.272L0.089,-0.408Z" style="fill:rgb(134,131,131);fill-rule:nonzero;"/>
        </g>
    </g>
    <g transform="matrix(2.17737,-8.95348e-18,-4.17075e-18,2.02063,-156.666,53.4524)">
        <g transform="matrix(73.9867,0,0,79.726,73.1023,179.779)">
            <path d="M0.634,-0.362C0.634,-0.405 0.629,-0.444 0.618,-0.479C0.607,-0.513 0.592,-0.542 0.574,-0.566C0.555,-0.59 0.532,-0.608 0.505,-0.622C0.478,-0.635 0.448,-0.641 0.416,-0.641C0.382,-0.641 0.352,-0.633 0.325,-0.617C0.298,-0.6 0.275,-0.578 0.256,-0.55C0.237,-0.522 0.223,-0.489 0.214,-0.452C0.204,-0.414 0.199,-0.374 0.199,-0.331C0.199,-0.278 0.205,-0.233 0.216,-0.196C0.227,-0.159 0.243,-0.13 0.262,-0.108C0.281,-0.085 0.304,-0.069 0.329,-0.059C0.354,-0.049 0.381,-0.044 0.409,-0.044C0.439,-0.044 0.468,-0.05 0.495,-0.063C0.522,-0.076 0.546,-0.095 0.567,-0.121C0.587,-0.147 0.603,-0.18 0.616,-0.22C0.628,-0.26 0.634,-0.307 0.634,-0.362ZM0.035,-0.34C0.035,-0.389 0.044,-0.436 0.063,-0.479C0.081,-0.522 0.107,-0.56 0.14,-0.593C0.173,-0.626 0.214,-0.651 0.261,-0.67C0.308,-0.689 0.361,-0.698 0.419,-0.698C0.472,-0.698 0.522,-0.691 0.568,-0.676C0.614,-0.661 0.654,-0.639 0.688,-0.61C0.722,-0.581 0.749,-0.544 0.769,-0.499C0.788,-0.454 0.798,-0.401 0.798,-0.341C0.798,-0.291 0.789,-0.244 0.77,-0.201C0.751,-0.158 0.724,-0.12 0.691,-0.088C0.657,-0.055 0.617,-0.03 0.57,-0.012C0.523,0.006 0.472,0.015 0.416,0.015C0.363,0.015 0.314,0.008 0.268,-0.005C0.221,-0.018 0.181,-0.039 0.147,-0.068C0.112,-0.096 0.085,-0.133 0.065,-0.179C0.045,-0.224 0.035,-0.277 0.035,-0.34Z" style="fill:rgb(23,181,63);fill-rule:nonzero;"/>
        </g>
        <g transform="matrix(73.9867,0,0,79.726,134.206,179.779)">
            <path d="M0.63,-0.111C0.625,-0.097 0.62,-0.083 0.616,-0.069C0.612,-0.054 0.609,-0.04 0.608,-0.026C0.554,0.001 0.486,0.015 0.404,0.015C0.346,0.015 0.294,0.007 0.249,-0.01C0.203,-0.026 0.164,-0.049 0.133,-0.079C0.101,-0.108 0.077,-0.143 0.06,-0.184C0.043,-0.225 0.035,-0.269 0.035,-0.316C0.035,-0.385 0.046,-0.444 0.068,-0.493C0.089,-0.541 0.118,-0.58 0.155,-0.611C0.191,-0.641 0.233,-0.663 0.281,-0.677C0.329,-0.691 0.379,-0.698 0.432,-0.698C0.449,-0.698 0.468,-0.697 0.487,-0.694C0.506,-0.691 0.525,-0.688 0.543,-0.684C0.561,-0.679 0.578,-0.674 0.595,-0.668C0.611,-0.662 0.625,-0.656 0.636,-0.649C0.629,-0.632 0.624,-0.616 0.621,-0.599C0.617,-0.582 0.614,-0.564 0.613,-0.547L0.599,-0.547C0.574,-0.579 0.548,-0.602 0.521,-0.616C0.494,-0.629 0.463,-0.636 0.427,-0.636C0.4,-0.636 0.374,-0.63 0.347,-0.618C0.32,-0.606 0.295,-0.588 0.273,-0.563C0.251,-0.538 0.233,-0.507 0.22,-0.469C0.206,-0.43 0.199,-0.384 0.199,-0.331C0.199,-0.28 0.206,-0.236 0.22,-0.2C0.234,-0.163 0.252,-0.133 0.275,-0.111C0.297,-0.088 0.322,-0.071 0.351,-0.06C0.379,-0.049 0.407,-0.044 0.436,-0.044C0.452,-0.044 0.468,-0.046 0.485,-0.05C0.502,-0.053 0.518,-0.058 0.534,-0.065C0.55,-0.071 0.565,-0.079 0.58,-0.088C0.594,-0.097 0.606,-0.108 0.617,-0.119L0.63,-0.111Z" style="fill:rgb(23,181,63);fill-rule:nonzero;"/>
        </g>
        <g transform="matrix(73.9867,0,0,79.726,181.549,179.779)">
            <path d="M0.08,-0.408C0.08,-0.463 0.079,-0.513 0.078,-0.556C0.077,-0.599 0.075,-0.642 0.072,-0.685C0.102,-0.684 0.132,-0.683 0.161,-0.682C0.19,-0.681 0.22,-0.68 0.25,-0.68C0.299,-0.68 0.343,-0.681 0.382,-0.682C0.42,-0.683 0.446,-0.684 0.459,-0.685C0.456,-0.674 0.455,-0.66 0.455,-0.643C0.455,-0.632 0.455,-0.624 0.456,-0.618C0.457,-0.612 0.458,-0.605 0.459,-0.598C0.44,-0.599 0.419,-0.601 0.396,-0.602C0.373,-0.603 0.35,-0.605 0.329,-0.606C0.307,-0.607 0.287,-0.608 0.27,-0.609C0.253,-0.61 0.24,-0.61 0.233,-0.61C0.23,-0.573 0.229,-0.537 0.229,-0.501C0.228,-0.465 0.228,-0.429 0.228,-0.392C0.271,-0.393 0.311,-0.394 0.346,-0.395C0.381,-0.396 0.417,-0.398 0.455,-0.4C0.453,-0.389 0.452,-0.38 0.451,-0.374C0.45,-0.368 0.45,-0.362 0.45,-0.355C0.45,-0.35 0.451,-0.344 0.452,-0.339C0.452,-0.333 0.454,-0.325 0.455,-0.314C0.379,-0.32 0.303,-0.323 0.228,-0.323C0.228,-0.302 0.228,-0.28 0.228,-0.259C0.227,-0.238 0.227,-0.216 0.227,-0.195C0.227,-0.152 0.228,-0.11 0.23,-0.07C0.268,-0.07 0.306,-0.071 0.344,-0.073C0.382,-0.075 0.42,-0.078 0.459,-0.083C0.458,-0.076 0.457,-0.069 0.456,-0.063C0.455,-0.057 0.455,-0.049 0.455,-0.038C0.455,-0.027 0.455,-0.019 0.456,-0.013C0.457,-0.007 0.458,-0.002 0.459,0.002C0.441,0.001 0.419,0.001 0.393,0.001C0.366,0 0.33,-0 0.284,-0L0.126,-0C0.111,-0 0.099,0 0.092,0.001C0.084,0.001 0.077,0.001 0.072,0.002C0.075,-0.039 0.077,-0.082 0.078,-0.125C0.079,-0.167 0.08,-0.217 0.08,-0.272L0.08,-0.408Z" style="fill:rgb(23,181,63);fill-rule:nonzero;"/>
        </g>
        <g transform="matrix(73.9867,0,0,79.726,218.015,179.779)">
            <path d="M0.089,-0.408C0.089,-0.463 0.088,-0.513 0.087,-0.556C0.086,-0.599 0.084,-0.642 0.081,-0.685C0.092,-0.684 0.105,-0.683 0.118,-0.682C0.131,-0.681 0.146,-0.68 0.163,-0.68C0.18,-0.68 0.195,-0.681 0.208,-0.682C0.221,-0.683 0.234,-0.684 0.245,-0.685C0.242,-0.642 0.24,-0.599 0.239,-0.556C0.238,-0.513 0.237,-0.463 0.237,-0.408L0.237,-0.272C0.237,-0.234 0.237,-0.197 0.238,-0.162C0.238,-0.127 0.238,-0.096 0.239,-0.07C0.277,-0.07 0.315,-0.071 0.353,-0.073C0.391,-0.075 0.429,-0.078 0.468,-0.083C0.467,-0.076 0.466,-0.069 0.465,-0.063C0.464,-0.057 0.464,-0.049 0.464,-0.038C0.464,-0.027 0.464,-0.019 0.465,-0.013C0.466,-0.007 0.467,-0.002 0.468,0.002C0.45,0.001 0.428,0.001 0.402,0.001C0.375,0 0.339,-0 0.293,-0L0.135,-0C0.12,-0 0.108,0 0.101,0.001C0.093,0.001 0.086,0.001 0.081,0.002C0.084,-0.039 0.086,-0.082 0.087,-0.125C0.088,-0.167 0.089,-0.217 0.089,-0.272L0.089,-0.408Z" style="fill:rgb(23,181,63);fill-rule:nonzero;"/>
        </g>
        <g transform="matrix(73.9867,0,0,79.726,249.303,179.779)">
            <path d="M0.634,-0.362C0.634,-0.405 0.629,-0.444 0.618,-0.479C0.607,-0.513 0.592,-0.542 0.574,-0.566C0.555,-0.59 0.532,-0.608 0.505,-0.622C0.478,-0.635 0.448,-0.641 0.416,-0.641C0.382,-0.641 0.352,-0.633 0.325,-0.617C0.298,-0.6 0.275,-0.578 0.256,-0.55C0.237,-0.522 0.223,-0.489 0.214,-0.452C0.204,-0.414 0.199,-0.374 0.199,-0.331C0.199,-0.278 0.205,-0.233 0.216,-0.196C0.227,-0.159 0.243,-0.13 0.262,-0.108C0.281,-0.085 0.304,-0.069 0.329,-0.059C0.354,-0.049 0.381,-0.044 0.409,-0.044C0.439,-0.044 0.468,-0.05 0.495,-0.063C0.522,-0.076 0.546,-0.095 0.567,-0.121C0.587,-0.147 0.603,-0.18 0.616,-0.22C0.628,-0.26 0.634,-0.307 0.634,-0.362ZM0.035,-0.34C0.035,-0.389 0.044,-0.436 0.063,-0.479C0.081,-0.522 0.107,-0.56 0.14,-0.593C0.173,-0.626 0.214,-0.651 0.261,-0.67C0.308,-0.689 0.361,-0.698 0.419,-0.698C0.472,-0.698 0.522,-0.691 0.568,-0.676C0.614,-0.661 0.654,-0.639 0.688,-0.61C0.722,-0.581 0.749,-0.544 0.769,-0.499C0.788,-0.454 0.798,-0.401 0.798,-0.341C0.798,-0.291 0.789,-0.244 0.77,-0.201C0.751,-0.158 0.724,-0.12 0.691,-0.088C0.657,-0.055 0.617,-0.03 0.57,-0.012C0.523,0.006 0.472,0.015 0.416,0.015C0.363,0.015 0.314,0.008 0.268,-0.005C0.221,-0.018 0.181,-0.039 0.147,-0.068C0.112,-0.096 0.085,-0.133 0.065,-0.179C0.045,-0.224 0.035,-0.277 0.035,-0.34Z" style="fill:rgb(23,181,63);fill-rule:nonzero;"/>
        </g>
        <g transform="matrix(73.9867,0,0,79.726,305.228,179.779)">
            <path d="M0.207,-0.522C0.207,-0.541 0.207,-0.559 0.207,-0.575C0.206,-0.591 0.205,-0.603 0.204,-0.61C0.194,-0.61 0.182,-0.61 0.167,-0.609C0.152,-0.608 0.137,-0.608 0.12,-0.607C0.103,-0.606 0.086,-0.604 0.069,-0.603C0.052,-0.601 0.036,-0.599 0.021,-0.597C0.022,-0.604 0.024,-0.612 0.025,-0.619C0.026,-0.626 0.026,-0.634 0.026,-0.641C0.026,-0.648 0.026,-0.656 0.025,-0.663C0.024,-0.67 0.022,-0.678 0.021,-0.685C0.044,-0.684 0.064,-0.684 0.083,-0.683C0.101,-0.682 0.12,-0.682 0.139,-0.682C0.158,-0.681 0.178,-0.681 0.201,-0.681C0.223,-0.68 0.25,-0.68 0.281,-0.68C0.312,-0.68 0.339,-0.68 0.362,-0.681C0.384,-0.681 0.404,-0.681 0.423,-0.682C0.442,-0.682 0.46,-0.682 0.478,-0.683C0.495,-0.684 0.514,-0.684 0.535,-0.685C0.534,-0.678 0.533,-0.67 0.532,-0.663C0.531,-0.656 0.53,-0.648 0.53,-0.641C0.53,-0.634 0.531,-0.626 0.532,-0.619C0.533,-0.612 0.534,-0.604 0.535,-0.597C0.522,-0.599 0.507,-0.601 0.49,-0.603C0.473,-0.604 0.457,-0.606 0.441,-0.607C0.424,-0.608 0.409,-0.608 0.394,-0.609C0.379,-0.61 0.367,-0.61 0.357,-0.61C0.356,-0.607 0.356,-0.602 0.356,-0.596C0.355,-0.59 0.355,-0.583 0.355,-0.575L0.355,-0.272C0.355,-0.217 0.356,-0.167 0.357,-0.125C0.358,-0.082 0.36,-0.039 0.363,0.002C0.352,0.001 0.339,-0 0.326,-0L0.236,-0C0.223,-0 0.21,0.001 0.199,0.002C0.202,-0.039 0.204,-0.082 0.205,-0.125C0.206,-0.167 0.207,-0.217 0.207,-0.272L0.207,-0.522Z" style="fill:rgb(23,181,63);fill-rule:nonzero;"/>
        </g>
    </g>
</svg>
