<svg xmlns="http://www.w3.org/2000/svg" xml:space="preserve" width="1080" height="1080"><rect width="100%" height="100%" fill="transparent"/><path d="M15 3a2 2 0 0 1 2 2c0 .085-.021.168-.031.25C20.49 6.174 23 9.523 23 13.281V22c0 .565.435 1 1 1h1v2h-7.188c.114.316.188.647.188 1 0 1.645-1.355 3-3 3s-3-1.355-3-3c0-.353.073-.684.188-1H5v-2h1c.565 0 1-.435 1-1v-9c0-3.726 2.574-6.866 6.031-7.75C13.021 5.168 13 5.085 13 5a2 2 0 0 1 2-2zm-.437 4A6.004 6.004 0 0 0 9 13v9c0 .353-.073.684-.188 1h12.375a2.925 2.925 0 0 1-.188-1v-8.719c0-3.319-2.546-6.183-5.813-6.281-.064-.002-.124 0-.188 0-.148 0-.292-.011-.438 0zM15 25c-.564 0-1 .436-1 1 0 .564.436 1 1 1 .564 0 1-.436 1-1 0-.564-.436-1-1-1z" style="stroke:none;stroke-width:1;stroke-dasharray:none;stroke-linecap:butt;stroke-dashoffset:0;stroke-linejoin:miter;stroke-miterlimit:4;fill:#000;fill-rule:nonzero;opacity:1" transform="translate(33.75) scale(33.75)"/><rect width="74.334" height="74.334" x="-37.167" y="-37.167" rx="0" ry="0" style="stroke:#000;stroke-width:0;stroke-dasharray:none;stroke-linecap:butt;stroke-dashoffset:0;stroke-linejoin:miter;stroke-miterlimit:4;fill:#000;fill-rule:nonzero;opacity:1" transform="matrix(9.42 -12.59 .8 .6 538.54 541.95)" vector-effect="non-scaling-stroke"/></svg>
