<svg version="1.1" id="Ebene_1" xmlns="http://www.w3.org/2000/svg" x="0px" y="0px" width="32px" height="32px" viewBox="0 0 32 32">
	<rect x="8.1" y="13.3" width="1.5" height="1.9"/>
	<path d="M31.9,17.9L31.9,17.9l0-0.6c-0.2-5.5-4.1-10.3-9.5-11.6c-0.2,0-0.8-0.2-0.8-0.2c-3.1-0.6-6.3-0.5-9.5,0.1
		c-0.3,0.1-0.6,0.1-0.9,0.2C10.6,5.7,10,5.4,9.7,5.4L9.5,5.3C8.7,5,7.6,4.6,6.8,5.1C6,5.7,6,6.7,6.2,7.3l0.3,1.2
		C5.1,9.7,4,11.2,3.3,12.8c-0.4,0.8-0.8,0.8-1.2,0.8c-0.1,0-0.2,0-0.3,0H0l0,5.5l0.6,0.1c0,0,1.1,0.2,1.6,1C2.5,20.7,2.7,21,3,22.3
		c1.1,3.4,3.6,5.3,4.6,5.9l0,3.9H12l2.6-3.4h6.1l1.7,3.4h4.9v-4.6l0.4-0.4c2.5-2.2,3.9-5.2,4.1-8.5l0-0.4
		C31.9,18.1,31.9,18,31.9,17.9z M26.7,25.9l-0.9,0.9v3.8h-2.5l-1.7-3.4h-7.7l-2.6,3.4H9.1l0-3.2l-0.4-0.2c0,0-3.1-1.7-4.2-5.3
		c-0.4-1.4-0.6-1.8-1-2.3c-0.5-0.9-1.4-1.3-2-1.5v-2.8l0.6,0c0.5,0,1.8,0,2.6-1.7c0.5-1.2,1.3-2.3,2.2-3.3c0.8-0.8,1.3-1,1.1-1.5
		l0,0L7.6,7c-0.1-0.2-0.1-0.5,0-0.6c0.2-0.1,1,0.1,1.4,0.3l0.3,0.1c0.3,0.1,0.9,0.4,1.7,0.6l0.2,0.1l0.3-0.1c0.3-0.1,0.7-0.2,1-0.2
		c3-0.6,5.9-0.6,8.9-0.1c0,0,0.6,0.1,0.8,0.1c4.7,1.1,8.2,5.3,8.4,10.1l0,0.8c-0.1,1.3-1.2,2.4-2.5,2.4c-1,0-1.9-0.9-1.9-2
		c0-0.8,0.6-1.4,1.4-1.4v-1.5c-1.6,0-2.9,1.3-2.9,2.9c0,1.9,1.5,3.5,3.4,3.5c0.7,0,1.3-0.2,1.8-0.5C29.1,23.2,28.1,24.7,26.7,25.9z"
		/>
</svg>
