<?xml version="1.0" encoding="utf-8"?>
<!-- Generator: Adobe Illustrator 26.4.1, SVG Export Plug-In . SVG Version: 6.00 Build 0)  -->
<svg version="1.1" id="Layer_1" xmlns="http://www.w3.org/2000/svg" xmlns:xlink="http://www.w3.org/1999/xlink" x="0px" y="0px"
	 width="24px" height="24.3px" viewBox="0 0 24 24.3" style="enable-background:new 0 0 24 24.3;" xml:space="preserve">
<style type="text/css">
	.st0{fill:#333333;}
</style>
<g>
	<circle class="st0" cx="17.1" cy="2.9" r="2.9"/>
	<path class="st0" d="M23.5,5.6L23.5,5.6c-0.6-0.5-1.4-0.5-2,0.1l-2.7,3l-2.2-1.4c0.1,0.3,0.1,0.6,0.1,0.9c0,0.6-0.2,1.1-0.5,1.6
		L16,10.2l1.5,1c0.4,0.3,0.9,0.4,1.4,0.4c0.1,0,0.2,0,0.4,0c0.6-0.1,1.2-0.4,1.6-0.9l2.7-3.1C24.2,7,24.1,6.1,23.5,5.6z"/>
	<path class="st0" d="M6.5,17c-0.3-0.2-0.5-0.5-0.7-0.8c0,0,0,0,0,0L4.6,19l-4,2.7C0,22.1-0.2,23,0.2,23.6l0,0
		c0.4,0.6,1.3,0.8,1.9,0.4l4.7-3.2l1.4-3.3l-0.7-0.1C7.2,17.4,6.8,17.2,6.5,17z"/>
	<path class="st0" d="M16.3,15.1l-4.4-0.5l3.5-4.7l0.3-0.4C16,9,16.2,8.6,16.2,8.2c0-0.7-0.4-1.4-1-1.7c-0.1,0-0.1-0.1-0.2-0.1
		l-1.8-0.7L9.4,4.4C9.1,4.3,8.8,4.3,8.5,4.3c-0.3,0-0.5,0-0.8,0.1c-0.5,0.2-1,0.5-1.3,0.9L3.7,8.5C3.2,9.1,3.3,10,3.9,10.5l0,0
		c0.3,0.2,0.6,0.3,0.9,0.3c0.4,0,0.8-0.2,1.1-0.5L8.6,7L11.4,8l-4.8,6.5l0,0c-0.1,0.1-0.1,0.3-0.2,0.4c-0.2,0.8,0.4,1.7,1.3,1.8
		l0.9,0.1l6.9,0.9l-1.7,2.7c-0.4,0.7-0.2,1.5,0.5,1.9h0c0.2,0.1,0.5,0.2,0.7,0.2c0.5,0,0.9-0.2,1.2-0.7l2-3.2
		c0.4-0.7,0.5-1.6,0.1-2.3C17.8,15.7,17.1,15.2,16.3,15.1z"/>
</g>
</svg>
