<!-- Language/Translate icon -->
<svg version="1.1" xmlns="http://www.w3.org/2000/svg" width="32" height="32" viewBox="0 0 32 32">
<title>language</title>
<path d="M3 4v14h6l2 4 2-4h6v-14h-16zM7 7h8v1.5h-3.25c-0.3 1.3-0.85 2.5-1.6 3.5 0.55 0.45 1.2 0.8 1.85 1l-0.5 1.5c-0.9-0.3-1.7-0.75-2.4-1.35-0.7 0.6-1.5 1.05-2.4 1.35l-0.5-1.5c0.65-0.2 1.3-0.55 1.85-1-0.75-1-1.3-2.2-1.6-3.5h-1.5v-1.5h2.05zM9.1 8.5c0.25 0.95 0.65 1.8 1.15 2.5 0.5-0.7 0.9-1.55 1.15-2.5h-2.3z"></path>
<path d="M29 12v14h-6l-2 4-2-4h-6v-14h16zM20 16l-3.5 8h2l0.75-1.75h3.5l0.75 1.75h2l-3.5-8h-2zM21 18.5l1.15 2.75h-2.3l1.15-2.75z"></path>
</svg>
